<svg width="1217" height="149" viewBox="0 0 1217 149" fill="none" xmlns="http://www.w3.org/2000/svg">
<path d="M256.269 55.656L263.997 58.824L246.717 100.008H281.661V107.256H237.021V100.728L256.269 55.656ZM273.405 81.72V123H264.525L264.477 101.544L265.725 81.72H273.405ZM309.224 55.656C316.488 55.656 321.976 58.632 325.688 64.584C329.4 70.504 331.256 78.936 331.256 89.88C331.256 100.856 329.4 109.32 325.688 115.272C321.976 121.224 316.488 124.2 309.224 124.2C301.96 124.2 296.472 121.224 292.76 115.272C289.048 109.32 287.192 100.856 287.192 89.88C287.192 78.936 289.048 70.504 292.76 64.584C296.472 58.632 301.96 55.656 309.224 55.656ZM309.224 62.904C305.288 62.904 302.2 65 299.96 69.192C297.752 73.384 296.648 80.28 296.648 89.88C296.648 94.84 296.888 99.048 297.368 102.504C297.848 105.96 298.584 108.744 299.576 110.856C300.6 112.968 301.912 114.52 303.512 115.512C305.112 116.472 307.016 116.952 309.224 116.952C311.88 116.952 314.152 116.04 316.04 114.216C317.928 112.392 319.352 109.48 320.312 105.48C321.304 101.48 321.8 96.28 321.8 89.88C321.8 83.288 321.368 78.024 320.504 74.088C319.672 70.12 318.328 67.272 316.472 65.544C314.616 63.784 312.2 62.904 309.224 62.904ZM318.632 65.208L321.032 72.456L300.536 114.072L297.32 108.264L318.632 65.208ZM356.034 55.656L363.762 58.824L346.482 100.008H381.426V107.256H336.786V100.728L356.034 55.656ZM373.17 81.72V123H364.29L364.242 101.544L365.49 81.72H373.17ZM451.143 64.344V85.608H475.431V93.144H451.143V115.56H480.855V123H441.591V56.856H480.135L479.031 64.344H451.143ZM506.834 116.856C510.514 116.856 513.41 116.184 515.522 114.84C517.666 113.496 518.738 111.672 518.738 109.368C518.738 107.896 518.45 106.632 517.874 105.576C517.33 104.52 516.178 103.56 514.418 102.696C512.69 101.832 510.066 100.952 506.546 100.056C503.122 99.192 500.13 98.184 497.57 97.032C495.01 95.88 493.026 94.376 491.618 92.52C490.242 90.664 489.554 88.264 489.554 85.32C489.554 82.44 490.354 79.944 491.954 77.832C493.586 75.72 495.874 74.088 498.818 72.936C501.794 71.784 505.25 71.208 509.186 71.208C513.346 71.208 516.962 71.768 520.034 72.888C523.138 73.976 525.762 75.32 527.906 76.92L523.97 82.92C522.018 81.608 519.874 80.536 517.538 79.704C515.234 78.872 512.514 78.456 509.378 78.456C505.634 78.456 502.962 79.032 501.362 80.184C499.794 81.304 499.01 82.792 499.01 84.648C499.01 86.024 499.394 87.176 500.162 88.104C500.962 89 502.322 89.832 504.242 90.6C506.162 91.368 508.818 92.216 512.21 93.144C515.506 94.04 518.386 95.096 520.85 96.312C523.314 97.528 525.218 99.128 526.562 101.112C527.938 103.064 528.626 105.64 528.626 108.84C528.626 112.456 527.586 115.4 525.506 117.672C523.426 119.912 520.722 121.56 517.394 122.616C514.098 123.672 510.578 124.2 506.834 124.2C502.226 124.2 498.258 123.528 494.93 122.184C491.634 120.84 488.866 119.192 486.626 117.24L491.714 111.384C493.698 113.016 495.97 114.344 498.53 115.368C501.09 116.36 503.858 116.856 506.834 116.856ZM562.524 116.424C564.988 116.424 567.276 116.008 569.388 115.176C571.532 114.344 573.532 113.288 575.388 112.008L579.804 118.008C577.596 119.896 574.924 121.4 571.788 122.52C568.652 123.64 565.516 124.2 562.38 124.2C557.292 124.2 552.94 123.112 549.324 120.936C545.74 118.76 543.004 115.704 541.116 111.768C539.228 107.832 538.284 103.224 538.284 97.944C538.284 92.824 539.228 88.248 541.116 84.216C543.036 80.184 545.804 77.016 549.42 74.712C553.036 72.376 557.404 71.208 562.524 71.208C565.852 71.208 568.94 71.72 571.788 72.744C574.668 73.736 577.308 75.208 579.708 77.16L575.34 83.16C573.26 81.72 571.164 80.632 569.052 79.896C566.94 79.128 564.78 78.744 562.572 78.744C558.348 78.744 554.892 80.312 552.204 83.448C549.516 86.584 548.172 91.416 548.172 97.944C548.172 102.296 548.78 105.832 549.996 108.552C551.244 111.272 552.956 113.272 555.132 114.552C557.308 115.8 559.772 116.424 562.524 116.424ZM626.183 111.384C626.183 113.4 626.503 114.872 627.143 115.8C627.783 116.696 628.791 117.368 630.167 117.816L628.007 124.152C625.703 123.864 623.703 123.176 622.007 122.088C620.311 121 619.047 119.336 618.215 117.096C616.391 119.432 614.087 121.208 611.303 122.424C608.519 123.608 605.495 124.2 602.231 124.2C597.143 124.2 593.127 122.76 590.183 119.88C587.239 117 585.767 113.208 585.767 108.504C585.767 103.224 587.815 99.176 591.911 96.36C596.039 93.544 601.959 92.136 609.671 92.136H617.015V88.296C617.015 84.808 615.975 82.328 613.895 80.856C611.847 79.384 608.983 78.648 605.303 78.648C603.639 78.648 601.655 78.856 599.351 79.272C597.047 79.688 594.599 80.344 592.007 81.24L589.655 74.52C592.791 73.336 595.783 72.488 598.631 71.976C601.511 71.464 604.199 71.208 606.695 71.208C613.223 71.208 618.103 72.696 621.335 75.672C624.567 78.616 626.183 82.664 626.183 87.816V111.384ZM604.823 117.288C607.191 117.288 609.463 116.68 611.639 115.464C613.815 114.248 615.607 112.552 617.015 110.376V98.136H610.295C604.951 98.136 601.159 99.048 598.919 100.872C596.679 102.664 595.559 105.128 595.559 108.264C595.559 111.208 596.327 113.448 597.863 114.984C599.399 116.52 601.719 117.288 604.823 117.288ZM662.289 71.208C666.769 71.208 670.353 72.312 673.041 74.52C675.729 76.696 677.665 79.768 678.849 83.736C680.033 87.672 680.625 92.312 680.625 97.656C680.625 102.776 679.905 107.336 678.465 111.336C677.025 115.336 674.865 118.488 671.985 120.792C669.105 123.064 665.489 124.2 661.137 124.2C655.665 124.2 651.281 122.28 647.985 118.44V142.392L638.769 143.496V72.408H646.689L647.361 79.224C649.249 76.632 651.473 74.648 654.033 73.272C656.593 71.896 659.345 71.208 662.289 71.208ZM659.937 78.456C657.313 78.456 654.993 79.256 652.977 80.856C650.961 82.424 649.297 84.216 647.985 86.232V110.712C649.265 112.6 650.833 114.088 652.689 115.176C654.545 116.232 656.609 116.76 658.881 116.76C662.849 116.76 665.841 115.224 667.857 112.152C669.873 109.048 670.881 104.216 670.881 97.656C670.881 93.272 670.481 89.672 669.681 86.856C668.881 84.008 667.665 81.896 666.033 80.52C664.433 79.144 662.401 78.456 659.937 78.456ZM696.092 100.824C696.284 104.536 697.036 107.576 698.348 109.944C699.66 112.28 701.372 114.008 703.484 115.128C705.596 116.216 707.932 116.76 710.492 116.76C713.02 116.76 715.34 116.376 717.452 115.608C719.564 114.84 721.708 113.72 723.884 112.248L728.06 118.056C725.692 119.944 722.956 121.448 719.852 122.568C716.748 123.656 713.532 124.2 710.204 124.2C705.148 124.2 700.844 123.096 697.292 120.888C693.772 118.648 691.084 115.544 689.228 111.576C687.404 107.608 686.492 103 686.492 97.752C686.492 92.664 687.404 88.12 689.228 84.12C691.084 80.12 693.692 76.968 697.052 74.664C700.412 72.36 704.412 71.208 709.052 71.208C713.404 71.208 717.148 72.216 720.284 74.232C723.452 76.248 725.884 79.128 727.58 82.872C729.276 86.584 730.124 91.032 730.124 96.216C730.124 97.08 730.108 97.912 730.076 98.712C730.044 99.512 729.996 100.216 729.932 100.824H696.092ZM709.148 78.408C705.564 78.408 702.572 79.688 700.172 82.248C697.804 84.808 696.444 88.76 696.092 94.104H721.244C721.148 88.984 720.028 85.096 717.884 82.44C715.772 79.752 712.86 78.408 709.148 78.408ZM734.166 140.472V132.648H782.166V140.472H734.166ZM831.233 75.624C831.233 78.92 830.529 81.784 829.121 84.216C827.745 86.648 825.873 88.68 823.505 90.312C821.137 91.912 818.481 93.096 815.537 93.864L834.785 123H823.505L806.081 95.112H797.873V123H788.321V56.856H805.937C814.257 56.856 820.545 58.44 824.801 61.608C829.089 64.744 831.233 69.416 831.233 75.624ZM821.105 75.624C821.105 71.56 819.921 68.632 817.553 66.84C815.217 65.048 811.617 64.152 806.753 64.152H797.873V87.864H806.849C811.393 87.864 814.897 86.936 817.361 85.08C819.857 83.192 821.105 80.04 821.105 75.624ZM858.027 71.208C862.859 71.208 866.907 72.296 870.171 74.472C873.467 76.648 875.947 79.72 877.611 83.688C879.307 87.624 880.155 92.28 880.155 97.656C880.155 102.872 879.291 107.48 877.563 111.48C875.867 115.448 873.371 118.568 870.075 120.84C866.779 123.08 862.731 124.2 857.931 124.2C853.131 124.2 849.067 123.112 845.739 120.936C842.443 118.76 839.947 115.688 838.251 111.72C836.555 107.752 835.707 103.096 835.707 97.752C835.707 92.504 836.555 87.896 838.251 83.928C839.979 79.928 842.507 76.808 845.835 74.568C849.163 72.328 853.227 71.208 858.027 71.208ZM858.027 78.552C853.867 78.552 850.731 80.12 848.619 83.256C846.507 86.36 845.451 91.192 845.451 97.752C845.451 104.248 846.491 109.064 848.571 112.2C850.651 115.304 853.771 116.856 857.931 116.856C862.091 116.856 865.211 115.304 867.291 112.2C869.371 109.064 870.411 104.216 870.411 97.656C870.411 91.128 869.371 86.312 867.291 83.208C865.243 80.104 862.155 78.552 858.027 78.552ZM907.91 71.208C912.742 71.208 916.79 72.296 920.054 74.472C923.35 76.648 925.83 79.72 927.494 83.688C929.19 87.624 930.038 92.28 930.038 97.656C930.038 102.872 929.174 107.48 927.446 111.48C925.75 115.448 923.254 118.568 919.958 120.84C916.662 123.08 912.614 124.2 907.814 124.2C903.014 124.2 898.95 123.112 895.622 120.936C892.326 118.76 889.83 115.688 888.134 111.72C886.438 107.752 885.59 103.096 885.59 97.752C885.59 92.504 886.438 87.896 888.134 83.928C889.862 79.928 892.39 76.808 895.718 74.568C899.046 72.328 903.11 71.208 907.91 71.208ZM907.91 78.552C903.75 78.552 900.614 80.12 898.502 83.256C896.39 86.36 895.334 91.192 895.334 97.752C895.334 104.248 896.374 109.064 898.454 112.2C900.534 115.304 903.654 116.856 907.814 116.856C911.974 116.856 915.094 115.304 917.174 112.2C919.254 109.064 920.294 104.216 920.294 97.656C920.294 91.128 919.254 86.312 917.174 83.208C915.126 80.104 912.038 78.552 907.91 78.552ZM972.096 71.208C973.856 71.208 975.488 71.592 976.992 72.36C978.496 73.128 979.712 74.536 980.64 76.584C981.568 78.6 982.032 81.528 982.032 85.368V123H973.632V86.712C973.632 83.768 973.44 81.656 973.056 80.376C972.704 79.064 971.68 78.408 969.984 78.408C968.576 78.408 967.184 78.84 965.808 79.704C964.432 80.568 963.072 82.008 961.728 84.024V123H953.664V86.712C953.664 83.768 953.472 81.656 953.088 80.376C952.736 79.064 951.712 78.408 950.016 78.408C948.576 78.408 947.168 78.84 945.792 79.704C944.448 80.568 943.104 82.008 941.76 84.024V123H933.36V72.408H940.464L941.04 78.072C942.448 76.088 944 74.456 945.696 73.176C947.424 71.864 949.52 71.208 951.984 71.208C953.904 71.208 955.68 71.672 957.312 72.6C958.976 73.528 960.192 75.256 960.96 77.784C962.336 75.832 963.904 74.248 965.664 73.032C967.424 71.816 969.568 71.208 972.096 71.208Z" fill="white"/>
</svg>
