<svg width="308" height="66" viewBox="0 0 308 66" fill="none" xmlns="http://www.w3.org/2000/svg">
<path d="M2.5 47.6285V18.0408L29.1662 2.88003L55.5 18.0322V47.6371L29.1661 63.1051L2.5 47.6285Z" stroke="#7273DD" stroke-width="5"/>
<path d="M13.6138 41.3227V24.133L28.9249 15.3279L44.0389 24.1244V41.3314L28.9248 50.3111L13.6138 41.3227Z" fill="#FD83BC" stroke="#7273DD" stroke-width="5"/>
<path d="M54.5267 18.6597L43.7603 24.534" stroke="#7273DD" stroke-width="5"/>
<path d="M13.5451 23.8428L3.12598 17.9685M29.1739 48.7224V63.581M29.1739 16.2407V32.8271M29.1739 32.8271L13.5451 41.8114M29.1739 32.8271L44.108 41.8114" stroke="#7273DD" stroke-width="6"/>
<path d="M91.652 45V21.03H102.124C104.753 21.03 106.782 21.6533 108.21 22.9C109.661 24.1467 110.386 25.8807 110.386 28.102C110.386 29.5753 110.057 30.8333 109.4 31.876C108.765 32.9187 107.847 33.7233 106.646 34.29C105.445 34.834 104.028 35.106 102.396 35.106L102.872 34.46H104.028C104.98 34.46 105.83 34.7093 106.578 35.208C107.326 35.7067 107.938 36.466 108.414 37.486L111.916 45H107.088L103.552 37.214C103.235 36.4207 102.747 35.8993 102.09 35.65C101.455 35.4007 100.685 35.276 99.778 35.276H96.038V45H91.652ZM96.038 32.046H101.41C102.951 32.046 104.119 31.7287 104.912 31.094C105.728 30.4367 106.136 29.4847 106.136 28.238C106.136 26.9913 105.728 26.0507 104.912 25.416C104.119 24.7813 102.951 24.464 101.41 24.464H96.038V32.046ZM121.139 45.34C119.643 45.34 118.328 44.9887 117.195 44.286C116.062 43.5607 115.178 42.5293 114.543 41.192C113.908 39.8547 113.591 38.2567 113.591 36.398C113.591 34.5393 113.908 32.9527 114.543 31.638C115.178 30.3007 116.062 29.2807 117.195 28.578C118.328 27.8527 119.643 27.49 121.139 27.49C122.59 27.49 123.859 27.8527 124.947 28.578C126.058 29.2807 126.794 30.2327 127.157 31.434H126.783L127.157 27.83H131.237C131.169 28.5327 131.101 29.2467 131.033 29.972C130.988 30.6973 130.965 31.4113 130.965 32.114V45H126.749L126.715 41.464H127.123C126.76 42.6427 126.024 43.5833 124.913 44.286C123.802 44.9887 122.544 45.34 121.139 45.34ZM122.329 42.076C123.666 42.076 124.743 41.6113 125.559 40.682C126.375 39.73 126.783 38.302 126.783 36.398C126.783 34.494 126.375 33.0773 125.559 32.148C124.743 31.2187 123.666 30.754 122.329 30.754C120.992 30.754 119.915 31.2187 119.099 32.148C118.283 33.0773 117.875 34.494 117.875 36.398C117.875 38.302 118.272 39.73 119.065 40.682C119.881 41.6113 120.969 42.076 122.329 42.076ZM135.083 45V32.114C135.083 31.4113 135.06 30.6973 135.015 29.972C134.97 29.2467 134.902 28.5327 134.811 27.83H138.925L139.265 31.23H138.857C139.401 30.0287 140.206 29.1107 141.271 28.476C142.336 27.8187 143.572 27.49 144.977 27.49C146.994 27.49 148.513 28.0567 149.533 29.19C150.553 30.3233 151.063 32.0913 151.063 34.494V45H146.813V34.698C146.813 33.3153 146.541 32.3293 145.997 31.74C145.476 31.128 144.682 30.822 143.617 30.822C142.302 30.822 141.26 31.23 140.489 32.046C139.718 32.862 139.333 33.95 139.333 35.31V45H135.083ZM155.059 45V19.976H159.309V35.14H159.377L166.347 27.83H171.481L162.811 36.908L162.845 35.208L172.093 45H166.823L159.377 37.316H159.309V45H155.059ZM173.309 45V27.83H177.559V45H173.309ZM173.071 24.6V20.452H177.797V24.6H173.071ZM181.664 45V32.114C181.664 31.4113 181.642 30.6973 181.596 29.972C181.551 29.2467 181.483 28.5327 181.392 27.83H185.506L185.846 31.23H185.438C185.982 30.0287 186.787 29.1107 187.852 28.476C188.918 27.8187 190.153 27.49 191.558 27.49C193.576 27.49 195.094 28.0567 196.114 29.19C197.134 30.3233 197.644 32.0913 197.644 34.494V45H193.394V34.698C193.394 33.3153 193.122 32.3293 192.578 31.74C192.057 31.128 191.264 30.822 190.198 30.822C188.884 30.822 187.841 31.23 187.07 32.046C186.3 32.862 185.914 33.95 185.914 35.31V45H181.664ZM209.597 52.616C208.01 52.616 206.571 52.446 205.279 52.106C204.009 51.766 202.876 51.2447 201.879 50.542L202.797 47.482C203.454 47.9127 204.134 48.264 204.837 48.536C205.539 48.808 206.265 49.012 207.013 49.148C207.761 49.284 208.52 49.352 209.291 49.352C210.877 49.352 212.056 48.9553 212.827 48.162C213.62 47.3913 214.017 46.2807 214.017 44.83V40.716H214.357C213.994 41.8947 213.257 42.8353 212.147 43.538C211.059 44.2407 209.801 44.592 208.373 44.592C206.831 44.592 205.483 44.252 204.327 43.572C203.193 42.8693 202.309 41.872 201.675 40.58C201.04 39.288 200.723 37.7693 200.723 36.024C200.723 34.2787 201.04 32.7713 201.675 31.502C202.309 30.21 203.193 29.224 204.327 28.544C205.483 27.8413 206.831 27.49 208.373 27.49C209.823 27.49 211.081 27.8413 212.147 28.544C213.235 29.224 213.96 30.1533 214.323 31.332L214.017 31.128L214.357 27.83H218.471C218.38 28.5327 218.312 29.2467 218.267 29.972C218.221 30.6973 218.199 31.4113 218.199 32.114V44.32C218.199 47.0173 217.462 49.0687 215.989 50.474C214.538 51.902 212.407 52.616 209.597 52.616ZM209.529 41.328C210.889 41.328 211.965 40.8747 212.759 39.968C213.575 39.0387 213.983 37.724 213.983 36.024C213.983 34.324 213.575 33.0207 212.759 32.114C211.965 31.2073 210.889 30.754 209.529 30.754C208.146 30.754 207.047 31.2073 206.231 32.114C205.415 33.0207 205.007 34.324 205.007 36.024C205.007 37.724 205.415 39.0387 206.231 39.968C207.047 40.8747 208.146 41.328 209.529 41.328ZM228.789 45L239.635 21.03H243.307L254.289 45H249.835L246.911 38.268L248.679 39.458H234.297L236.133 38.268L233.209 45H228.789ZM241.437 25.722L236.643 37.078L235.759 36.024H247.183L246.469 37.078L241.573 25.722H241.437ZM256.091 52.344V32.114C256.091 31.4113 256.068 30.6973 256.023 29.972C255.978 29.2467 255.91 28.5327 255.819 27.83H259.933L260.307 31.434H259.933C260.273 30.2327 260.987 29.2807 262.075 28.578C263.186 27.8527 264.466 27.49 265.917 27.49C267.436 27.49 268.762 27.8527 269.895 28.578C271.028 29.2807 271.912 30.3007 272.547 31.638C273.182 32.9527 273.499 34.5393 273.499 36.398C273.499 38.2567 273.182 39.8547 272.547 41.192C271.912 42.5293 271.028 43.5607 269.895 44.286C268.762 44.9887 267.436 45.34 265.917 45.34C264.489 45.34 263.231 44.9887 262.143 44.286C261.055 43.5833 260.33 42.6427 259.967 41.464H260.341V52.344H256.091ZM264.727 42.076C266.087 42.076 267.175 41.6113 267.991 40.682C268.807 39.73 269.215 38.302 269.215 36.398C269.215 34.494 268.807 33.0773 267.991 32.148C267.175 31.2187 266.087 30.754 264.727 30.754C263.39 30.754 262.313 31.2187 261.497 32.148C260.681 33.0773 260.273 34.494 260.273 36.398C260.273 38.302 260.681 39.73 261.497 40.682C262.313 41.6113 263.39 42.076 264.727 42.076ZM276.665 52.344V32.114C276.665 31.4113 276.642 30.6973 276.597 29.972C276.552 29.2467 276.484 28.5327 276.393 27.83H280.507L280.881 31.434H280.507C280.847 30.2327 281.561 29.2807 282.649 28.578C283.76 27.8527 285.04 27.49 286.491 27.49C288.01 27.49 289.336 27.8527 290.469 28.578C291.602 29.2807 292.486 30.3007 293.121 31.638C293.756 32.9527 294.073 34.5393 294.073 36.398C294.073 38.2567 293.756 39.8547 293.121 41.192C292.486 42.5293 291.602 43.5607 290.469 44.286C289.336 44.9887 288.01 45.34 286.491 45.34C285.063 45.34 283.805 44.9887 282.717 44.286C281.629 43.5833 280.904 42.6427 280.541 41.464H280.915V52.344H276.665ZM285.301 42.076C286.661 42.076 287.749 41.6113 288.565 40.682C289.381 39.73 289.789 38.302 289.789 36.398C289.789 34.494 289.381 33.0773 288.565 32.148C287.749 31.2187 286.661 30.754 285.301 30.754C283.964 30.754 282.887 31.2187 282.071 32.148C281.255 33.0773 280.847 34.494 280.847 36.398C280.847 38.302 281.255 39.73 282.071 40.682C282.887 41.6113 283.964 42.076 285.301 42.076Z" fill="#7273DD"/>
</svg>
