<svg width="1217" height="121" viewBox="0 0 1217 121" fill="none" xmlns="http://www.w3.org/2000/svg">
<path d="M324.547 96V28.32H354.115C361.539 28.32 367.267 30.08 371.299 33.6C375.395 37.12 377.443 42.016 377.443 48.288C377.443 52.448 376.515 56 374.659 58.944C372.867 61.888 370.275 64.16 366.883 65.76C363.491 67.296 359.491 68.064 354.883 68.064L356.227 66.24H359.491C362.179 66.24 364.579 66.944 366.691 68.352C368.803 69.76 370.531 71.904 371.875 74.784L381.763 96H368.131L358.147 74.016C357.251 71.776 355.875 70.304 354.019 69.6C352.227 68.896 350.051 68.544 347.491 68.544H336.931V96H324.547ZM336.931 59.424H352.099C356.451 59.424 359.747 58.528 361.987 56.736C364.291 54.88 365.443 52.192 365.443 48.672C365.443 45.152 364.291 42.496 361.987 40.704C359.747 38.912 356.451 38.016 352.099 38.016H336.931V59.424ZM407.805 96.96C403.581 96.96 399.869 95.968 396.669 93.984C393.469 91.936 390.973 89.024 389.181 85.248C387.389 81.472 386.493 76.96 386.493 71.712C386.493 66.464 387.389 61.984 389.181 58.272C390.973 54.496 393.469 51.616 396.669 49.632C399.869 47.584 403.581 46.56 407.805 46.56C411.901 46.56 415.485 47.584 418.557 49.632C421.693 51.616 423.773 54.304 424.797 57.696H423.741L424.797 47.52H436.317C436.125 49.504 435.933 51.52 435.741 53.568C435.613 55.616 435.549 57.632 435.549 59.616V96H423.645L423.549 86.016H424.701C423.677 89.344 421.597 92 418.461 93.984C415.325 95.968 411.773 96.96 407.805 96.96ZM411.165 87.744C414.941 87.744 417.981 86.432 420.285 83.808C422.589 81.12 423.741 77.088 423.741 71.712C423.741 66.336 422.589 62.336 420.285 59.712C417.981 57.088 414.941 55.776 411.165 55.776C407.389 55.776 404.349 57.088 402.045 59.712C399.741 62.336 398.589 66.336 398.589 71.712C398.589 77.088 399.709 81.12 401.949 83.808C404.253 86.432 407.325 87.744 411.165 87.744ZM447.176 96V59.616C447.176 57.632 447.112 55.616 446.984 53.568C446.856 51.52 446.664 49.504 446.408 47.52H458.024L458.984 57.12H457.832C459.368 53.728 461.64 51.136 464.648 49.344C467.656 47.488 471.144 46.56 475.112 46.56C480.808 46.56 485.096 48.16 487.976 51.36C490.856 54.56 492.296 59.552 492.296 66.336V96H480.296V66.912C480.296 63.008 479.528 60.224 477.992 58.56C476.52 56.832 474.28 55.968 471.272 55.968C467.56 55.968 464.616 57.12 462.44 59.424C460.264 61.728 459.176 64.8 459.176 68.64V96H447.176ZM503.58 96V25.344H515.58V68.16H515.772L535.452 47.52H549.948L525.468 73.152L525.564 68.352L551.676 96H536.796L515.772 74.304H515.58V96H503.58ZM555.109 96V47.52H567.109V96H555.109ZM554.437 38.4V26.688H567.781V38.4H554.437ZM578.7 96V59.616C578.7 57.632 578.636 55.616 578.508 53.568C578.38 51.52 578.188 49.504 577.932 47.52H589.548L590.508 57.12H589.356C590.892 53.728 593.164 51.136 596.172 49.344C599.18 47.488 602.668 46.56 606.636 46.56C612.332 46.56 616.62 48.16 619.5 51.36C622.38 54.56 623.82 59.552 623.82 66.336V96H611.82V66.912C611.82 63.008 611.052 60.224 609.516 58.56C608.044 56.832 605.804 55.968 602.796 55.968C599.084 55.968 596.14 57.12 593.964 59.424C591.788 61.728 590.7 64.8 590.7 68.64V96H578.7ZM657.568 117.504C653.088 117.504 649.024 117.024 645.376 116.064C641.792 115.104 638.592 113.632 635.776 111.648L638.368 103.008C640.224 104.224 642.144 105.216 644.128 105.984C646.112 106.752 648.16 107.328 650.272 107.712C652.384 108.096 654.528 108.288 656.704 108.288C661.184 108.288 664.512 107.168 666.688 104.928C668.928 102.752 670.048 99.616 670.048 95.52V83.904H671.008C669.984 87.232 667.904 89.888 664.768 91.872C661.696 93.856 658.144 94.848 654.112 94.848C649.76 94.848 645.952 93.888 642.688 91.968C639.488 89.984 636.992 87.168 635.2 83.52C633.408 79.872 632.512 75.584 632.512 70.656C632.512 65.728 633.408 61.472 635.2 57.888C636.992 54.24 639.488 51.456 642.688 49.536C645.952 47.552 649.76 46.56 654.112 46.56C658.208 46.56 661.76 47.552 664.768 49.536C667.84 51.456 669.888 54.08 670.912 57.408L670.048 56.832L671.008 47.52H682.624C682.368 49.504 682.176 51.52 682.048 53.568C681.92 55.616 681.856 57.632 681.856 59.616V94.08C681.856 101.696 679.776 107.488 675.616 111.456C671.52 115.488 665.504 117.504 657.568 117.504ZM657.376 85.632C661.216 85.632 664.256 84.352 666.496 81.792C668.8 79.168 669.952 75.456 669.952 70.656C669.952 65.856 668.8 62.176 666.496 59.616C664.256 57.056 661.216 55.776 657.376 55.776C653.472 55.776 650.368 57.056 648.064 59.616C645.76 62.176 644.608 65.856 644.608 70.656C644.608 75.456 645.76 79.168 648.064 81.792C650.368 84.352 653.472 85.632 657.376 85.632ZM711.758 96L742.382 28.32H752.75L783.758 96H771.182L762.926 76.992L767.918 80.352H727.31L732.494 76.992L724.238 96H711.758ZM747.47 41.568L733.934 73.632L731.438 70.656H763.694L761.678 73.632L747.854 41.568H747.47ZM788.846 116.736V59.616C788.846 57.632 788.782 55.616 788.654 53.568C788.526 51.52 788.334 49.504 788.078 47.52H799.694L800.75 57.696H799.694C800.654 54.304 802.67 51.616 805.742 49.632C808.878 47.584 812.494 46.56 816.59 46.56C820.878 46.56 824.622 47.584 827.822 49.632C831.022 51.616 833.518 54.496 835.31 58.272C837.102 61.984 837.998 66.464 837.998 71.712C837.998 76.96 837.102 81.472 835.31 85.248C833.518 89.024 831.022 91.936 827.822 93.984C824.622 95.968 820.878 96.96 816.59 96.96C812.558 96.96 809.006 95.968 805.934 93.984C802.862 92 800.814 89.344 799.79 86.016H800.846V116.736H788.846ZM813.23 87.744C817.07 87.744 820.142 86.432 822.446 83.808C824.75 81.12 825.902 77.088 825.902 71.712C825.902 66.336 824.75 62.336 822.446 59.712C820.142 57.088 817.07 55.776 813.23 55.776C809.454 55.776 806.414 57.088 804.11 59.712C801.806 62.336 800.654 66.336 800.654 71.712C800.654 77.088 801.806 81.12 804.11 83.808C806.414 86.432 809.454 87.744 813.23 87.744ZM846.937 116.736V59.616C846.937 57.632 846.873 55.616 846.745 53.568C846.617 51.52 846.425 49.504 846.169 47.52H857.785L858.841 57.696H857.785C858.745 54.304 860.761 51.616 863.833 49.632C866.969 47.584 870.585 46.56 874.681 46.56C878.969 46.56 882.713 47.584 885.913 49.632C889.113 51.616 891.609 54.496 893.401 58.272C895.193 61.984 896.089 66.464 896.089 71.712C896.089 76.96 895.193 81.472 893.401 85.248C891.609 89.024 889.113 91.936 885.913 93.984C882.713 95.968 878.969 96.96 874.681 96.96C870.649 96.96 867.097 95.968 864.025 93.984C860.953 92 858.905 89.344 857.881 86.016H858.937V116.736H846.937ZM871.321 87.744C875.161 87.744 878.233 86.432 880.537 83.808C882.841 81.12 883.993 77.088 883.993 71.712C883.993 66.336 882.841 62.336 880.537 59.712C878.233 57.088 875.161 55.776 871.321 55.776C867.545 55.776 864.505 57.088 862.201 59.712C859.897 62.336 858.745 66.336 858.745 71.712C858.745 77.088 859.897 81.12 862.201 83.808C864.505 86.432 867.545 87.744 871.321 87.744Z" fill="#7273DD"/>
</svg>
