<svg width="961" height="128" viewBox="0 0 961 128" fill="none" xmlns="http://www.w3.org/2000/svg">
<path d="M2.5 96.8008V42.6067L51.298 14.8796L99.5 42.5981V96.8095L51.2978 125.106L2.5 96.8008Z" stroke="#7273DD" stroke-width="5"/>
<path d="M22.0449 85.7117V53.3205L50.8737 36.7516L79.3443 53.3118V85.7204L50.8735 102.626L22.0449 85.7117Z" fill="#FD83BC" stroke="#7273DD" stroke-width="5"/>
<path d="M95.8921 44.7959L76.958 55.1205" stroke="#7273DD" stroke-width="5"/>
<path d="M23.8204 53.9057L5.49707 43.5811M51.3054 97.6334V123.749M51.3054 40.5444V69.6963M51.3054 69.6963L23.8204 85.4868M51.3054 69.6963L77.5689 85.4868" stroke="#7273DD" stroke-width="6"/>
<path d="M170.488 96V28.32H200.056C207.48 28.32 213.208 30.08 217.24 33.6C221.336 37.12 223.384 42.016 223.384 48.288C223.384 52.448 222.456 56 220.6 58.944C218.808 61.888 216.216 64.16 212.824 65.76C209.432 67.296 205.432 68.064 200.824 68.064L202.168 66.24H205.432C208.12 66.24 210.52 66.944 212.632 68.352C214.744 69.76 216.472 71.904 217.816 74.784L227.704 96H214.072L204.088 74.016C203.192 71.776 201.816 70.304 199.96 69.6C198.168 68.896 195.992 68.544 193.432 68.544H182.872V96H170.488ZM182.872 59.424H198.04C202.392 59.424 205.688 58.528 207.928 56.736C210.232 54.88 211.384 52.192 211.384 48.672C211.384 45.152 210.232 42.496 207.928 40.704C205.688 38.912 202.392 38.016 198.04 38.016H182.872V59.424ZM253.745 96.96C249.521 96.96 245.809 95.968 242.609 93.984C239.409 91.936 236.913 89.024 235.121 85.248C233.329 81.472 232.433 76.96 232.433 71.712C232.433 66.464 233.329 61.984 235.121 58.272C236.913 54.496 239.409 51.616 242.609 49.632C245.809 47.584 249.521 46.56 253.745 46.56C257.841 46.56 261.425 47.584 264.498 49.632C267.634 51.616 269.714 54.304 270.738 57.696H269.681L270.738 47.52H282.257C282.066 49.504 281.874 51.52 281.681 53.568C281.554 55.616 281.49 57.632 281.49 59.616V96H269.586L269.489 86.016H270.641C269.617 89.344 267.537 92 264.401 93.984C261.265 95.968 257.713 96.96 253.745 96.96ZM257.105 87.744C260.881 87.744 263.921 86.432 266.225 83.808C268.529 81.12 269.681 77.088 269.681 71.712C269.681 66.336 268.529 62.336 266.225 59.712C263.921 57.088 260.881 55.776 257.105 55.776C253.329 55.776 250.289 57.088 247.985 59.712C245.681 62.336 244.529 66.336 244.529 71.712C244.529 77.088 245.649 81.12 247.889 83.808C250.193 86.432 253.265 87.744 257.105 87.744ZM293.117 96V59.616C293.117 57.632 293.053 55.616 292.925 53.568C292.797 51.52 292.605 49.504 292.349 47.52H303.965L304.925 57.12H303.773C305.309 53.728 307.581 51.136 310.589 49.344C313.597 47.488 317.085 46.56 321.053 46.56C326.749 46.56 331.037 48.16 333.917 51.36C336.797 54.56 338.237 59.552 338.237 66.336V96H326.237V66.912C326.237 63.008 325.469 60.224 323.933 58.56C322.461 56.832 320.221 55.968 317.213 55.968C313.501 55.968 310.557 57.12 308.381 59.424C306.205 61.728 305.117 64.8 305.117 68.64V96H293.117ZM349.52 96V25.344H361.52V68.16H361.712L381.392 47.52H395.888L371.408 73.152L371.504 68.352L397.616 96H382.736L361.712 74.304H361.52V96H349.52ZM401.049 96V47.52H413.049V96H401.049ZM400.377 38.4V26.688H413.721V38.4H400.377ZM424.641 96V59.616C424.641 57.632 424.577 55.616 424.449 53.568C424.321 51.52 424.129 49.504 423.873 47.52H435.489L436.449 57.12H435.297C436.833 53.728 439.105 51.136 442.113 49.344C445.121 47.488 448.609 46.56 452.577 46.56C458.273 46.56 462.561 48.16 465.441 51.36C468.321 54.56 469.761 59.552 469.761 66.336V96H457.761V66.912C457.761 63.008 456.993 60.224 455.457 58.56C453.985 56.832 451.745 55.968 448.737 55.968C445.025 55.968 442.081 57.12 439.905 59.424C437.729 61.728 436.641 64.8 436.641 68.64V96H424.641ZM503.508 117.504C499.028 117.504 494.964 117.024 491.316 116.064C487.732 115.104 484.532 113.632 481.716 111.648L484.308 103.008C486.164 104.224 488.084 105.216 490.068 105.984C492.052 106.752 494.1 107.328 496.212 107.712C498.324 108.096 500.468 108.288 502.644 108.288C507.124 108.288 510.452 107.168 512.628 104.928C514.868 102.752 515.988 99.616 515.988 95.52V83.904H516.948C515.924 87.232 513.844 89.888 510.708 91.872C507.636 93.856 504.084 94.848 500.052 94.848C495.7 94.848 491.892 93.888 488.628 91.968C485.428 89.984 482.932 87.168 481.14 83.52C479.348 79.872 478.452 75.584 478.452 70.656C478.452 65.728 479.348 61.472 481.14 57.888C482.932 54.24 485.428 51.456 488.628 49.536C491.892 47.552 495.7 46.56 500.052 46.56C504.148 46.56 507.7 47.552 510.708 49.536C513.78 51.456 515.828 54.08 516.852 57.408L515.988 56.832L516.948 47.52H528.564C528.308 49.504 528.116 51.52 527.988 53.568C527.86 55.616 527.796 57.632 527.796 59.616V94.08C527.796 101.696 525.716 107.488 521.556 111.456C517.46 115.488 511.444 117.504 503.508 117.504ZM503.316 85.632C507.156 85.632 510.196 84.352 512.436 81.792C514.74 79.168 515.892 75.456 515.892 70.656C515.892 65.856 514.74 62.176 512.436 59.616C510.196 57.056 507.156 55.776 503.316 55.776C499.412 55.776 496.308 57.056 494.004 59.616C491.7 62.176 490.548 65.856 490.548 70.656C490.548 75.456 491.7 79.168 494.004 81.792C496.308 84.352 499.412 85.632 503.316 85.632ZM557.699 96L588.323 28.32H598.691L629.699 96H617.123L608.867 76.992L613.859 80.352H573.251L578.435 76.992L570.179 96H557.699ZM593.411 41.568L579.875 73.632L577.379 70.656H609.635L607.619 73.632L593.795 41.568H593.411ZM634.787 116.736V59.616C634.787 57.632 634.723 55.616 634.595 53.568C634.467 51.52 634.275 49.504 634.019 47.52H645.635L646.691 57.696H645.635C646.595 54.304 648.611 51.616 651.683 49.632C654.819 47.584 658.435 46.56 662.531 46.56C666.819 46.56 670.563 47.584 673.763 49.632C676.963 51.616 679.459 54.496 681.251 58.272C683.043 61.984 683.939 66.464 683.939 71.712C683.939 76.96 683.043 81.472 681.251 85.248C679.459 89.024 676.963 91.936 673.763 93.984C670.563 95.968 666.819 96.96 662.531 96.96C658.499 96.96 654.947 95.968 651.875 93.984C648.803 92 646.755 89.344 645.731 86.016H646.787V116.736H634.787ZM659.171 87.744C663.011 87.744 666.083 86.432 668.387 83.808C670.691 81.12 671.843 77.088 671.843 71.712C671.843 66.336 670.691 62.336 668.387 59.712C666.083 57.088 663.011 55.776 659.171 55.776C655.395 55.776 652.355 57.088 650.051 59.712C647.747 62.336 646.595 66.336 646.595 71.712C646.595 77.088 647.747 81.12 650.051 83.808C652.355 86.432 655.395 87.744 659.171 87.744ZM692.878 116.736V59.616C692.878 57.632 692.814 55.616 692.686 53.568C692.558 51.52 692.366 49.504 692.11 47.52H703.726L704.782 57.696H703.726C704.686 54.304 706.702 51.616 709.774 49.632C712.91 47.584 716.526 46.56 720.622 46.56C724.91 46.56 728.654 47.584 731.854 49.632C735.054 51.616 737.55 54.496 739.342 58.272C741.134 61.984 742.03 66.464 742.03 71.712C742.03 76.96 741.134 81.472 739.342 85.248C737.55 89.024 735.054 91.936 731.854 93.984C728.654 95.968 724.91 96.96 720.622 96.96C716.59 96.96 713.038 95.968 709.966 93.984C706.894 92 704.846 89.344 703.822 86.016H704.878V116.736H692.878ZM717.262 87.744C721.102 87.744 724.174 86.432 726.478 83.808C728.782 81.12 729.934 77.088 729.934 71.712C729.934 66.336 728.782 62.336 726.478 59.712C724.174 57.088 721.102 55.776 717.262 55.776C713.486 55.776 710.446 57.088 708.142 59.712C705.838 62.336 704.686 66.336 704.686 71.712C704.686 77.088 705.838 81.12 708.142 83.808C710.446 86.432 713.486 87.744 717.262 87.744Z" fill="#7273DD"/>
</svg>
