<svg width="20" height="20" viewBox="0 0 20 20" fill="none" xmlns="http://www.w3.org/2000/svg">
<path d="M3.11555 1.52344C2.25966 1.52344 1.62636 2.27255 1.6547 3.08496C1.68191 3.86547 1.64657 4.87632 1.39208 5.70068C1.13682 6.52746 0.705127 7.05119 0 7.11844V7.87759C0.705127 7.94484 1.13682 8.46857 1.39208 9.29534C1.64657 10.1197 1.68191 11.1306 1.6547 11.9111C1.62636 12.7234 2.25966 13.4726 3.11568 13.4726H11.8856C12.7415 13.4726 13.3747 12.7235 13.3463 11.9111C13.3191 11.1306 13.3544 10.1197 13.6089 9.29534C13.8643 8.46857 14.2949 7.94484 15 7.87759V7.11844C14.2949 7.05119 13.8643 6.52746 13.6089 5.70068C13.3544 4.87645 13.3191 3.86547 13.3463 3.08496C13.3747 2.27267 12.7415 1.52344 11.8856 1.52344H3.11542H3.11555ZM10.1695 8.8789C10.1695 9.99755 9.33508 10.676 7.95038 10.676H5.59322C5.45281 10.676 5.33898 10.5622 5.33898 10.4217V4.57428C5.33898 4.43387 5.45281 4.32005 5.59322 4.32005H7.93691C9.09153 4.32005 9.84928 4.94547 9.84928 5.90573C9.84928 6.57971 9.33953 7.18314 8.69008 7.28878V7.32399C9.57419 7.42098 10.1695 8.03318 10.1695 8.8789ZM7.69335 5.12598H6.34932V7.02437H7.48131C8.3564 7.02437 8.83894 6.672 8.83894 6.04212C8.83894 5.45191 8.42402 5.12598 7.69335 5.12598ZM6.34932 7.77767V9.86979H7.7428C8.65386 9.86979 9.13653 9.5042 9.13653 8.81712C9.13653 8.12992 8.64038 7.77755 7.6842 7.77755H6.34932V7.77767Z" fill="#DEC802"/>
</svg>
