<svg width="25" height="25" viewBox="0 0 30 30" fill="none" xmlns="http://www.w3.org/2000/svg">
<g clip-path="url(#clip0_2_150)">
<path d="M10.1433 30C12.8241 30 14.9999 27.76 14.9999 25V20H10.1433C7.46252 20 5.28679 22.24 5.28679 25C5.28679 27.76 7.46252 30 10.1433 30Z" fill="#FFD748"/>
<path d="M5.28679 15C5.28679 12.24 7.46252 9.99997 10.1433 9.99997H14.9999V20H10.1433C7.46252 20 5.28679 17.76 5.28679 15Z" fill="#DEBC42"/>
<path d="M5.28703 5C5.28703 2.24 7.46276 0 10.1436 0H15.0001V10H10.1436C7.46276 10 5.28703 7.76 5.28703 5Z" fill="#DEBC42"/>
<path d="M15 0H19.8565C22.5373 0 24.7131 2.24 24.7131 5C24.7131 7.76 22.5373 9.99999 19.8565 9.99999H15V0Z" fill="#FFD748"/>
<path d="M24.7131 15C24.7131 17.76 22.5373 20 19.8565 20C17.1757 20 15 17.76 15 15C15 12.24 17.1757 9.99997 19.8565 9.99997C22.5373 9.99997 24.7131 12.24 24.7131 15Z" fill="#F0CB46"/>
</g>
<defs>
<clipPath id="clip0_2_150">
<rect width="19.43" height="30" fill="white" transform="translate(5.28487)"/>
</clipPath>
</defs>
</svg>
