<svg width="30" height="30" viewBox="0 0 30 30" fill="none" xmlns="http://www.w3.org/2000/svg">
<g clip-path="url(#clip0_232_360)">
<path d="M5.07158 15C6.41198 15 7.49985 13.88 7.49985 12.5V10H5.07158C3.73118 10 2.64331 11.12 2.64331 12.5C2.64331 13.88 3.73118 15 5.07158 15Z" fill="#F0CB46"/>
<path d="M2.64331 7.49997C2.64331 6.11997 3.73118 4.99997 5.07158 4.99997H7.49985V9.99997H5.07158C3.73118 9.99997 2.64331 8.87997 2.64331 7.49997Z" fill="#F0CB10"/>
<path d="M2.64331 2.5C2.64331 1.12 3.73118 0 5.07158 0H7.49985V5H5.07158C3.73118 5 2.64331 3.88 2.64331 2.5Z" fill="#F0CB46"/>
<path d="M7.5 0H9.92827C11.2687 0 12.3565 1.12 12.3565 2.5C12.3565 3.88 11.2687 5 9.92827 5H7.5V0Z" fill="#F0CB60"/>
<path d="M12.3565 7.49997C12.3565 8.87997 11.2687 9.99997 9.92827 9.99997C8.58786 9.99997 7.5 8.87997 7.5 7.49997C7.5 6.11997 8.58786 4.99997 9.92827 4.99997C11.2687 4.99997 12.3565 6.11997 12.3565 7.49997Z" fill="#F0CB46"/>
</g>
<defs>
<clipPath id="clip0_232_360">
<rect width="18" height="30" fill="white" transform="translate(2.64233)"/>
</clipPath>
</defs>
</svg>
