<svg width="30" height="30" viewBox="0 0 30 30" fill="none" xmlns="http://www.w3.org/2000/svg">
<path fill-rule="evenodd" clip-rule="evenodd" d="M15.0001 0.703125C6.91101 0.703125 0.351562 7.26136 0.351562 15.3517C0.351562 21.8238 4.54882 27.3147 10.3691 29.2517C11.1012 29.3873 11.37 28.9339 11.37 28.547C11.37 28.1977 11.3564 27.0437 11.3501 25.8197C7.27487 26.7058 6.41494 24.0914 6.41494 24.0914C5.74859 22.3982 4.78848 21.948 4.78848 21.948C3.45942 21.0388 4.88867 21.0575 4.88867 21.0575C6.35964 21.1608 7.13417 22.567 7.13417 22.567C8.44068 24.8065 10.561 24.1591 11.3969 23.7848C11.5284 22.838 11.908 22.1918 12.327 21.826C9.07331 21.4556 5.65302 20.1995 5.65302 14.5866C5.65302 12.9873 6.22525 11.6806 7.16231 10.6547C7.01022 10.2858 6.50882 8.79588 7.30422 6.77815C7.30422 6.77815 8.53431 6.38445 11.3336 8.27968C12.5021 7.95512 13.7552 7.79235 15.0001 7.78677C16.245 7.79235 17.4991 7.95512 18.6698 8.27968C21.4657 6.38445 22.6941 6.77815 22.6941 6.77815C23.4914 8.79588 22.9898 10.2858 22.8377 10.6547C23.7769 11.6806 24.3453 12.9873 24.3453 14.5866C24.3453 20.2129 20.9184 21.4517 17.6565 21.8143C18.182 22.2689 18.6501 23.1604 18.6501 24.527C18.6501 26.487 18.6332 28.0645 18.6332 28.547C18.6332 28.9368 18.8968 29.3936 19.6393 29.2497C25.4565 27.3106 29.6484 21.8216 29.6484 15.3517C29.6484 7.26136 23.09 0.703125 15.0001 0.703125ZM5.83792 21.5703C5.80566 21.6431 5.69117 21.6649 5.58686 21.6149C5.48061 21.5672 5.42094 21.4679 5.45538 21.3949C5.48692 21.32 5.60166 21.2991 5.70766 21.3493C5.81415 21.3971 5.8748 21.4973 5.83792 21.5703ZM6.55847 22.2132C6.48861 22.278 6.35204 22.2479 6.25938 22.1456C6.16356 22.0434 6.14561 21.9069 6.21644 21.8411C6.28849 21.7764 6.42093 21.8067 6.51699 21.9088C6.61281 22.0121 6.63149 22.1477 6.55847 22.2132ZM7.05279 23.0359C6.96304 23.0982 6.81628 23.0397 6.72556 22.9095C6.63581 22.7792 6.63581 22.623 6.7275 22.5604C6.81847 22.4978 6.96304 22.5541 7.05498 22.6834C7.14449 22.8158 7.14449 22.9721 7.05279 23.0359ZM7.8888 23.9886C7.8085 24.0771 7.63749 24.0533 7.51232 23.9325C7.38424 23.8144 7.34858 23.6468 7.42912 23.5582C7.51038 23.4694 7.68237 23.4944 7.8085 23.6143C7.93561 23.7322 7.97443 23.901 7.8888 23.9886ZM8.96925 24.3102C8.93384 24.4249 8.76913 24.4771 8.60321 24.4283C8.43753 24.3781 8.3291 24.2437 8.36257 24.1278C8.39702 24.0123 8.56246 23.958 8.72959 24.0101C8.89502 24.0601 9.0037 24.1935 8.96925 24.3102ZM10.1989 24.4466C10.203 24.5674 10.0623 24.6676 9.88812 24.6698C9.71298 24.6736 9.57132 24.5759 9.56937 24.457C9.56937 24.335 9.70691 24.2358 9.88205 24.2329C10.0562 24.2295 10.1989 24.3265 10.1989 24.4466ZM11.4068 24.4003C11.4277 24.5182 11.3066 24.6392 11.1337 24.6715C10.9636 24.7025 10.8062 24.6298 10.7846 24.5128C10.7635 24.392 10.8867 24.271 11.0565 24.2397C11.2297 24.2096 11.3847 24.2805 11.4068 24.4003Z" fill="#F0CB46"/>
</svg>
