<svg width="15" height="15" viewBox="0 0 15 15" fill="none" xmlns="http://www.w3.org/2000/svg">
<path fill-rule="evenodd" clip-rule="evenodd" d="M7.50006 0.351562C3.4555 0.351562 0.175781 3.63068 0.175781 7.67584C0.175781 10.9119 2.27441 13.6574 5.18457 14.6258C5.55061 14.6936 5.685 14.4669 5.685 14.2735C5.685 14.0988 5.67821 13.5219 5.67505 12.9099C3.63743 13.3529 3.20747 12.0457 3.20747 12.0457C2.8743 11.1991 2.39424 10.974 2.39424 10.974C1.72971 10.5194 2.44433 10.5288 2.44433 10.5288C3.17982 10.5804 3.56709 11.2835 3.56709 11.2835C4.22034 12.4032 5.28051 12.0795 5.69846 11.8924C5.7642 11.419 5.95402 11.0959 6.16348 10.913C4.53666 10.7278 2.82651 10.0998 2.82651 7.2933C2.82651 6.49366 3.11262 5.84028 3.58116 5.32736C3.50511 5.14288 3.25441 4.39794 3.65211 3.38907C3.65211 3.38907 4.26716 3.19223 5.66681 4.13984C6.25105 3.97756 6.87762 3.89618 7.50006 3.89339C8.12251 3.89618 8.74956 3.97756 9.33489 4.13984C10.7328 3.19223 11.347 3.38907 11.347 3.38907C11.7457 4.39794 11.4949 5.14288 11.4188 5.32736C11.8885 5.84028 12.1726 6.49366 12.1726 7.2933C12.1726 10.1064 10.4592 10.7258 8.82827 10.9072C9.09098 11.1345 9.32507 11.5802 9.32507 12.2635C9.32507 13.2435 9.31658 14.0323 9.31658 14.2735C9.31658 14.4684 9.44841 14.6968 9.81967 14.6249C12.7283 13.6553 14.8242 10.9108 14.8242 7.67584C14.8242 3.63068 11.545 0.351562 7.50006 0.351562ZM2.91896 10.7852C2.90283 10.8215 2.84558 10.8325 2.79343 10.8075C2.74031 10.7836 2.71047 10.734 2.72769 10.6975C2.74346 10.66 2.80083 10.6496 2.85383 10.6747C2.90708 10.6986 2.9374 10.7486 2.91896 10.7852ZM3.27924 11.1066C3.2443 11.139 3.17602 11.124 3.12969 11.0728C3.08178 11.0217 3.0728 10.9534 3.10822 10.9206C3.14424 10.8882 3.21047 10.9033 3.2585 10.9544C3.3064 11.0061 3.31574 11.0739 3.27924 11.1066ZM3.5264 11.5179C3.48152 11.5491 3.40814 11.5199 3.36278 11.4547C3.3179 11.3896 3.3179 11.3115 3.36375 11.2802C3.40923 11.2489 3.48152 11.2771 3.52749 11.3417C3.57224 11.4079 3.57224 11.486 3.5264 11.5179ZM3.9444 11.9943C3.90425 12.0385 3.81875 12.0267 3.75616 11.9663C3.69212 11.9072 3.67429 11.8234 3.71456 11.7791C3.75519 11.7347 3.84118 11.7472 3.90425 11.8071C3.96781 11.8661 3.98721 11.9505 3.9444 11.9943ZM4.48463 12.1551C4.46692 12.2125 4.38456 12.2385 4.3016 12.2142C4.21876 12.189 4.16455 12.1219 4.18129 12.0639C4.19851 12.0061 4.28123 11.979 4.36479 12.0051C4.44751 12.03 4.50185 12.0967 4.48463 12.1551ZM5.09943 12.2233C5.10149 12.2837 5.03114 12.3338 4.94406 12.3349C4.85649 12.3368 4.78566 12.2879 4.78469 12.2285C4.78469 12.1675 4.85346 12.1179 4.94103 12.1164C5.02811 12.1147 5.09943 12.1633 5.09943 12.2233ZM5.7034 12.2001C5.71383 12.2591 5.65331 12.3196 5.56683 12.3357C5.48181 12.3513 5.40309 12.3149 5.3923 12.2564C5.38175 12.196 5.44336 12.1355 5.52826 12.1199C5.61486 12.1048 5.69236 12.1402 5.7034 12.2001Z" fill="#DEC802"/>
</svg>
