<svg width="14" height="19" viewBox="0 0 14 19" fill="none" xmlns="http://www.w3.org/2000/svg">
<path fill-rule="evenodd" clip-rule="evenodd" d="M1.20367 17.5005L0 4H13.2262L12.0213 17.4984L6.60502 19L1.20367 17.5005Z" fill="#DEC802"/>
<path fill-rule="evenodd" clip-rule="evenodd" d="M6.61328 17.8523L10.9899 16.639L12.0196 5.10394H6.61328V17.8523Z" fill="#F3DB00"/>
<path d="M4.42256 10.111H6.6136V11.7668H2.90826L2.46167 6.75964H6.6136V8.41545H4.27124L4.42256 10.111Z" fill="#EBEBEB"/>
<path d="M6.60634 14.4132L6.6136 14.4113V16.134L6.60598 16.1361L3.21422 15.1945L2.98225 12.5947H4.6444L4.76228 13.9153L6.60634 14.4132Z" fill="#EBEBEB"/>
<path d="M6.60767 6.75964H10.7554L10.6072 8.41545H6.60767V6.75964Z" fill="white"/>
<path d="M6.60767 11.7668V10.111H10.4565L10.4161 10.5556L10.0021 15.1945L6.60767 16.1353V14.4126L8.45439 13.9142L8.64658 11.7668H6.60767Z" fill="white"/>
<path d="M1.85792 0H1V3H1.85796V1.99542H2.64278V3H3.50074V0H2.64275V0.990673H1.85792V0Z" fill="black" fill-opacity="0.5"/>
<path d="M3.87367 0.994844H4.62898L4.62902 3H5.48701V0.994844H6.24265V0H3.87367V0.994844Z" fill="black" fill-opacity="0.5"/>
<path d="M6.61863 0H7.51325L8.06356 1.05411L8.61331 0H9.50826V3H8.65383V1.51304L8.06356 2.5797H8.0488L7.45811 1.51304V3H6.61863V0Z" fill="black" fill-opacity="0.5"/>
<path d="M10.7935 0H9.93525V3H12V2.00837H10.7935V0Z" fill="black" fill-opacity="0.5"/>
</svg>
