<svg width="15" height="25" viewBox="0 0 31 43" fill="none" xmlns="http://www.w3.org/2000/svg">
<path fill-rule="evenodd" clip-rule="evenodd" d="M2.7411 38.7447L0 8H30.12L27.376 38.7399L15.0416 42.1594L2.7411 38.7447Z" fill="#DEBC42"/>
<path fill-rule="evenodd" clip-rule="evenodd" d="M15.0602 39.5458L25.027 36.7826L27.3719 10.514H15.0602V39.5458Z" fill="#F0CB46"/>
<path d="M10.0712 21.9165H15.0608V25.6872H6.62271L5.60568 14.2845H15.0608V18.0553H9.7266L10.0712 21.9165Z" fill="#EBEBEB"/>
<path d="M15.0443 31.7139L15.0608 31.7095V35.6326L15.0435 35.6374L7.31946 33.4932L6.79119 27.5726H10.5764L10.8448 30.58L15.0443 31.7139Z" fill="#EBEBEB"/>
<path d="M15.0474 14.2845H24.493L24.1554 18.0553H15.0474V14.2845Z" fill="white"/>
<path d="M15.0474 25.6872V21.9165H23.8123L23.7203 22.9291L22.7775 33.4932L15.0474 35.6356V31.7126L19.2529 30.5775L19.6906 25.6872H15.0474Z" fill="white"/>
<path d="M3.18379 0H1V7H3.18389V4.65599H5.18163V7H7.36552V0H5.18154V2.31157H3.18379V0Z" fill="#1E1E1E" fill-opacity="0.5"/>
<path d="M8.3148 2.3213H10.2374L10.2375 7H12.4215V2.3213H14.3449V0H8.3148V2.3213Z" fill="#1E1E1E" fill-opacity="0.5"/>
<path d="M15.302 0H17.5792L18.98 2.45959L20.3793 0H22.6574V7H20.4825V3.53042L18.98 6.01931H18.9424L17.4388 3.53042V7H15.302V0Z" fill="#1E1E1E" fill-opacity="0.5"/>
<path d="M25.9288 0H23.7443V7H29V4.6862H25.9288V0Z" fill="#1E1E1E" fill-opacity="0.5"/>
</svg>
