<svg width="30" height="30" viewBox="0 0 30 30" fill="none" xmlns="http://www.w3.org/2000/svg">
<g clip-path="url(#clip0_232_364)">
<path fill-rule="evenodd" clip-rule="evenodd" d="M0.175781 0.175781H14.8242V14.8242H0.175781V0.175781V0.175781Z" fill="#F0CB46"/>
<path fill-rule="evenodd" clip-rule="evenodd" d="M4.02737 12.4171L5.14837 11.7387C5.36463 12.1221 5.56136 12.4466 6.03325 12.4466C6.48558 12.4466 6.77076 12.2696 6.77076 11.5814V6.90085H8.14734V11.6008C8.14734 13.0266 7.31159 13.6756 6.09226 13.6756C4.99105 13.6756 4.35182 13.1053 4.02734 12.417" fill="white"/>
<path fill-rule="evenodd" clip-rule="evenodd" d="M8.89502 12.2696L10.0159 11.6206C10.3109 12.1025 10.6944 12.4564 11.3729 12.4564C11.9432 12.4564 12.307 12.1712 12.307 11.7779C12.307 11.3059 11.9333 11.1388 11.304 10.8635L10.96 10.7159C9.96677 10.2932 9.30794 9.76222 9.30794 8.64124C9.30794 7.60878 10.0946 6.82211 11.3237 6.82211C12.1989 6.82211 12.8282 7.12696 13.2804 7.92344L12.2086 8.61171C11.9726 8.18893 11.7171 8.0218 11.3238 8.0218C10.9206 8.0218 10.6649 8.27745 10.6649 8.61171C10.6649 9.0247 10.9206 9.1919 11.5105 9.44758L11.8546 9.59506C13.0248 10.0966 13.6836 10.6078 13.6836 11.7582C13.6836 12.9973 12.7101 13.6757 11.4024 13.6757C10.1241 13.6757 9.29813 13.0661 8.89504 12.2696" fill="white"/>
</g>
<defs>
<clipPath id="clip0_232_364">
<rect width="30" height="30" fill="white"/>
</clipPath>
</defs>
</svg>
