<svg width="40" height="40" viewBox="0 0 40 40" fill="none" xmlns="http://www.w3.org/2000/svg">
<g clip-path="url(#clip0_2_156)">
<path d="M31.9865 13.0543C31.9954 13.088 32 13.1228 32 13.1577V18.5859C32 18.7278 31.926 18.8588 31.8057 18.9293L27.3547 21.5525V26.7516C27.3547 26.8212 27.3369 26.8895 27.303 26.9498C27.269 27.0101 27.2202 27.0602 27.1614 27.0951L17.87 32.5698C17.8487 32.5821 17.8256 32.59 17.8023 32.5985C17.7936 32.6014 17.7855 32.6069 17.7763 32.6094C17.7113 32.6269 17.643 32.6269 17.5781 32.6094C17.5674 32.6065 17.5578 32.6005 17.5476 32.5965C17.5263 32.5886 17.5041 32.5816 17.4839 32.5698L8.19437 27.095C8.13534 27.0603 8.08629 27.0103 8.05217 26.95C8.01805 26.8897 8.00007 26.8213 8.00003 26.7516V10.4669C8.00003 10.4312 8.00491 10.3966 8.01353 10.363C8.01644 10.3516 8.02319 10.3412 8.02712 10.3298C8.03434 10.309 8.04119 10.2877 8.05178 10.2685C8.059 10.2556 8.06959 10.2452 8.07831 10.2333C8.08947 10.2175 8.09959 10.2012 8.11262 10.1873C8.12378 10.1759 8.13831 10.1675 8.15087 10.1576C8.16494 10.1457 8.17741 10.1329 8.19334 10.1235H8.19381L12.8387 7.38611C12.8976 7.35146 12.9642 7.33323 13.0321 7.33323C13.1 7.33323 13.1666 7.35146 13.2255 7.38611L17.8704 10.1235H17.8713C17.8868 10.1334 17.8999 10.1457 17.9139 10.1571C17.9265 10.167 17.9405 10.1759 17.9516 10.1869C17.9652 10.2012 17.9748 10.2176 17.9864 10.2333C17.9946 10.2452 18.0058 10.2556 18.0125 10.2685C18.0236 10.2882 18.0299 10.309 18.0377 10.3299C18.0415 10.3412 18.0482 10.3516 18.0512 10.3635C18.0601 10.3971 18.0647 10.432 18.0648 10.4669V20.638L21.9353 18.3568V13.1572C21.9353 13.1227 21.9402 13.0875 21.9489 13.0543C21.9523 13.0425 21.9586 13.0321 21.9624 13.0208C21.9702 12.9999 21.9769 12.9785 21.9875 12.9594C21.9948 12.9465 22.0053 12.9361 22.0137 12.9242C22.0252 12.9084 22.0349 12.8921 22.0484 12.8782C22.0596 12.8668 22.0736 12.8584 22.0862 12.8485C22.1007 12.8366 22.1132 12.8238 22.1287 12.8144H22.1292L26.7746 10.077C26.8334 10.0423 26.9001 10.0241 26.968 10.0241C27.0358 10.0241 27.1025 10.0423 27.1613 10.077L31.8063 12.8144C31.8227 12.8242 31.8352 12.8366 31.8498 12.8479C31.8618 12.8579 31.8758 12.8668 31.887 12.8777C31.9005 12.8921 31.9101 12.9084 31.9217 12.9242C31.9305 12.9361 31.9411 12.9465 31.9479 12.9594C31.959 12.9785 31.9653 12.9999 31.9729 13.0208C31.9773 13.0321 31.9836 13.0425 31.9865 13.0543V13.0543ZM31.2258 18.3569V13.8429L29.6002 14.8007L27.3546 16.1242V20.6381L31.2262 18.3569H31.2258V18.3569ZM26.5808 26.5226V22.0055L24.3719 23.2968L18.0643 26.9816V31.5411L26.5808 26.5224V26.5226ZM8.77431 11.152V26.5226L17.2899 31.5407V26.9821L12.8413 24.405L12.8399 24.4041L12.838 24.4031C12.823 24.3942 12.8103 24.3813 12.7964 24.3705C12.7842 24.3605 12.7702 24.3526 12.7596 24.3417L12.7587 24.3403C12.7461 24.3279 12.7374 24.3125 12.7268 24.2987C12.7171 24.2853 12.7055 24.2739 12.6977 24.2601L12.6973 24.2586C12.6886 24.2438 12.6832 24.226 12.6769 24.2092C12.6707 24.1943 12.6625 24.1804 12.6586 24.1646V24.1642C12.6538 24.1454 12.6528 24.1255 12.6509 24.1062C12.649 24.0914 12.6451 24.0766 12.6451 24.0617V13.4334L10.3998 12.1093L8.77431 11.1526V11.152ZM13.0326 8.18661L9.16244 10.4669L13.0317 12.7471L16.9013 10.4663L13.0317 8.18661H13.0326ZM15.0453 22.4172L17.2904 21.0943V11.152L15.665 12.1099L13.4192 13.4333V23.3755L15.0453 22.4172V22.4172ZM26.9679 10.8775L23.0983 13.1577L26.9679 15.438L30.8371 13.1572L26.968 10.8775H26.9679ZM26.5807 16.1242L24.3351 14.8007L22.7097 13.8429V18.3569L24.9548 19.6799L26.5808 20.6381V16.1242H26.5807ZM17.6766 26.2965L23.3525 22.9797L26.1898 21.3223L22.323 19.0436L17.8709 21.6671L13.8132 24.0582L17.6766 26.2965Z" fill="#F0CB46"/>
</g>
<defs>
<clipPath id="clip0_2_156">
<rect width="24" height="25.3333" fill="white" transform="translate(8.00003 7.33333)"/>
</clipPath>
</defs>
</svg>
