<svg width="44" height="44" viewBox="0 0 44 44" fill="none" xmlns="http://www.w3.org/2000/svg">
<g clip-path="url(#clip0_232_366)">
<path d="M17.5925 7.17985C17.5974 7.19837 17.5999 7.21748 17.5999 7.23669V10.2222C17.5999 10.3002 17.5592 10.3723 17.493 10.4111L15.045 11.8538V14.7133C15.045 14.7516 15.0352 14.7892 15.0165 14.8224C14.9979 14.8555 14.971 14.8831 14.9387 14.9022L9.8284 17.9134C9.8167 17.9201 9.80396 17.9245 9.79117 17.9292C9.78638 17.9307 9.78189 17.9337 9.77684 17.9351C9.74111 17.9447 9.70356 17.9447 9.66784 17.9351C9.66196 17.9335 9.65665 17.9302 9.65108 17.928C9.63937 17.9237 9.62715 17.9199 9.61602 17.9134L4.50679 14.9022C4.47432 14.8831 4.44735 14.8556 4.42858 14.8225C4.40981 14.7893 4.39992 14.7517 4.3999 14.7133V5.75675C4.3999 5.73712 4.40258 5.71806 4.40733 5.69959C4.40893 5.69331 4.41264 5.68761 4.4148 5.68133C4.41877 5.66993 4.42254 5.65821 4.42836 5.64761C4.43234 5.64053 4.43816 5.63483 4.44296 5.62829C4.44909 5.61958 4.45466 5.61061 4.46183 5.60296C4.46796 5.59673 4.47596 5.59208 4.48287 5.58665C4.4906 5.5801 4.49746 5.57303 4.50622 5.56786H4.50648L7.0612 4.06232C7.09355 4.04326 7.13022 4.03323 7.16755 4.03323C7.20487 4.03323 7.24154 4.04326 7.27389 4.06232L9.82861 5.56786H9.82912C9.83763 5.57335 9.84485 5.5801 9.85253 5.58638C9.85944 5.59182 9.86718 5.59673 9.87326 5.60274C9.88074 5.61061 9.88605 5.61963 9.89239 5.62829C9.89693 5.63483 9.90307 5.64053 9.90678 5.64761C9.91286 5.65848 9.91632 5.66993 9.9206 5.68138C9.92271 5.68761 9.92642 5.69331 9.92802 5.69986C9.93292 5.71838 9.93545 5.73754 9.9355 5.75675V11.3509L12.0643 10.0962V7.23643C12.0643 7.21743 12.067 7.19806 12.0718 7.17985C12.0736 7.17331 12.0771 7.16761 12.0792 7.16138C12.0835 7.14993 12.0872 7.13816 12.093 7.1276C12.097 7.12053 12.1028 7.11483 12.1074 7.10828C12.1138 7.09958 12.1191 7.0906 12.1265 7.08295C12.1327 7.07672 12.1404 7.07208 12.1473 7.06664C12.1553 7.0601 12.1622 7.05302 12.1707 7.04785H12.1709L14.7259 5.54231C14.7583 5.52323 14.7949 5.51319 14.8323 5.51319C14.8696 5.51319 14.9063 5.52323 14.9386 5.54231L17.4933 7.04785C17.5023 7.05329 17.5093 7.0601 17.5172 7.06633C17.5238 7.07181 17.5316 7.07672 17.5377 7.08269C17.5451 7.0906 17.5505 7.09958 17.5568 7.10828C17.5616 7.11483 17.5675 7.12053 17.5712 7.1276C17.5773 7.13816 17.5808 7.14993 17.585 7.16138C17.5874 7.16761 17.5909 7.17331 17.5925 7.17985V7.17985ZM17.174 10.0962V7.61358L16.28 8.14035L15.0449 8.86826V11.3509L17.1743 10.0962H17.174V10.0962ZM14.6193 14.5874V12.103L13.4044 12.8132L9.93524 14.8399V17.3475L14.6193 14.5873V14.5874ZM4.82576 6.13358V14.5874L9.50933 17.3473V14.8401L7.06259 13.4227L7.06182 13.4222L7.06079 13.4217C7.05254 13.4168 7.04557 13.4097 7.03789 13.4037C7.03119 13.3982 7.02351 13.3939 7.01768 13.3879L7.01716 13.3871C7.01025 13.3803 7.00546 13.3718 6.99963 13.3642C6.99427 13.3569 6.98793 13.3506 6.98365 13.343L6.98339 13.3422C6.97859 13.3341 6.97566 13.3242 6.9722 13.315C6.96875 13.3068 6.96426 13.2992 6.96209 13.2905V13.2902C6.95947 13.2799 6.95895 13.269 6.95787 13.2584C6.95684 13.2502 6.95467 13.2421 6.95467 13.2339V7.38832L5.7198 6.66009L4.82576 6.1339V6.13358ZM7.16783 4.50259L5.03923 5.75675L7.16731 7.01086L9.29561 5.75643L7.16731 4.50259H7.16783ZM8.27477 12.3294L9.50959 11.6018V6.13358L8.61565 6.66041L7.38047 7.38827V12.8565L8.27477 12.3294V12.3294ZM14.8322 5.98259L12.7039 7.23669L14.8322 8.49085L16.9603 7.23643L14.8323 5.98259H14.8322ZM14.6193 8.86826L13.3842 8.14035L12.4902 7.61358V10.0962L13.725 10.8239L14.6193 11.3509V8.86826H14.6193ZM9.72203 14.463L12.8438 12.6388L14.4043 11.7272L12.2775 10.4739L9.82887 11.9169L7.59714 13.232L9.72203 14.463Z" fill="#F0CB46"/>
</g>
<defs>
<clipPath id="clip0_232_366">
<rect width="26.4" height="28" fill="white" transform="translate(4.3999 4.03333)"/>
</clipPath>
</defs>
</svg>
