<svg width="15" height="15" viewBox="0 0 15 15" fill="none" xmlns="http://www.w3.org/2000/svg">
<path d="M11.8374 11.8925C12.3679 11.6639 13.0004 11.5807 13.8166 11.6014C13.7936 11.4459 13.502 11.2611 13.2883 11.1257C13.2166 11.0803 13.1537 11.0404 13.1126 11.0091C12.7862 10.7701 12.4393 10.5206 12.0924 10.3024C11.9807 10.2328 11.8198 10.1748 11.665 10.119C11.5654 10.083 11.4684 10.048 11.3885 10.0114C11.3069 9.97753 11.1957 9.94364 11.0757 9.90706C10.7906 9.82017 10.4556 9.71805 10.3479 9.56453C10.0705 9.19713 9.87689 8.75287 9.68357 8.30924C9.6636 8.26341 9.64363 8.21758 9.62357 8.17185C9.52238 7.9362 9.4098 7.69591 9.29659 7.45426C9.17015 7.18437 9.04291 6.91278 8.92985 6.64408C8.88059 6.53463 8.84313 6.43116 8.80626 6.3293C8.75911 6.19907 8.71292 6.07146 8.64421 5.93738C7.89942 4.472 6.79769 3.24558 5.4612 2.38299C5.02246 2.10237 4.53285 1.84248 3.99209 1.66585C3.82696 1.61541 3.64403 1.60729 3.45929 1.59909C3.30162 1.59209 3.14265 1.58503 2.99232 1.55156H2.77804C2.65434 1.51655 2.54453 1.41551 2.44238 1.32151C2.39289 1.27597 2.3452 1.23209 2.2986 1.19817C1.9823 0.979947 1.66607 0.834353 1.28858 0.678527C1.15597 0.616195 0.77849 0.470668 0.645878 0.58503C0.564211 0.605829 0.523442 0.636995 0.503026 0.720124C0.421423 0.844853 0.492914 1.03191 0.543859 1.14621C0.644981 1.36598 0.772846 1.52676 0.903874 1.69152C0.971135 1.77609 1.03923 1.86172 1.10497 1.95691C1.13636 2.00205 1.1691 2.04822 1.20238 2.09516C1.35296 2.30754 1.51479 2.53578 1.61506 2.75711C1.75656 3.06762 1.85741 3.39587 1.9579 3.72293C2.04577 4.00892 2.13336 4.294 2.24759 4.5655C2.33937 4.78379 2.48222 5.03318 2.61484 5.23067C2.65643 5.28846 2.71065 5.34054 2.76554 5.39325C2.85872 5.48274 2.95382 5.57407 2.99232 5.69835C3.09153 5.86679 2.90939 6.34912 2.79871 6.64218C2.77281 6.71078 2.75082 6.769 2.73727 6.81041C2.47198 7.66257 2.52299 8.84739 2.82905 9.58526C2.83999 9.61126 2.85085 9.63768 2.86178 9.66429C2.97326 9.93551 3.09291 10.2266 3.39016 10.3024C3.3994 10.293 3.40029 10.29 3.40228 10.2885C3.40468 10.2868 3.40868 10.2873 3.43099 10.2816C3.44592 10.1621 3.45862 10.0436 3.47115 9.92669C3.51855 9.4843 3.56339 9.06578 3.71663 8.7123C3.78965 8.52977 3.91011 8.38241 4.02751 8.23879C4.09061 8.1616 4.15282 8.0855 4.20631 8.00559C4.27106 8.04515 4.29472 8.13492 4.31901 8.22713C4.333 8.28022 4.34721 8.33412 4.36958 8.37971C4.37921 8.4031 4.3889 8.42667 4.39864 8.45037C4.52305 8.75303 4.6569 9.07865 4.80825 9.3774C5.1449 10.0426 5.52245 10.6869 5.95088 11.2689C6.09367 11.4768 6.29777 11.7054 6.48139 11.8925C6.50932 11.9174 6.53843 11.9386 6.56711 11.9596C6.62223 11.9998 6.67573 12.0388 6.71602 12.1004H6.73644V12.1316C6.54275 12.0592 6.39403 11.9036 6.24884 11.7517C6.16461 11.6635 6.08158 11.5767 5.99165 11.508C5.53257 11.1546 4.9817 10.6245 4.6654 10.1153C4.56578 9.89674 4.46042 9.684 4.3536 9.46832C4.31823 9.39689 4.28269 9.32513 4.24715 9.25274C4.24715 9.25274 4.2472 9.24231 4.24715 9.23194C4.20816 9.28491 4.20231 9.33785 4.19526 9.40158C4.19124 9.43787 4.18684 9.47765 4.17572 9.52293C4.13791 9.6711 4.11917 9.82519 4.10106 9.97412C4.05567 10.3475 4.01422 10.6883 3.68604 10.822C3.16577 11.0403 2.77804 10.4686 2.61484 10.2088C2.09457 9.34624 1.95171 7.89123 2.31896 6.71685C2.34737 6.62645 2.36714 6.52977 2.38685 6.43336C2.42379 6.25266 2.46054 6.07292 2.55365 5.93738C2.53318 5.81248 2.46272 5.74778 2.39387 5.68455C2.3596 5.65308 2.32572 5.62197 2.2986 5.58399C2.15575 5.38657 2.03338 5.15791 1.92112 4.93969C1.758 4.61528 1.63042 4.24267 1.50677 3.88156C1.46799 3.7683 1.42959 3.65617 1.39061 3.54701C1.35578 3.45581 1.3331 3.36458 1.31072 3.27456C1.2872 3.17995 1.26401 3.08668 1.2274 2.9962C1.13096 2.78332 0.971267 2.57049 0.823005 2.3729C0.78304 2.31963 0.743906 2.26748 0.707066 2.21673C0.667323 2.15863 0.6147 2.09128 0.55604 2.01621C0.268388 1.64809 -0.164445 1.09418 0.0643602 0.533067C0.492853 -0.53739 1.99261 0.273179 2.57401 0.647363C2.63215 0.685442 2.69367 0.740725 2.75719 0.797806C2.84975 0.880976 2.94655 0.967964 3.04333 1.01111C3.17089 1.01633 3.29845 1.02412 3.42601 1.03192C3.55352 1.03971 3.68101 1.0475 3.80848 1.05271C3.85025 1.06267 3.89178 1.07247 3.93306 1.0822C4.36564 1.18425 4.76971 1.27958 5.11431 1.47879C6.86906 2.52852 8.01169 3.59897 9.06247 5.36577C9.20513 5.60354 9.30246 5.85393 9.40158 6.10892C9.45842 6.25513 9.51585 6.40286 9.58274 6.55058C9.83779 7.15336 10.1236 7.78723 10.4193 8.35891C10.4565 8.43469 10.4913 8.51291 10.5261 8.5913C10.6156 8.79245 10.7054 8.99463 10.8376 9.15917C10.8851 9.22835 10.9914 9.26526 11.0933 9.30063C11.1445 9.3184 11.1945 9.33578 11.2355 9.35667C11.3674 9.4259 11.5103 9.48875 11.6544 9.55212C11.8779 9.65041 12.1042 9.74992 12.2965 9.87631C12.8882 10.2504 13.4595 10.6972 13.9798 11.1546C14.085 11.2505 14.1721 11.3677 14.2592 11.4848C14.3326 11.5836 14.4059 11.6822 14.4899 11.7678V11.8613C14.3267 11.9133 14.1634 11.9653 14.0002 12.0069C13.8226 12.0534 13.6552 12.0716 13.489 12.0897C13.321 12.108 13.1544 12.1261 12.98 12.1731C12.958 12.1795 12.9355 12.1861 12.9126 12.1929C12.7118 12.2519 12.4775 12.3208 12.2761 12.3394C12.2862 12.3498 12.2965 12.3602 12.2965 12.3602C12.3948 12.6453 12.8129 12.8905 13.1556 13.0914C13.2751 13.1614 13.3853 13.2261 13.4697 13.2852C13.8676 13.5762 14.2349 13.9295 14.5307 14.3348C14.5816 14.3866 14.6325 14.4359 14.6833 14.4851C14.7345 14.5346 14.7857 14.5841 14.8368 14.6362C14.8713 14.6866 14.894 14.7442 14.9162 14.8009C14.9399 14.8613 14.9632 14.9206 15 14.9688V15C14.9107 14.9675 14.8494 14.9026 14.7885 14.8382C14.752 14.7995 14.7156 14.761 14.6735 14.7298C14.5774 14.6631 14.4814 14.5906 14.3853 14.5181C14.257 14.4213 14.1286 14.3245 14.0002 14.2413C13.8028 14.1143 13.5895 14.0142 13.3752 13.9137C13.1686 13.8168 12.961 13.7194 12.7658 13.597C12.5414 13.4514 12.3271 13.2852 12.1129 13.1189C11.919 12.9734 11.7049 12.6927 11.5824 12.4849C11.5515 12.4355 11.532 12.3822 11.5133 12.3309C11.4888 12.2635 11.4655 12.1996 11.4191 12.1523C11.4344 12.0047 11.5752 11.9674 11.7092 11.9319C11.7544 11.92 11.7988 11.9082 11.8374 11.8925Z" fill="#C6B200"/>
<path d="M2.99227 2.62201C3.11471 2.59085 3.23708 2.56998 3.41053 2.56998C3.44286 2.60295 3.48321 2.631 3.52396 2.65932C3.58605 2.70248 3.64905 2.74628 3.68599 2.80907C3.70865 2.8414 3.72326 2.87373 3.73786 2.90605C3.75612 2.94649 3.77439 2.98693 3.80843 3.02736C3.80843 3.27675 3.73707 3.44301 3.59415 3.54701C3.59415 3.54701 3.58397 3.55737 3.5738 3.56781C3.53302 3.48476 3.49482 3.40172 3.45662 3.31869C3.4183 3.23541 3.37999 3.15214 3.3391 3.06889C3.29937 3.01225 3.25348 2.96032 3.20741 2.90821C3.13519 2.8265 3.06256 2.74433 3.01269 2.64281H2.99227V2.62201Z" fill="#C6B200"/>
</svg>
