<svg width="36" height="36" viewBox="0 0 36 36" fill="none" xmlns="http://www.w3.org/2000/svg">
<path d="M13.2229 7.66901C13.6074 7.66901 13.8615 7.73767 13.9919 7.88187C14.1224 8.02606 14.1498 8.26639 14.0812 8.60971C14.0125 8.96677 13.8752 9.22769 13.6761 9.37875C13.4769 9.52982 13.1748 9.60535 12.7697 9.60535H12.1586L12.5362 7.66901H13.2229Z" fill="#F0CB46"/>
<path d="M5.34705 7.66901C5.73157 7.66901 5.98563 7.73767 6.11609 7.88187C6.24655 8.02606 6.27402 8.26639 6.20535 8.60971C6.13669 8.96677 5.99936 9.22769 5.80023 9.37875C5.6011 9.52982 5.29898 9.60535 4.89386 9.60535H4.28275L4.6604 7.66901H5.34705Z" fill="#F0CB46"/>
<path fill-rule="evenodd" clip-rule="evenodd" d="M9 13.2583C13.6645 13.2583 17.4457 11.3431 17.4457 8.9805C17.4457 6.61793 13.6645 4.7027 9 4.7027C4.33555 4.7027 0.55426 6.61793 0.55426 8.9805C0.55426 11.3431 4.33555 13.2583 9 13.2583ZM11.774 11.5692H10.7647L11.6642 6.9343H13.6074C14.191 6.9343 14.6168 7.08536 14.8846 7.39435C15.1523 7.70334 15.2347 8.12906 15.1249 8.67838C15.0837 8.90497 15.0081 9.11096 14.9052 9.29636C14.8022 9.48175 14.6648 9.65341 14.4932 9.81134C14.2872 10.0036 14.0674 10.1341 13.8203 10.2165C13.5731 10.2989 13.2641 10.3401 12.8795 10.3401H12.0144L11.774 11.5692ZM7.99063 5.7052H8.99313L8.75281 6.9343H9.64545C10.2085 6.9343 10.593 7.03043 10.8059 7.22955C11.0187 7.42868 11.0805 7.74454 10.9981 8.18399L10.5793 10.3401H9.56305L9.9613 8.28699C10.0094 8.05353 9.98877 7.8956 9.91324 7.8132C9.83771 7.7308 9.66605 7.68274 9.41199 7.68274H8.60861L8.09363 10.3401H7.09113L7.99063 5.7052ZM3.89822 11.5692H2.88885L3.78836 6.9343H5.73157C6.31522 6.9343 6.74094 7.08536 7.00873 7.39435C7.27652 7.70334 7.35892 8.12906 7.24905 8.67838C7.20786 8.90497 7.13232 9.11096 7.02933 9.29636C6.92633 9.48175 6.789 9.65341 6.61734 9.81134C6.41135 10.0036 6.19162 10.1341 5.94443 10.2165C5.69724 10.2989 5.38824 10.3401 5.00372 10.3401H4.13855L3.89822 11.5692Z" fill="#F0CB46"/>
<path fill-rule="evenodd" clip-rule="evenodd" d="M17.7891 8.9805C17.7891 11.5327 13.8541 13.6016 9 13.6016C4.14593 13.6016 0.210938 11.5327 0.210938 8.9805C0.210938 6.42832 4.14593 4.35938 9 4.35938C13.8541 4.35938 17.7891 6.42832 17.7891 8.9805ZM17.6484 8.9805C17.6484 10.1783 16.7224 11.2966 15.1494 12.1237C13.5828 12.9473 11.4089 13.461 9 13.461C6.59108 13.461 4.41718 12.9473 2.85064 12.1237C1.27756 11.2966 0.351562 10.1783 0.351562 8.9805C0.351562 7.78267 1.27756 6.66443 2.85064 5.83734C4.41718 5.01368 6.59108 4.5 9 4.5C11.4089 4.5 13.5828 5.01368 15.1494 5.83734C16.7224 6.66443 17.6484 7.78267 17.6484 8.9805Z" fill="#F0CB46"/>
</svg>
