<svg width="30" height="30" viewBox="0 0 30 30" fill="none" xmlns="http://www.w3.org/2000/svg">
<path d="M22.0381 12.7817C22.679 12.7817 23.1024 12.8961 23.3199 13.1364C23.5373 13.3768 23.5831 13.7773 23.4686 14.3495C23.3542 14.9446 23.1253 15.3795 22.7934 15.6313C22.4615 15.883 21.958 16.0089 21.2828 16.0089H20.2643L20.8937 12.7817H22.0381Z" fill="#F0CB46"/>
<path d="M8.91174 12.7817C9.55261 12.7817 9.97604 12.8961 10.1935 13.1364C10.4109 13.3768 10.4567 13.7773 10.3423 14.3495C10.2278 14.9446 9.99893 15.3795 9.66705 15.6313C9.33517 15.883 8.83163 16.0089 8.15643 16.0089H7.13791L7.76733 12.7817H8.91174Z" fill="#F0CB46"/>
<path fill-rule="evenodd" clip-rule="evenodd" d="M15 22.0972C22.7741 22.0972 29.0762 18.9051 29.0762 14.9675C29.0762 11.0299 22.7741 7.83783 15 7.83783C7.22591 7.83783 0.923767 11.0299 0.923767 14.9675C0.923767 18.9051 7.22591 22.0972 15 22.0972ZM19.6234 19.2819H17.9411L19.4403 11.5572H22.679C23.6517 11.5572 24.3613 11.8089 24.8076 12.3239C25.2539 12.8389 25.3912 13.5484 25.2081 14.464C25.1395 14.8416 25.0136 15.1849 24.8419 15.4939C24.6703 15.8029 24.4414 16.089 24.1553 16.3522C23.812 16.6727 23.4457 16.8901 23.0338 17.0274C22.6218 17.1648 22.1068 17.2334 21.4659 17.2334H20.024L19.6234 19.2819ZM13.3177 9.50867H14.9886L14.588 11.5572H16.0757C17.0142 11.5572 17.655 11.7174 18.0098 12.0493C18.3646 12.3811 18.4676 12.9076 18.3302 13.64L17.6321 17.2334H15.9384L16.6022 13.8116C16.6823 13.4225 16.6479 13.1593 16.5221 13.022C16.3962 12.8847 16.1101 12.8046 15.6866 12.8046H14.3477L13.4894 17.2334H11.8185L13.3177 9.50867ZM6.49704 19.2819H4.81476L6.31393 11.5572H9.55261C10.5254 11.5572 11.2349 11.8089 11.6812 12.3239C12.1275 12.8389 12.2649 13.5484 12.0818 14.464C12.0131 14.8416 11.8872 15.1849 11.7155 15.4939C11.5439 15.8029 11.315 16.089 11.0289 16.3522C10.6856 16.6727 10.3194 16.8901 9.90738 17.0274C9.49539 17.1648 8.98041 17.2334 8.33954 17.2334H6.89758L6.49704 19.2819Z" fill="#F0CB46"/>
<path fill-rule="evenodd" clip-rule="evenodd" d="M29.6484 14.9675C29.6484 19.2211 23.0901 22.6694 15 22.6694C6.90989 22.6694 0.351562 19.2211 0.351562 14.9675C0.351562 10.7139 6.90989 7.26562 15 7.26562C23.0901 7.26562 29.6484 10.7139 29.6484 14.9675ZM29.4141 14.9675C29.4141 16.9639 27.8707 18.8276 25.2489 20.2061C22.638 21.5789 19.0149 22.435 15 22.435C10.9851 22.435 7.36197 21.5789 4.75106 20.2061C2.12927 18.8276 0.585938 16.9639 0.585938 14.9675C0.585938 12.9711 2.12927 11.1074 4.75106 9.7289C7.36197 8.35613 10.9851 7.5 15 7.5C19.0149 7.5 22.638 8.35613 25.2489 9.7289C27.8707 11.1074 29.4141 12.9711 29.4141 14.9675Z" fill="#F0CB46"/>
</svg>
