<svg width="30" height="30" viewBox="0 0 30 30" fill="none" xmlns="http://www.w3.org/2000/svg">
<g clip-path="url(#clip0_232_387)">
<path d="M12.333 5.14592C12.1774 5.09236 12.0162 5.04168 11.8501 4.99375C11.8774 4.88239 11.9025 4.77247 11.9247 4.66441C12.2903 2.89013 12.0513 1.46076 11.2352 0.990146C10.4527 0.538893 9.17293 1.0094 7.88045 2.13421C7.75616 2.24237 7.63152 2.35688 7.50694 2.4769C7.42393 2.39749 7.34106 2.32076 7.25839 2.24736C5.90383 1.04464 4.54609 0.537798 3.73082 1.00977C2.94905 1.46233 2.71753 2.80608 3.04655 4.48758C3.07833 4.64999 3.11547 4.81585 3.15746 4.98449C2.96531 5.03904 2.7798 5.09719 2.6023 5.15905C1.01422 5.71273 0 6.58047 0 7.48055C0 8.41015 1.08876 9.34256 2.74287 9.90793C2.87341 9.95255 3.00885 9.99473 3.14844 10.0348C3.10313 10.2172 3.06372 10.3959 3.03064 10.5702C2.71692 12.2225 2.96192 13.5345 3.7416 13.9842C4.54695 14.4487 5.89855 13.9713 7.21466 12.8209C7.31868 12.7299 7.42308 12.6335 7.52766 12.5324C7.66322 12.6629 7.79856 12.7865 7.93318 12.9023C9.20799 13.9994 10.4671 14.4423 11.246 13.9914C12.0506 13.5256 12.3121 12.1162 11.9726 10.4015C11.9467 10.2705 11.9165 10.1367 11.8826 10.0005C11.9775 9.97247 12.0707 9.9435 12.1616 9.91338C13.8812 9.34363 15 8.42257 15 7.48055C15 6.57721 13.9531 5.70362 12.333 5.14592ZM11.96 9.30513C11.878 9.33228 11.7939 9.35853 11.7081 9.38398C11.5183 8.78299 11.2621 8.14393 10.9485 7.48367C11.2477 6.83914 11.494 6.20825 11.6785 5.61116C11.832 5.65556 11.9809 5.70239 12.1244 5.75181C13.5125 6.22966 14.3592 6.93616 14.3592 7.48055C14.3592 8.06041 13.4448 8.81316 11.96 9.30513ZM11.344 10.5259C11.4941 11.2841 11.5155 11.9697 11.4161 12.5056C11.3267 12.9872 11.1471 13.3082 10.9249 13.4368C10.4522 13.7104 9.44132 13.3548 8.35108 12.4166C8.2261 12.309 8.10021 12.1942 7.97392 12.0727C8.39658 11.6104 8.819 11.073 9.23127 10.4762C9.95641 10.4119 10.6415 10.3067 11.2628 10.163C11.2934 10.2865 11.3206 10.4075 11.344 10.5259ZM5.11384 13.3895C4.65199 13.5526 4.28414 13.5573 4.06179 13.4291C3.58864 13.1562 3.39194 12.1028 3.66025 10.6897C3.69098 10.5279 3.72756 10.3617 3.76972 10.1918C4.38419 10.3276 5.06426 10.4254 5.79113 10.4843C6.20618 11.0683 6.6408 11.6051 7.07878 12.0752C6.98309 12.1675 6.88777 12.2555 6.79299 12.3384C6.21101 12.8471 5.62781 13.208 5.11384 13.3895ZM2.95011 9.30158C2.2187 9.05159 1.61467 8.72668 1.20064 8.37213C0.828602 8.05352 0.640768 7.73721 0.640768 7.48055C0.640768 6.93435 1.45509 6.23767 2.81322 5.76415C2.97802 5.70669 3.15052 5.65254 3.32954 5.60168C3.51724 6.21225 3.76347 6.85062 4.06061 7.49614C3.75963 8.15125 3.5099 8.79978 3.32036 9.41751C3.19274 9.38082 3.06909 9.34222 2.95011 9.30158ZM3.67541 4.36452C3.39352 2.92385 3.58074 1.83706 4.05185 1.56435C4.55368 1.27383 5.66335 1.68805 6.83291 2.72654C6.90766 2.79292 6.98272 2.86239 7.05798 2.93427C6.62216 3.40223 6.19152 3.935 5.78016 4.51556C5.0747 4.58095 4.39941 4.68599 3.77853 4.82664C3.73949 4.66962 3.70492 4.51535 3.67541 4.36452ZM10.1457 5.96221C9.99731 5.70584 9.84494 5.45553 9.6896 5.21205C10.1682 5.27255 10.6267 5.35287 11.0573 5.45115C10.9281 5.86548 10.7669 6.29868 10.5773 6.74278C10.4412 6.48446 10.2973 6.224 10.1457 5.96221ZM7.50716 3.39222C7.80272 3.71243 8.09872 4.06994 8.38985 4.45784C8.09647 4.44398 7.79946 4.43677 7.5 4.43677C7.20337 4.43677 6.90855 4.44382 6.61698 4.45744C6.90841 4.07315 7.20697 3.71612 7.50716 3.39222ZM4.85167 5.96664C4.70341 6.22373 4.56217 6.48278 4.42824 6.7423C4.24164 6.29975 4.082 5.86457 3.9516 5.44437C4.37957 5.34859 4.83595 5.27028 5.3115 5.21093C5.15397 5.45665 5.00034 5.7088 4.85167 5.96659V5.96664ZM5.32519 9.79587C4.83387 9.74106 4.37062 9.66678 3.94276 9.57365C4.07524 9.14595 4.23841 8.70148 4.42896 8.24939C4.56324 8.50873 4.70504 8.76788 4.85421 9.02553H4.85424C5.00619 9.28802 5.16361 9.54513 5.32519 9.79587ZM7.52488 11.614C7.22117 11.2864 6.91824 10.9239 6.62238 10.534C6.90959 10.5453 7.2024 10.551 7.5 10.551C7.80574 10.551 8.10798 10.5441 8.40547 10.5309C8.11337 10.9278 7.81845 11.2908 7.52488 11.614ZM10.5834 8.22635C10.7839 8.68332 10.9529 9.12547 11.0871 9.54588C10.6522 9.6451 10.1826 9.72501 9.68783 9.78439C9.84355 9.53763 9.99726 9.28302 10.1483 9.02112C10.3011 8.75616 10.4462 8.49079 10.5834 8.22635ZM9.59324 8.70099C9.35876 9.10755 9.11803 9.49566 8.87365 9.86201C8.42854 9.89383 7.96869 9.91023 7.5 9.91023C7.03321 9.91023 6.57915 9.89573 6.14191 9.86735C5.88768 9.49619 5.64172 9.10694 5.40874 8.70449H5.40879C5.17642 8.30314 4.96256 7.8984 4.76877 7.49593C4.9625 7.09252 5.17581 6.68732 5.40684 6.28669L5.40679 6.28677C5.63844 5.88507 5.88223 5.49771 6.13412 5.12888C6.58022 5.09516 7.03767 5.07756 7.49997 5.07756H7.5C7.96439 5.07756 8.42242 5.09529 8.86839 5.12931C9.11643 5.49544 9.35857 5.88155 9.59113 6.2833C9.82633 6.68956 10.0424 7.09206 10.2378 7.48682C10.043 7.88836 9.82739 8.29492 9.59324 8.70099ZM10.9151 1.54529C11.4174 1.83495 11.6128 3.00318 11.2972 4.53508C11.277 4.63283 11.2544 4.73239 11.2297 4.83329C10.6074 4.6897 9.93166 4.58284 9.22414 4.51647C8.81197 3.92953 8.38486 3.39593 7.95614 2.93397C8.0714 2.82309 8.18651 2.71736 8.30113 2.61758C9.40853 1.65385 10.4435 1.27335 10.9151 1.54529ZM7.5 6.1411C8.23974 6.1411 8.83945 6.74078 8.83945 7.48055C8.83945 8.22029 8.23974 8.82 7.5 8.82C6.76026 8.82 6.16055 8.22029 6.16055 7.48055C6.16055 6.74078 6.76026 6.1411 7.5 6.1411Z" fill="#F0CB46"/>
</g>
<defs>
<clipPath id="clip0_232_387">
<rect width="30" height="30" fill="white"/>
</clipPath>
</defs>
</svg>
