<svg width="25" height="25" viewBox="0 0 30 30" fill="none" xmlns="http://www.w3.org/2000/svg">
<path d="M23.6748 23.785C24.7358 23.3278 26.0009 23.1614 27.6332 23.2029C27.5873 22.8918 27.004 22.5222 26.5767 22.2515C26.4332 22.1606 26.3073 22.0809 26.2253 22.0182C25.5723 21.5402 24.8786 21.0411 24.1849 20.6048C23.9614 20.4657 23.6397 20.3496 23.3301 20.2379C23.1309 20.1661 22.9367 20.096 22.777 20.0228C22.6138 19.9551 22.3914 19.8873 22.1514 19.8141C21.5813 19.6403 20.9112 19.4361 20.6958 19.1291C20.141 18.3943 19.7538 17.5057 19.3671 16.6185C19.3272 16.5268 19.2873 16.4352 19.2471 16.3437C19.0448 15.8724 18.8196 15.3918 18.5932 14.9085C18.3403 14.3687 18.0858 13.8256 17.8597 13.2882C17.7612 13.0693 17.6863 12.8623 17.6125 12.6586C17.5182 12.3981 17.4258 12.1429 17.2884 11.8748C15.7988 8.944 13.5954 6.49117 10.9224 4.76598C10.0449 4.20473 9.06569 3.68496 7.98419 3.3317C7.65393 3.23081 7.28805 3.21457 6.91857 3.19817C6.60324 3.18418 6.2853 3.17006 5.98464 3.10311H5.55608C5.30868 3.0331 5.08906 2.83101 4.88476 2.64302C4.78578 2.55194 4.6904 2.46418 4.5972 2.39634C3.9646 1.95989 3.33214 1.66871 2.57717 1.35705C2.31195 1.23239 1.55698 0.941337 1.29176 1.17006C1.12842 1.21166 1.04688 1.27399 1.00605 1.44025C0.842846 1.68971 0.985828 2.06382 1.08772 2.29241C1.28996 2.73196 1.54569 3.05352 1.80775 3.38304C1.94227 3.55219 2.07846 3.72344 2.20993 3.91381C2.27273 4.00411 2.3382 4.09644 2.40477 4.19033C2.70592 4.61507 3.02958 5.07155 3.23013 5.51422C3.51311 6.13524 3.71482 6.79175 3.9158 7.44586C4.09154 8.01785 4.26672 8.588 4.49519 9.131C4.67874 9.56758 4.96445 10.0664 5.22967 10.4613C5.31286 10.5769 5.4213 10.6811 5.53108 10.7865C5.71743 10.9655 5.90764 11.1481 5.98464 11.3967C6.18307 11.7336 5.81877 12.6982 5.59743 13.2844C5.54562 13.4216 5.50164 13.538 5.47455 13.6208C4.94397 15.3251 5.04599 17.6948 5.6581 19.1705C5.67998 19.2225 5.7017 19.2754 5.72357 19.3286C5.94652 19.871 6.18582 20.4533 6.78032 20.6048C6.79881 20.586 6.80058 20.5799 6.80455 20.577C6.80935 20.5735 6.81737 20.5746 6.86199 20.5632C6.89184 20.3243 6.91725 20.0872 6.9423 19.8534C7.0371 18.9686 7.12678 18.1316 7.43327 17.4246C7.57931 17.0595 7.82022 16.7648 8.05502 16.4776C8.18121 16.3232 8.30564 16.171 8.41263 16.0112C8.54212 16.0903 8.58943 16.2698 8.63803 16.4543C8.66601 16.5604 8.69441 16.6682 8.73917 16.7594C8.75843 16.8062 8.7778 16.8533 8.79728 16.9007C9.04611 17.5061 9.3138 18.1573 9.61651 18.7548C10.2898 20.0851 11.0449 21.3738 11.9018 22.5378C12.1873 22.9536 12.5955 23.4109 12.9628 23.785C13.0186 23.8348 13.0769 23.8773 13.1342 23.9191C13.2445 23.9995 13.3515 24.0776 13.432 24.2007H13.4729V24.2632C13.0855 24.1184 12.7881 23.8072 12.4977 23.5034C12.3292 23.3271 12.1632 23.1533 11.9833 23.016C11.0651 22.3092 9.9634 21.2491 9.3308 20.2307C9.13156 19.7935 8.92084 19.368 8.7072 18.9366C8.63645 18.7938 8.56538 18.6503 8.4943 18.5055C8.4943 18.5055 8.4944 18.4846 8.4943 18.4639C8.41632 18.5698 8.40461 18.6757 8.39051 18.8032C8.38249 18.8757 8.37369 18.9553 8.35144 19.0459C8.27581 19.3422 8.23834 19.6504 8.20213 19.9482C8.11134 20.6949 8.02844 21.3766 7.37208 21.6441C6.33153 22.0807 5.55609 20.9372 5.22968 20.4177C4.18913 18.6925 3.90343 15.7825 4.63791 13.4337C4.69474 13.2529 4.73427 13.0595 4.77369 12.8667C4.84758 12.5053 4.92108 12.1458 5.10731 11.8748C5.06637 11.625 4.92545 11.4956 4.78773 11.3691C4.71919 11.3062 4.65144 11.2439 4.59721 11.168C4.3115 10.7731 4.06676 10.3158 3.84224 9.87937C3.51601 9.23056 3.26083 8.48534 3.01353 7.76312C2.93597 7.53659 2.85918 7.31233 2.78122 7.09402C2.71157 6.91162 2.6662 6.72915 2.62144 6.54912C2.57439 6.35989 2.52801 6.17335 2.45481 5.9924C2.26193 5.56664 1.94253 5.14098 1.64601 4.74579C1.56608 4.63927 1.48781 4.53496 1.41413 4.43346C1.33465 4.31725 1.2294 4.18256 1.11208 4.03242C0.536776 3.29619 -0.32889 2.18836 0.12872 1.06613C0.985705 -1.07478 3.98523 0.546358 5.14801 1.29473C5.26429 1.37088 5.38734 1.48145 5.51438 1.59561C5.6995 1.76195 5.89311 1.93593 6.08667 2.02223C6.34177 2.03266 6.5969 2.04825 6.85202 2.06384C7.10703 2.07942 7.36203 2.09499 7.61696 2.10542C7.7005 2.12534 7.78356 2.14493 7.86611 2.16441C8.73127 2.3685 9.53942 2.55915 10.2286 2.95759C13.7381 5.05703 16.0234 7.19795 18.1249 10.7315C18.4103 11.2071 18.6049 11.7079 18.8032 12.2178C18.9168 12.5103 19.0317 12.8057 19.1655 13.1012C19.6756 14.3067 20.2471 15.5745 20.8386 16.7178C20.913 16.8694 20.9826 17.0258 21.0522 17.1826C21.2311 17.5849 21.4109 17.9893 21.6753 18.3183C21.7703 18.4567 21.9829 18.5305 22.1866 18.6013C22.289 18.6368 22.3891 18.6716 22.4709 18.7133C22.7348 18.8518 23.0207 18.9775 23.3088 19.1042C23.7558 19.3008 24.2083 19.4998 24.593 19.7526C25.7764 20.5009 26.9191 21.3945 27.9596 22.3093C28.17 22.501 28.3443 22.7355 28.5184 22.9697C28.6652 23.1672 28.8119 23.3645 28.9798 23.5357V23.7227C28.6534 23.8266 28.3269 23.9305 28.0004 24.0137C27.6453 24.1067 27.3103 24.1432 26.9779 24.1793C26.642 24.2159 26.3088 24.2522 25.9601 24.3462C25.9161 24.359 25.8711 24.3723 25.8251 24.3858C25.4235 24.5038 24.955 24.6416 24.5521 24.6789C24.5725 24.6996 24.593 24.7204 24.593 24.7204C24.7897 25.2907 25.6259 25.7809 26.3112 26.1827C26.5501 26.3228 26.7707 26.4521 26.9394 26.5703C27.7352 27.1523 28.4697 27.8591 29.0615 28.6697C29.1632 28.7733 29.2649 28.8718 29.3667 28.9702C29.469 29.0692 29.5713 29.1683 29.6736 29.2725C29.7427 29.3731 29.7879 29.4884 29.8324 29.6017C29.8798 29.7225 29.9263 29.8411 30 29.9377V30C29.8215 29.9351 29.6988 29.8052 29.5771 29.6763C29.504 29.5989 29.4313 29.5219 29.347 29.4596C29.1549 29.3261 28.9627 29.1812 28.7706 29.0363C28.5139 28.8426 28.2573 28.649 28.0004 28.4827C27.6056 28.2286 27.1791 28.0285 26.7504 27.8274C26.3372 27.6335 25.9221 27.4388 25.5315 27.1939C25.0827 26.9029 24.6542 26.5703 24.2257 26.2378C23.838 25.9468 23.4097 25.3854 23.1647 24.9698C23.103 24.871 23.0641 24.7644 23.0267 24.6618C22.9775 24.527 22.9309 24.3991 22.8382 24.3046C22.8687 24.0094 23.1503 23.9348 23.4184 23.8639C23.5088 23.8399 23.5976 23.8164 23.6748 23.785Z" fill="#F0CB46"/>
<path d="M5.98455 5.24402C6.22942 5.18169 6.47416 5.13996 6.82105 5.13996C6.88572 5.20589 6.96642 5.26199 7.04791 5.31864C7.17209 5.40497 7.2981 5.49256 7.37198 5.61814C7.41731 5.6828 7.44651 5.74745 7.47572 5.81211C7.51225 5.89298 7.54878 5.97385 7.61685 6.05472C7.61685 6.5535 7.47413 6.88602 7.1883 7.09401C7.1883 7.09401 7.16794 7.11475 7.14759 7.13561C7.06605 6.96953 6.98964 6.80345 6.91323 6.63738C6.83661 6.47083 6.75999 6.30429 6.6782 6.13779C6.59875 6.0245 6.50695 5.92065 6.41483 5.81642C6.27037 5.653 6.12511 5.48866 6.02538 5.28562H5.98455V5.24402Z" fill="#F0CB46"/>
</svg>
