<svg width="40" height="21" viewBox="0 0 48 21" fill="none" xmlns="http://www.w3.org/2000/svg">
<path d="M32.428 0L32.278 0.782299C32.046 2.26486 32.13 2.68903 32.766 3.23924L33.38 3.74743L32.744 6.58451C32.364 8.27716 31.898 9.6957 31.602 10.1619C31.348 10.564 31.052 11.1563 30.988 11.4744C30.882 11.8545 30.522 12.2367 29.972 12.5748C29.486 12.8509 28.532 13.5912 27.856 14.1854C27.316 14.6716 26.944 14.9697 26.742 15.0978L26.082 15.62C25.87 15.9601 25.75 16.2342 25.704 16.4423C25.658 16.6564 25.684 16.7984 25.752 16.9025C25.818 17.0025 25.932 17.0725 26.088 17.1165C26.2726 17.1598 26.4628 17.1753 26.652 17.1626C27.0802 17.1333 27.5038 17.0582 27.916 16.9385C28.056 16.9004 28.166 16.8644 28.262 16.8324C28.41 16.6504 28.752 16.3062 29.358 15.708C30.966 14.1214 31.58 13.2531 30.946 13.4871C30.712 13.5712 30.818 13.3591 31.22 12.9349C32.068 12.1086 32.554 10.8601 33.57 6.94465C34.374 3.85347 34.374 3.80945 34.966 3.80945C35.244 3.80945 36.03 3.85747 36.03 3.85747V0H34.226H32.428ZM40.106 6.33242C39.978 6.33242 39.766 6.52449 39.64 6.73657C39.408 7.11672 39.682 7.3488 43.174 9.52964C45.248 10.8441 46.92 11.9646 46.878 12.0506C46.836 12.1126 45.142 13.215 43.112 14.4855C39.428 16.7704 39.408 16.7924 39.746 17.2586C40.17 17.8088 39.746 17.9989 44.528 15.0137L48 12.7909V11.1182L44.126 8.72533C42.032 7.41283 40.212 6.35443 40.106 6.33242ZM7.936 6.56651C7.83 6.56651 6.01 7.64692 3.916 8.93741L0 11.3303V13.003L3.894 15.4379C6.054 16.7704 7.874 17.8728 7.958 17.8728C8.042 17.8728 8.212 17.6807 8.382 17.4487C8.636 17.0465 8.422 16.8764 4.846 14.6116C1.44 12.4728 1.08 12.1766 1.42 11.9446C1.632 11.7965 3.24 10.8001 4.976 9.72171C8.934 7.28678 8.722 7.45485 8.404 6.94665C8.278 6.73657 8.064 6.5465 7.938 6.56651H7.936ZM25.304 6.61252C24.72 6.60852 23.464 7.49886 19.704 10.57C19.542 10.9562 19.528 11.2223 19.602 11.3943C19.65 11.5124 19.738 11.5944 19.86 11.6544C19.98 11.7145 20.136 11.7505 20.308 11.7645C20.65 11.7945 21.054 11.7405 21.38 11.6765L21.6 11.6264C21.6754 11.5254 21.7742 11.4444 21.888 11.3903C22.12 11.2623 23.094 10.374 24.068 9.4216C25.782 7.68493 26.184 6.90063 25.486 6.64654C25.4288 6.62375 25.3656 6.6122 25.304 6.61252ZM29.696 7.81898C29.182 7.83299 28.256 8.42922 26.67 9.6957C25.874 10.3419 25.37 10.6901 25.1 10.7621L24.052 11.5904C23.658 12.3107 23.6 12.7569 23.704 13.003C23.73 13.0637 23.7678 13.1186 23.8152 13.1646C23.8626 13.2106 23.9186 13.2468 23.98 13.2711C24.1328 13.3314 24.2958 13.362 24.46 13.3611C24.8526 13.3569 25.2428 13.2997 25.62 13.191C25.8166 13.1383 26.0108 13.0768 26.202 13.007L26.26 12.983L26.366 12.9269C26.566 12.6688 27.026 12.1826 27.602 11.6224C29.422 9.86577 30.352 8.61729 30.162 8.15111C30.076 7.92502 29.928 7.81098 29.696 7.81898ZM24.848 9.97981C24.7 9.99582 24.368 10.2519 23.77 10.7761C22.906 11.5404 21.964 11.9806 21.638 11.7845C21.5622 11.8016 21.4862 11.8176 21.41 11.8325C21.078 11.8985 20.664 11.9526 20.294 11.9226C20.1196 11.912 19.9488 11.8693 19.79 11.7965C19.6402 11.728 19.5207 11.607 19.454 11.4564C19.38 11.2763 19.38 11.0522 19.464 10.7661L18.164 11.8345L15.222 14.2694V18.217L24.862 10.6201C24.8602 10.5369 24.871 10.4539 24.894 10.374C24.968 10.1059 24.964 9.9678 24.848 9.97981ZM28.996 11.2583C28.85 11.2583 28.606 11.4644 28.216 11.8785C27.686 12.4447 26.852 12.993 26.41 13.105L26.342 13.141C26.2694 13.171 26.196 13.199 26.122 13.225C26.002 13.2651 25.846 13.3131 25.666 13.3611C25.306 13.4591 24.858 13.5492 24.458 13.5392C24.2694 13.5389 24.0826 13.5022 23.908 13.4311C23.7434 13.3632 23.6114 13.2342 23.54 13.071C23.424 12.7929 23.47 12.4027 23.724 11.8485L15.22 18.5491V20.96H18.956L26.88 14.7336C27.086 14.5055 27.396 14.1934 27.814 13.8033C28.934 12.7649 29.188 12.4067 29.188 11.8765C29.188 11.4644 29.142 11.2583 28.996 11.2583ZM30.882 15.1598L30.204 15.836C29.824 16.1962 29.146 16.6404 28.682 16.8304L28.59 16.8704L28.584 16.8804L28.564 16.9004C28.546 16.9145 28.538 16.9165 28.524 16.9225C28.3388 16.9926 28.1506 17.0547 27.96 17.1085C27.5362 17.2319 27.1004 17.3091 26.66 17.3386C26.4518 17.352 26.2428 17.3338 26.04 17.2846C25.864 17.2458 25.7086 17.1432 25.604 16.9965C25.508 16.8484 25.48 16.6504 25.534 16.4063C25.577 16.2325 25.6408 16.0645 25.724 15.9061L19.33 20.96H27.834L28.85 19.7956C30.246 18.1669 30.882 17.0025 30.882 16.0061V15.1598Z" fill="#F0CB46"/>
</svg>
