<svg width="30" height="30" viewBox="0 0 30 30" fill="none" xmlns="http://www.w3.org/2000/svg">
<g clip-path="url(#clip0_2_151)">
<mask id="mask0_2_151" style="mask-type:alpha" maskUnits="userSpaceOnUse" x="0" y="0" width="30" height="30">
<path d="M21.1907 29.8352C21.6614 30.0201 22.1981 30.0082 22.6732 29.7778L28.8257 26.7941C29.4721 26.4806 29.8833 25.821 29.8833 25.0976V4.86579C29.8833 4.14233 29.4721 3.48289 28.8257 3.16935L22.6732 0.185495C22.0498 -0.116861 21.3201 -0.0428026 20.773 0.358132C20.6947 0.415406 20.6203 0.479354 20.5505 0.549827L8.77226 11.3799L3.64193 7.45488C3.16435 7.08951 2.49634 7.11944 2.05278 7.52609L0.407318 9.03467C-0.135237 9.5321 -0.135859 10.3924 0.405974 10.8906L4.85517 14.9816L0.405974 19.0727C-0.135859 19.5709 -0.135237 20.4312 0.407318 20.9286L2.05278 22.4371C2.49634 22.8439 3.16435 22.8737 3.64193 22.5084L8.77226 18.5834L20.5505 29.4135C20.7368 29.6014 20.9555 29.7429 21.1907 29.8352ZM22.417 8.14438L13.48 14.9816L22.417 21.8189V8.14438Z" fill="white"/>
</mask>
<g mask="url(#mask0_2_151)">
<path d="M28.8439 3.17399L22.6867 0.186029C21.974 -0.159827 21.1222 -0.0139374 20.5629 0.549797L0.406221 19.0727C-0.135942 19.5709 -0.135319 20.4312 0.407565 20.9286L2.05403 22.4371C2.49786 22.8439 3.16628 22.8737 3.64414 22.5084L27.9174 3.94915C28.7317 3.32652 29.9014 3.9119 29.9014 4.94209V4.87005C29.9014 4.14691 29.4904 3.4877 28.8439 3.17399Z" fill="#DEBC42"/>
<path d="M28.8439 26.7893L22.6867 29.7772C21.974 30.123 21.1222 29.9771 20.5629 29.4135L0.406221 10.8906C-0.135942 10.3924 -0.135319 9.53206 0.407565 9.03465L2.05403 7.52607C2.49786 7.11941 3.16628 7.08947 3.64414 7.45486L27.9174 26.0141C28.7317 26.6367 29.9014 26.0514 29.9014 25.0211V25.0932C29.9014 25.8163 29.4904 26.4755 28.8439 26.7893Z" fill="#FFEC45"/>
<path d="M22.6674 29.7796C21.9545 30.1252 21.1027 29.9792 20.5433 29.4154C21.2325 30.11 22.411 29.618 22.411 28.6356V1.33144C22.411 0.34905 21.2325 -0.142935 20.5433 0.551719C21.1027 -0.0120677 21.9545 -0.158163 22.6674 0.187387L28.8236 3.17125C29.4705 3.48478 29.8819 4.14423 29.8819 4.86769V25.0995C29.8819 25.8229 29.4705 26.4824 28.8236 26.7959L22.6674 29.7796Z" fill="#F0CB46"/>
<path d="M21.1908 29.8351C21.6614 30.0198 22.1982 30.008 22.6731 29.7777L28.8256 26.7938C29.4722 26.4803 29.8833 25.8209 29.8833 25.0974V4.86562C29.8833 4.14216 29.4722 3.48272 28.8257 3.16918L22.6731 0.185327C22.0498 -0.117029 21.3201 -0.0429706 20.7729 0.357963C20.6948 0.415238 20.6203 0.479186 20.5504 0.549659L8.77225 11.3797L3.64192 7.45471C3.16435 7.08933 2.49633 7.11927 2.05278 7.52592L0.407318 9.0345C-0.135237 9.53193 -0.135859 10.3922 0.405974 10.8904L4.85517 14.9815L0.405974 19.0725C-0.135859 19.5708 -0.135237 20.431 0.407318 20.9285L2.05278 22.437C2.49633 22.8437 3.16435 22.8736 3.64192 22.5083L8.77225 18.5832L20.5504 29.4133C20.7367 29.6012 20.9556 29.7427 21.1908 29.8351ZM22.417 8.14421L13.4801 14.9815L22.417 21.8187V8.14421Z" fill="url(#paint0_linear_2_151)" fill-opacity="0.25"/>
</g>
</g>
<defs>
<linearGradient id="paint0_linear_2_151" x1="14.9417" y1="-0.000167964" x2="14.9417" y2="29.9631" gradientUnits="userSpaceOnUse">
<stop stop-color="white"/>
<stop offset="1" stop-color="white" stop-opacity="0"/>
</linearGradient>
<clipPath id="clip0_2_151">
<rect width="30" height="30" fill="white"/>
</clipPath>
</defs>
</svg>
