<svg width="30" height="30" viewBox="0 0 30 30" fill="none" xmlns="http://www.w3.org/2000/svg">
<g clip-path="url(#clip0_232_361)">
<mask id="mask0_232_361" style="mask-type:alpha" maskUnits="userSpaceOnUse" x="0" y="0" width="15" height="15">
<path d="M10.5954 14.9176C10.8307 15.01 11.0991 15.0041 11.3366 14.8889L14.4128 13.397C14.7361 13.2403 14.9416 12.9105 14.9416 12.5488V2.4329C14.9416 2.07117 14.7361 1.74144 14.4128 1.58467L11.3366 0.0927473C11.0249 -0.0584304 10.66 -0.0214013 10.3865 0.179066C10.3474 0.207703 10.3101 0.239677 10.2752 0.274913L4.38613 5.68994L1.82096 3.72744C1.58217 3.54475 1.24817 3.55972 1.02639 3.76305L0.203659 4.51734C-0.0676186 4.76605 -0.0679297 5.19619 0.202987 5.4453L2.42758 7.49081L0.202987 9.53634C-0.0679297 9.78547 -0.0676186 10.2156 0.203659 10.4643L1.02639 11.2186C1.24817 11.4219 1.58217 11.4369 1.82096 11.2542L4.38613 9.29169L10.2752 14.7067C10.3684 14.8007 10.4778 14.8714 10.5954 14.9176ZM11.2085 4.07219L6.74002 7.49081L11.2085 10.9094V4.07219Z" fill="white"/>
</mask>
<g mask="url(#mask0_232_361)">
<path d="M14.422 1.587L11.3433 0.0930143C10.987 -0.0799135 10.5611 -0.0069687 10.2814 0.274899L0.20311 9.53634C-0.0679711 9.78547 -0.0676595 10.2156 0.203783 10.4643L1.02701 11.2186C1.24893 11.4219 1.58314 11.4369 1.82207 11.2542L13.9587 1.97457C14.3659 1.66326 14.9507 1.95595 14.9507 2.47105V2.43502C14.9507 2.07345 14.7452 1.74385 14.422 1.587Z" fill="#F0CB20"/>
<path d="M14.422 13.3946L11.3433 14.8886C10.987 15.0615 10.5611 14.9886 10.2814 14.7067L0.20311 5.44529C-0.0679711 5.19618 -0.0676595 4.76603 0.203783 4.51732L1.02701 3.76304C1.24893 3.55971 1.58314 3.54474 1.82207 3.72743L13.9587 13.007C14.3659 13.3183 14.9507 13.0257 14.9507 12.5106V12.5466C14.9507 12.9082 14.7452 13.2377 14.422 13.3946Z" fill="#F0CB46"/>
<path d="M11.3338 14.8898C10.9773 15.0626 10.5514 14.9896 10.2717 14.7077C10.6163 15.055 11.2056 14.809 11.2056 14.3178V0.665718C11.2056 0.174525 10.6163 -0.0714677 10.2717 0.27586C10.5514 -0.00603387 10.9773 -0.0790816 11.3338 0.0936935L14.4118 1.58562C14.7353 1.74239 14.941 2.07211 14.941 2.43384V12.5498C14.941 12.9115 14.7353 13.2412 14.4118 13.398L11.3338 14.8898Z" fill="#F0CB20"/>
<path d="M10.5954 14.9175C10.8307 15.0098 11.0991 15.004 11.3366 14.8888L14.4128 13.3968C14.7361 13.2401 14.9416 12.9104 14.9416 12.5486V2.43274C14.9416 2.07101 14.7361 1.74129 14.4129 1.58452L11.3366 0.092595C11.0249 -0.0585831 10.6601 -0.021554 10.3864 0.178913C10.3474 0.20755 10.3102 0.239524 10.2752 0.274761L4.38613 5.68979L1.82096 3.72729C1.58218 3.5446 1.24817 3.55957 1.02639 3.76289L0.203659 4.51718C-0.0676186 4.76589 -0.0679297 5.19604 0.202987 5.44515L2.42759 7.49067L0.202987 9.5362C-0.0679297 9.78532 -0.0676186 10.2155 0.203659 10.4642L1.02639 11.2184C1.24817 11.4218 1.58218 11.4367 1.82096 11.2541L4.38613 9.29154L10.2752 14.7066C10.3683 14.8005 10.4778 14.8713 10.5954 14.9175ZM11.2085 4.07204L6.74003 7.49067L11.2085 10.9093V4.07204Z" fill="url(#paint0_linear_232_361)" fill-opacity="0.25"/>
</g>
</g>
<defs>
<linearGradient id="paint0_linear_232_361" x1="7.47083" y1="-0.000152647" x2="7.47083" y2="14.9815" gradientUnits="userSpaceOnUse">
<stop stop-color="white"/>
<stop offset="1" stop-color="white" stop-opacity="0"/>
</linearGradient>
<clipPath id="clip0_232_361">
<rect width="30" height="30" fill="white"/>
</clipPath>
</defs>
</svg>
