<svg width="28" height="28" viewBox="0 0 28 28" fill="none" xmlns="http://www.w3.org/2000/svg">
<path fill-rule="evenodd" clip-rule="evenodd" d="M3.88754 25.2009L1.64062 0H26.3306L24.0813 25.1968L13.9707 28L3.88754 25.2009Z" fill="#0071BC"/>
<path fill-rule="evenodd" clip-rule="evenodd" d="M14.0068 25.8559L22.1666 23.6112L24.0784 2.09863H14.0068V25.8559Z" fill="#29ABE2"/>
<path fill-rule="evenodd" clip-rule="evenodd" d="M6.78418 11.3574L7.05484 14.4436L14.0067 11.3574V8.26611L6.78418 11.3574Z" fill="#B3B3B3"/>
<path fill-rule="evenodd" clip-rule="evenodd" d="M21.7063 4.96631L14.0068 8.26606V11.3573L21.4408 8.05256L21.7063 4.96631Z" fill="#E6E6E6"/>
<path fill-rule="evenodd" clip-rule="evenodd" d="M14.0067 19.4326L13.9828 19.4362L10.5351 18.5103L10.3099 16.0486H7.20703L7.64003 20.8983L13.9821 22.6543L14.0067 22.6485V19.4326Z" fill="#E6E6E6"/>
<path fill-rule="evenodd" clip-rule="evenodd" d="M14.0068 11.3574V14.4437H17.7814L17.4384 18.4787L14.0068 19.4352V22.6509L20.3278 20.8949L21.1602 11.3574H14.0068Z" fill="white"/>
<path fill-rule="evenodd" clip-rule="evenodd" d="M14.0067 11.3574H6.78418L7.05484 14.4437H14.0067V11.3574Z" fill="#E6E6E6"/>
<path fill-rule="evenodd" clip-rule="evenodd" d="M14.0067 8.05256V4.96631H13.9753H6.23535L6.50923 8.05256H14.0067Z" fill="#E6E6E6"/>
<path fill-rule="evenodd" clip-rule="evenodd" d="M14.0068 4.96631V8.01386V8.05256H21.4408L21.7063 4.96631H14.0068Z" fill="white"/>
</svg>
