<svg width="28" height="28" viewBox="0 0 28 28" fill="none" xmlns="http://www.w3.org/2000/svg">
<path d="M9.36979 28.0001C11.9458 28.0001 14.0365 25.9094 14.0365 23.3334V18.6667H9.36979C6.79379 18.6667 4.70312 20.7574 4.70312 23.3334C4.70312 25.9094 6.79379 28.0001 9.36979 28.0001Z" fill="#0ACF83"/>
<path d="M4.70312 13.9999C4.70312 11.4239 6.79379 9.33325 9.36979 9.33325H14.0365V18.6666H9.36979C6.79379 18.6666 4.70312 16.5759 4.70312 13.9999Z" fill="#A259FF"/>
<path d="M4.70312 4.66667C4.70312 2.09067 6.79379 0 9.36979 0H14.0365V9.33333H9.36979C6.79379 9.33333 4.70312 7.24267 4.70312 4.66667Z" fill="#F24E1E"/>
<path d="M14.0361 0H18.7028C21.2788 0 23.3695 2.09067 23.3695 4.66667C23.3695 7.24267 21.2788 9.33333 18.7028 9.33333H14.0361V0Z" fill="#FF7262"/>
<path d="M23.3695 13.9999C23.3695 16.5759 21.2788 18.6666 18.7028 18.6666C16.1268 18.6666 14.0361 16.5759 14.0361 13.9999C14.0361 11.4239 16.1268 9.33325 18.7028 9.33325C21.2788 9.33325 23.3695 11.4239 23.3695 13.9999Z" fill="#1ABCFE"/>
</svg>
