<svg width="28" height="28" viewBox="0 0 28 28" fill="none" xmlns="http://www.w3.org/2000/svg">
<path fill-rule="evenodd" clip-rule="evenodd" d="M14.0001 0.65625C6.45027 0.65625 0.328125 6.77727 0.328125 14.3282C0.328125 20.3689 4.24557 25.4937 9.67787 27.3015C10.3611 27.4281 10.612 27.005 10.612 26.6438C10.612 26.3178 10.5993 25.2408 10.5934 24.0984C6.78988 24.9255 5.98728 22.4853 5.98728 22.4853C5.36535 20.905 4.46925 20.4848 4.46925 20.4848C3.22879 19.6362 4.56276 19.6537 4.56276 19.6537C5.93566 19.7501 6.65856 21.0626 6.65856 21.0626C7.87797 23.1527 9.85695 22.5485 10.6371 22.1991C10.7598 21.3155 11.1142 20.7123 11.5052 20.3709C8.46842 20.0252 5.27615 18.8529 5.27615 13.6142C5.27615 12.1215 5.81023 10.9019 6.68483 9.94441C6.54287 9.60005 6.0749 8.20949 6.81727 6.32627C6.81727 6.32627 7.96536 5.95882 10.578 7.7277C11.6686 7.42478 12.8382 7.27286 14.0001 7.26765C15.162 7.27286 16.3325 7.42478 17.4251 7.7277C20.0346 5.95882 21.1811 6.32627 21.1811 6.32627C21.9253 8.20949 21.4571 9.60005 21.3152 9.94441C22.1918 10.9019 22.7223 12.1215 22.7223 13.6142C22.7223 18.8653 19.5239 20.0216 16.4794 20.3601C16.9698 20.7843 17.4068 21.6164 17.4068 22.8919C17.4068 24.7212 17.3909 26.1935 17.3909 26.6438C17.3909 27.0077 17.637 27.434 18.3301 27.2997C23.7594 25.4899 27.6719 20.3668 27.6719 14.3282C27.6719 6.77727 21.5506 0.65625 14.0001 0.65625ZM5.44873 20.1323C5.41862 20.2002 5.31176 20.2206 5.2144 20.1739C5.11524 20.1293 5.05954 20.0367 5.09169 19.9686C5.12112 19.8986 5.22821 19.8792 5.32715 19.926C5.42654 19.9706 5.48314 20.0641 5.44873 20.1323ZM6.12124 20.7324C6.05604 20.7928 5.92857 20.7647 5.84209 20.6692C5.75266 20.5739 5.7359 20.4464 5.80201 20.3851C5.86925 20.3246 5.99287 20.3529 6.08252 20.4482C6.17195 20.5447 6.18939 20.6712 6.12124 20.7324ZM6.58261 21.5001C6.49884 21.5583 6.36186 21.5037 6.27719 21.3822C6.19342 21.2606 6.19342 21.1148 6.279 21.0564C6.3639 20.998 6.49884 21.0505 6.58464 21.1712C6.66819 21.2948 6.66819 21.4406 6.58261 21.5001ZM7.36288 22.3893C7.28794 22.472 7.12832 22.4498 7.0115 22.337C6.89196 22.2268 6.85868 22.0703 6.93384 21.9877C7.00969 21.9048 7.17021 21.9281 7.28794 22.04C7.40657 22.15 7.4428 22.3076 7.36288 22.3893ZM8.3713 22.6895C8.33825 22.7966 8.18452 22.8453 8.02966 22.7998C7.87503 22.7529 7.77383 22.6275 7.80507 22.5192C7.83722 22.4115 7.99162 22.3608 8.14762 22.4094C8.30202 22.4561 8.40345 22.5806 8.3713 22.6895ZM9.51893 22.8168C9.52278 22.9296 9.39147 23.0231 9.22891 23.0251C9.06545 23.0287 8.93323 22.9375 8.93142 22.8266C8.93142 22.7127 9.05979 22.6201 9.22325 22.6174C9.38581 22.6142 9.51893 22.7048 9.51893 22.8168ZM10.6463 22.7736C10.6658 22.8836 10.5528 22.9966 10.3914 23.0267C10.2327 23.0557 10.0858 22.9878 10.0656 22.8787C10.0459 22.7659 10.1609 22.6529 10.3194 22.6237C10.4811 22.5957 10.6257 22.6618 10.6463 22.7736Z" fill="#161614" fill-opacity="0.78"/>
</svg>
