<svg width="28" height="28" viewBox="0 0 28 28" fill="none" xmlns="http://www.w3.org/2000/svg">
<path fill-rule="evenodd" clip-rule="evenodd" d="M3.88747 25.201L1.64062 0H26.3296L24.0804 25.1971L13.97 28L3.88747 25.201Z" fill="#E44D26"/>
<path fill-rule="evenodd" clip-rule="evenodd" d="M13.9854 25.8576L22.155 23.5926L24.0771 2.06055H13.9854V25.8576Z" fill="#F16529"/>
<path d="M9.8947 11.4072H13.9846V14.498H7.06802L6.23438 5.15137H13.9846V8.2422H9.61223L9.8947 11.4072Z" fill="#EBEBEB"/>
<path d="M13.9711 19.438L13.9846 19.4344V22.6501L13.9704 22.6541L7.63914 20.8965L7.20612 16.0434H10.3088L10.5288 18.5085L13.9711 19.438Z" fill="#EBEBEB"/>
<path d="M13.9746 5.15137H21.7171L21.4404 8.2422H13.9746V5.15137Z" fill="white"/>
<path d="M13.9746 14.498V11.4072H21.1591L21.0837 12.2372L20.3109 20.8964L13.9746 22.6526V19.437L17.4218 18.5065L17.7806 14.498H13.9746Z" fill="white"/>
</svg>
