<svg width="28" height="28" viewBox="0 0 28 28" fill="none" xmlns="http://www.w3.org/2000/svg">
<g clip-path="url(#clip0_502_324)">
<path fill-rule="evenodd" clip-rule="evenodd" d="M0.328125 0.328125H27.6719V27.6719H0.328125V0.328125V0.328125Z" fill="#F7DF1E"/>
<path fill-rule="evenodd" clip-rule="evenodd" d="M7.51762 23.1786L9.61016 21.9122C10.0138 22.628 10.3811 23.2336 11.2619 23.2336C12.1063 23.2336 12.6386 22.9033 12.6386 21.6186V12.8816H15.2082V21.6549C15.2082 24.3164 13.6482 25.5278 11.3721 25.5278C9.31649 25.5278 8.12326 24.4631 7.51758 23.1784" fill="black"/>
<path fill-rule="evenodd" clip-rule="evenodd" d="M16.6045 22.9032L18.6968 21.6918C19.2475 22.5913 19.9634 23.252 21.2298 23.252C22.2945 23.252 22.9735 22.7196 22.9735 21.9854C22.9735 21.1044 22.276 20.7923 21.1013 20.2786L20.4591 20.0031C18.6051 19.214 17.3753 18.2228 17.3753 16.1303C17.3753 14.2031 18.8436 12.7346 21.1381 12.7346C22.7717 12.7346 23.9464 13.3037 24.7906 14.7904L22.7899 16.0752C22.3494 15.286 21.8723 14.974 21.1381 14.974C20.3856 14.974 19.9083 15.4512 19.9083 16.0752C19.9083 16.8461 20.3856 17.1582 21.4867 17.6355L22.1291 17.9108C24.3133 18.8469 25.5432 19.8013 25.5432 21.9487C25.5432 24.2616 23.7261 25.5279 21.2849 25.5279C18.8988 25.5279 17.357 24.39 16.6045 22.9032" fill="black"/>
</g>
<defs>
<clipPath id="clip0_502_324">
<rect width="28" height="28" fill="white"/>
</clipPath>
</defs>
</svg>
