<svg width="35" height="35" viewBox="0 0 35 35" fill="none" xmlns="http://www.w3.org/2000/svg">
<ellipse cx="17.5" cy="17.4621" rx="17.0898" ry="8.98552" fill="url(#paint0_radial_502_331)"/>
<ellipse cx="17.5004" cy="17.462" rx="16.4223" ry="8.31795" fill="#6181B6"/>
<path fill-rule="evenodd" clip-rule="evenodd" d="M20.8248 20.1591L21.6393 15.9667C21.8262 15.0188 21.666 14.3111 21.1853 13.8705C20.718 13.4433 19.9169 13.2297 18.742 13.2297H17.3268L17.7273 11.1469C17.7407 11.0667 17.7273 10.9866 17.6739 10.9199C17.6205 10.8531 17.5537 10.8264 17.4736 10.8264H15.5243C15.3908 10.8264 15.284 10.9199 15.2573 11.04L14.3894 15.4861C14.3093 14.9787 14.1224 14.5515 13.802 14.2043C13.2279 13.5501 12.3333 13.2163 11.1183 13.2163H7.36659C7.23307 13.2163 7.12626 13.3098 7.09956 13.4299L5.35052 22.4555C5.33717 22.5356 5.35052 22.6157 5.40392 22.6825C5.45733 22.7493 5.52409 22.776 5.6042 22.776H7.56686C7.70037 22.776 7.80718 22.6825 7.83389 22.5623L8.26113 20.386H9.71644C10.4775 20.386 11.1317 20.3059 11.6257 20.1457C12.1464 19.9722 12.6137 19.6918 13.0276 19.3046C13.3614 18.9975 13.6418 18.6504 13.8554 18.2765L13.5082 20.079C13.4949 20.1591 13.5082 20.2392 13.5617 20.3059C13.6151 20.3727 13.6818 20.3994 13.7619 20.3994H15.7112C15.8448 20.3994 15.9516 20.3059 15.9783 20.1858L16.9396 15.2457H18.2747C18.8488 15.2457 19.009 15.3526 19.0624 15.406C19.1025 15.446 19.1826 15.6062 19.0892 16.1002L18.3148 20.0923C18.3014 20.1724 18.3148 20.2525 18.3682 20.3193C18.4216 20.386 18.4883 20.4128 18.5684 20.4128H20.5712C20.6913 20.3727 20.7981 20.2792 20.8248 20.1591V20.1591ZM11.7993 16.6877C11.6791 17.3152 11.4521 17.7692 11.1183 18.0228C10.7846 18.2765 10.2371 18.41 9.51617 18.41H8.64832L9.27584 15.179H10.3974C11.2252 15.179 11.5589 15.3526 11.6925 15.4994C11.866 15.713 11.9061 16.1269 11.7993 16.6877V16.6877Z" fill="white"/>
<path fill-rule="evenodd" clip-rule="evenodd" d="M29.1558 14.2043C28.5817 13.5501 27.6872 13.2163 26.4722 13.2163H22.6937C22.5602 13.2163 22.4534 13.3098 22.4267 13.4299L20.6777 22.4422C20.6643 22.5223 20.6777 22.6024 20.7311 22.6691C20.7845 22.7359 20.8512 22.7626 20.9313 22.7626H22.894C23.0275 22.7626 23.1343 22.6691 23.161 22.549L23.5883 20.3727H25.0436C25.8046 20.3727 26.4588 20.2926 26.9528 20.1324C27.4736 19.9588 27.9409 19.6784 28.3547 19.2912C28.7019 18.9708 28.9956 18.6103 29.2092 18.2231C29.4229 17.8359 29.5831 17.4087 29.6765 16.9414C29.9035 15.7798 29.7299 14.8719 29.1558 14.2043V14.2043ZM27.1131 16.6877C26.9929 17.3152 26.7659 17.7691 26.4321 18.0228C26.0984 18.2765 25.5509 18.41 24.83 18.41H23.9621L24.5896 15.179H25.7112C26.539 15.179 26.8727 15.3525 27.0063 15.4994C27.1932 15.713 27.2332 16.1269 27.1131 16.6877V16.6877Z" fill="white"/>
<path fill-rule="evenodd" clip-rule="evenodd" d="M10.397 14.912C11.1447 14.912 11.6387 15.0455 11.8924 15.3259C12.146 15.6063 12.1994 16.0736 12.0659 16.7411C11.9324 17.4354 11.6654 17.9428 11.2782 18.2365C10.891 18.5302 10.3035 18.6771 9.51581 18.6771H8.32753L9.06186 14.912H10.397V14.912ZM5.61719 22.4956H7.57985L8.04715 20.1057H9.72943C10.4771 20.1057 11.0779 20.0256 11.5586 19.8654C12.0392 19.7052 12.4665 19.4515 12.867 19.0777C13.2008 18.7706 13.4678 18.4368 13.6681 18.0763C13.8684 17.7158 14.0152 17.3153 14.0954 16.8747C14.309 15.8065 14.1488 14.9788 13.6281 14.3779C13.1073 13.7771 12.2796 13.4834 11.1447 13.4834H7.36623L5.61719 22.4956V22.4956Z" fill="#000004"/>
<path fill-rule="evenodd" clip-rule="evenodd" d="M15.5371 11.0935H17.4864L17.0191 13.4834H18.7548C19.8496 13.4834 20.5973 13.6703 21.0112 14.0575C21.4251 14.4447 21.5453 15.0589 21.3851 15.9134L20.5706 20.1057H18.5946L19.369 16.1136C19.4624 15.6597 19.4224 15.3526 19.2755 15.1924C19.1287 15.0322 18.7949 14.9387 18.3009 14.9387H16.7388L15.7374 20.1057H13.7881L15.5371 11.0935V11.0935Z" fill="#000004"/>
<path fill-rule="evenodd" clip-rule="evenodd" d="M25.7114 14.912C26.4591 14.912 26.9531 15.0455 27.2068 15.3259C27.4605 15.6063 27.5139 16.0736 27.3804 16.7411C27.2469 17.4354 26.9798 17.9428 26.5926 18.2365C26.2054 18.5302 25.618 18.6771 24.8302 18.6771H23.642L24.3763 14.912H25.7114V14.912ZM20.9316 22.4956H22.8943L23.3616 20.1057H25.0439C25.7916 20.1057 26.3924 20.0256 26.873 19.8654C27.3537 19.7052 27.7809 19.4515 28.1815 19.0777C28.5153 18.7706 28.7823 18.4368 28.9826 18.0763C29.1828 17.7158 29.3297 17.3153 29.4098 16.8747C29.6234 15.8065 29.4632 14.9788 28.9425 14.3779C28.4218 13.7771 27.594 13.4834 26.4591 13.4834H22.6807L20.9316 22.4956V22.4956Z" fill="#000004"/>
<defs>
<radialGradient id="paint0_radial_502_331" cx="0" cy="0" r="1" gradientUnits="userSpaceOnUse" gradientTransform="translate(10.671 11.6365) scale(48.4733 25.4863)">
<stop stop-color="white"/>
<stop offset="0.5" stop-color="#4C6B97"/>
<stop offset="1" stop-color="#231F20"/>
</radialGradient>
</defs>
</svg>
