<svg width="28" height="28" viewBox="0 0 28 28" fill="none" xmlns="http://www.w3.org/2000/svg">
<g clip-path="url(#clip0_502_326)">
<path d="M27.0405 15.7239C27.9906 8.28571 22.7377 1.48548 15.3131 0.535349C7.88854 -0.414783 1.06116 4.83809 0.111033 12.2627C-0.839099 19.6873 4.41377 26.5011 11.8384 27.4648C19.2766 28.4149 26.0768 23.1621 27.0405 15.7239Z" fill="#FF6C37"/>
<path d="M18.476 9.14084L12.748 14.8688L11.1328 13.2536C16.7657 7.62063 17.3222 8.10927 18.476 9.14084Z" fill="white"/>
<path d="M12.7479 15.0047C12.7072 15.0047 12.6801 14.9911 12.6529 14.9639L11.0241 13.3487C10.9698 13.2944 10.9698 13.213 11.0241 13.1587C16.7521 7.43075 17.3493 7.97369 18.5573 9.05955C18.5845 9.0867 18.598 9.11385 18.598 9.15457C18.598 9.19529 18.5845 9.22243 18.5573 9.24958L12.8294 14.9639C12.8158 14.9911 12.7751 15.0047 12.7479 15.0047ZM11.3227 13.2537L12.7479 14.6789L18.2723 9.15457C17.2678 8.25873 16.5892 7.98726 11.3227 13.2537Z" fill="#FF6C37"/>
<path d="M14.39 16.5113L12.8291 14.9504L18.557 9.22241C20.0908 10.7698 17.7969 13.2808 14.39 16.5113Z" fill="white"/>
<path d="M14.3901 16.647C14.3494 16.647 14.3223 16.6334 14.2951 16.6063L12.7342 15.0454C12.707 15.0182 12.707 14.9911 12.707 14.9503C12.707 14.9096 12.7206 14.8825 12.7478 14.8553L18.4757 9.12739C18.53 9.0731 18.6114 9.0731 18.6657 9.12739C19.0186 9.45315 19.2087 9.91464 19.1951 10.3897C19.1679 11.8963 17.4577 13.8102 14.4987 16.6063C14.458 16.6334 14.4173 16.647 14.3901 16.647ZM13.0192 14.9503C13.8879 15.8326 14.2544 16.1855 14.3901 16.3212C16.6704 14.1495 18.8829 11.9235 18.8965 10.3897C18.91 10.0368 18.7743 9.6839 18.5436 9.41243L13.0192 14.9503Z" fill="#FF6C37"/>
<path d="M11.1595 13.2943L12.3132 14.4481C12.3404 14.4752 12.3404 14.5024 12.3132 14.5295C12.2996 14.5431 12.2996 14.5431 12.2861 14.5431L9.89717 15.0589C9.77501 15.0724 9.66642 14.991 9.63927 14.8688C9.6257 14.801 9.65285 14.7331 9.69357 14.6924L11.078 13.3079C11.1052 13.2808 11.1459 13.2672 11.1595 13.2943Z" fill="white"/>
<path d="M9.85681 15.1948C9.65321 15.1948 9.50391 15.0319 9.50391 14.8283C9.50391 14.7333 9.54463 14.6383 9.61249 14.5704L10.997 13.1859C11.0784 13.118 11.187 13.118 11.2684 13.1859L12.4222 14.3396C12.5036 14.4075 12.5036 14.5297 12.4222 14.6111C12.395 14.6383 12.3679 14.6518 12.3272 14.6654L9.93825 15.1812C9.91111 15.1812 9.88396 15.1948 9.85681 15.1948ZM11.1191 13.4438L9.78895 14.774C9.7618 14.8011 9.74823 14.8419 9.77537 14.8826C9.78895 14.9233 9.82967 14.9369 9.87039 14.9233L12.11 14.4347L11.1191 13.4438Z" fill="#FF6C37"/>
<path d="M21.5025 5.96479C20.6338 5.12325 19.2358 5.15039 18.3942 6.03266C17.5527 6.91493 17.5798 8.2994 18.4621 9.14095C19.1815 9.83319 20.2674 9.95535 21.1225 9.43956L19.5751 7.8922L21.5025 5.96479Z" fill="white"/>
<path d="M19.9821 9.88748C18.6926 9.88748 17.6475 8.84234 17.6475 7.55287C17.6475 6.26341 18.6926 5.21826 19.9821 5.21826C20.5793 5.21826 21.163 5.44901 21.5973 5.86978C21.6244 5.89693 21.638 5.92407 21.638 5.96479C21.638 6.00551 21.6244 6.03266 21.5973 6.05981L19.7649 7.8922L21.2037 9.33098C21.258 9.38527 21.258 9.46671 21.2037 9.521C21.1901 9.53458 21.1901 9.53458 21.1765 9.54815C20.8236 9.76532 20.4028 9.88748 19.9821 9.88748ZM19.9821 5.5033C18.8419 5.5033 17.9189 6.42629 17.9325 7.56644C17.9325 8.7066 18.8555 9.62959 19.9956 9.61602C20.3078 9.61602 20.62 9.54815 20.9051 9.39884L19.4799 7.98722C19.4527 7.96007 19.4391 7.93292 19.4391 7.8922C19.4391 7.85148 19.4527 7.82434 19.4799 7.79719L21.2987 5.97837C20.9322 5.66618 20.4707 5.5033 19.9821 5.5033Z" fill="#FF6C37"/>
<path d="M21.5433 6.00542L21.5162 5.97827L19.5752 7.89211L21.109 9.42589C21.2583 9.33088 21.4076 9.22229 21.5298 9.10013C22.3984 8.24502 22.3984 6.86054 21.5433 6.00542Z" fill="white"/>
<path d="M21.1225 9.57534C21.0818 9.57534 21.0547 9.56176 21.0275 9.53462L19.4802 7.98726C19.453 7.96011 19.4395 7.93297 19.4395 7.89225C19.4395 7.85153 19.453 7.82438 19.4802 7.79723L21.4076 5.86982C21.4619 5.81553 21.5433 5.81553 21.5976 5.86982L21.6383 5.89697C22.5477 6.80638 22.5477 8.2723 21.6519 9.19528C21.5162 9.33102 21.3669 9.45318 21.204 9.54819C21.1633 9.56176 21.1361 9.57534 21.1225 9.57534ZM19.7652 7.89225L21.1361 9.26315C21.2447 9.19528 21.3533 9.10027 21.4347 9.01883C22.2084 8.24515 22.2491 6.98283 21.5026 6.16843L19.7652 7.89225Z" fill="#FF6C37"/>
<path d="M18.7062 9.38519C18.3805 9.05943 17.8511 9.05943 17.5253 9.38519L12.4082 14.5023L13.2633 15.3574L18.6791 10.6068C19.032 10.3082 19.0591 9.77881 18.7605 9.42591C18.7334 9.41234 18.7198 9.39876 18.7062 9.38519Z" fill="white"/>
<path d="M13.2496 15.4932C13.2089 15.4932 13.1818 15.4796 13.1546 15.4525L12.2995 14.5973C12.2452 14.543 12.2452 14.4616 12.2995 14.4073L17.4166 9.29017C17.7967 8.91011 18.4075 8.91011 18.7876 9.29017C19.1676 9.67022 19.1676 10.281 18.7876 10.6611C18.774 10.6746 18.7604 10.6882 18.7468 10.7018L13.3311 15.4525C13.3175 15.4796 13.2904 15.4932 13.2496 15.4932ZM12.5981 14.5023L13.2632 15.1674L18.584 10.4982C18.8826 10.2539 18.9097 9.80595 18.6654 9.50734C18.4211 9.20873 17.9732 9.18158 17.6745 9.4259C17.661 9.43947 17.6474 9.45305 17.6202 9.46662L12.5981 14.5023Z" fill="#FF6C37"/>
<path d="M8.48591 20.3254C8.43162 20.3525 8.40447 20.4068 8.41805 20.4611L8.64879 21.4384C8.70309 21.5741 8.62165 21.737 8.47234 21.7777C8.36376 21.8185 8.2416 21.7777 8.17373 21.6963L6.68066 20.2168L11.5535 15.344L13.2366 15.3711L14.3767 16.5113C14.1053 16.742 12.4629 18.3301 8.48591 20.3254Z" fill="white"/>
<path d="M8.37752 21.9135C8.26893 21.9135 8.16034 21.8728 8.09248 21.7913L6.61299 20.3118C6.58584 20.2847 6.57227 20.2575 6.57227 20.2168C6.57227 20.1761 6.58584 20.1489 6.61299 20.1218L11.4858 15.249C11.513 15.2218 11.5537 15.2083 11.5808 15.2083L13.2639 15.2354C13.3046 15.2354 13.3318 15.249 13.3589 15.2761L14.4991 16.4163C14.5262 16.4434 14.5398 16.4841 14.5398 16.5249C14.5398 16.5656 14.5262 16.5927 14.4855 16.6199L14.3905 16.7013C12.9517 17.9636 10.9972 19.226 8.56754 20.434L8.79829 21.3977C8.83901 21.5741 8.75757 21.7642 8.59469 21.8592C8.51325 21.8999 8.44538 21.9135 8.37752 21.9135ZM6.88445 20.2168L8.2825 21.6013C8.32322 21.6691 8.40466 21.6963 8.47253 21.6556C8.5404 21.6149 8.56754 21.5334 8.52682 21.4655L8.29608 20.4883C8.26893 20.3661 8.32322 20.2575 8.43181 20.2032C10.8343 18.9952 12.7753 17.7465 14.2005 16.5113L13.196 15.5069L11.6351 15.4797L6.88445 20.2168Z" fill="#FF6C37"/>
<path d="M5.52647 21.3841L6.69378 20.2168L8.43116 21.9542L5.6622 21.7642C5.54004 21.7506 5.4586 21.642 5.47218 21.5198C5.47218 21.4655 5.48575 21.4112 5.52647 21.3841Z" fill="white"/>
<path d="M8.43149 22.0762L5.64896 21.8862C5.44536 21.8726 5.30963 21.6962 5.3232 21.4926C5.33677 21.4111 5.36392 21.3297 5.43179 21.2754L6.59909 20.1081C6.65338 20.0538 6.73482 20.0538 6.78912 20.1081L8.5265 21.8455C8.56722 21.8862 8.58079 21.9405 8.55365 21.9948C8.5265 22.0491 8.48578 22.0762 8.43149 22.0762ZM6.6941 20.4067L5.62181 21.479C5.58109 21.5062 5.58109 21.574 5.62181 21.6012C5.63539 21.6147 5.64896 21.6283 5.67611 21.6283L8.07858 21.7912L6.6941 20.4067Z" fill="#FF6C37"/>
<path d="M11.0781 15.9684C10.9967 15.9684 10.9424 15.9006 10.9424 15.8327C10.9424 15.792 10.956 15.7648 10.9831 15.7377L12.2997 14.4211C12.354 14.3668 12.4354 14.3668 12.4897 14.4211L13.3449 15.2762C13.3856 15.3169 13.3992 15.3576 13.3856 15.4119C13.372 15.4527 13.3313 15.4934 13.277 15.507L11.1053 15.9684C11.0917 15.9684 11.0781 15.9684 11.0781 15.9684ZM12.3947 14.7061L11.4989 15.602L12.9648 15.2898L12.3947 14.7061Z" fill="#FF6C37"/>
<path d="M13.2364 15.3711L11.7434 15.6968C11.6348 15.724 11.5262 15.6561 11.499 15.5475C11.4855 15.4797 11.499 15.4118 11.5533 15.3575L12.3813 14.5295L13.2364 15.3711Z" fill="white"/>
<path d="M11.7163 15.8327C11.5263 15.8327 11.377 15.6834 11.377 15.4934C11.377 15.3984 11.4177 15.3169 11.472 15.2491L12.2999 14.4211C12.3542 14.3668 12.4357 14.3668 12.49 14.4211L13.3451 15.2762C13.3858 15.3169 13.3994 15.3576 13.3858 15.4119C13.3722 15.4527 13.3315 15.4934 13.2772 15.507L11.7842 15.8327C11.757 15.8327 11.7299 15.8327 11.7163 15.8327ZM12.395 14.7061L11.662 15.4391C11.6348 15.4662 11.6348 15.4934 11.6484 15.5205C11.662 15.5477 11.6891 15.5612 11.7299 15.5612L12.9786 15.2898L12.395 14.7061Z" fill="#FF6C37"/>
<path d="M21.5565 7.30847C21.5294 7.22703 21.4344 7.18631 21.3529 7.21345C21.2715 7.2406 21.2308 7.33561 21.2579 7.41705C21.2579 7.43063 21.2715 7.4442 21.2715 7.45777C21.3529 7.62065 21.3258 7.82425 21.2172 7.97356C21.1629 8.04143 21.1765 8.13644 21.2308 8.19073C21.2986 8.24502 21.3936 8.23145 21.4479 8.16359C21.6515 7.90569 21.6922 7.57993 21.5565 7.30847Z" fill="#FF6C37"/>
</g>
<defs>
<clipPath id="clip0_502_326">
<rect width="27.1515" height="28" fill="white"/>
</clipPath>
</defs>
</svg>
