<svg width="28" height="28" viewBox="0 0 28 28" fill="none" xmlns="http://www.w3.org/2000/svg">
<path d="M23.0216 9.60571C22.7312 9.50573 22.4302 9.41114 22.1203 9.32167C22.1712 9.11379 22.218 8.9086 22.2595 8.7069C22.9418 5.39491 22.4957 2.72675 20.9724 1.84827C19.5117 1.00593 17.1228 1.88421 14.7102 3.98385C14.4782 4.18575 14.2455 4.39951 14.013 4.62354C13.858 4.47532 13.7033 4.33208 13.549 4.19507C11.0205 1.95 8.48604 1.00389 6.96419 1.8849C5.50489 2.72969 5.07273 5.23801 5.6869 8.37681C5.74621 8.67999 5.81554 8.98959 5.89393 9.30438C5.53524 9.4062 5.18895 9.51475 4.85762 9.63023C1.89321 10.6638 0 12.2835 0 13.9637C0 15.699 2.03236 17.4395 5.12002 18.4948C5.36369 18.5781 5.61653 18.6568 5.87709 18.7316C5.79251 19.072 5.71895 19.4057 5.6572 19.7311C5.07158 22.8154 5.52891 25.2645 6.98433 26.1039C8.48764 26.9708 11.0106 26.0797 13.4674 23.9323C13.6615 23.7625 13.8564 23.5825 14.0516 23.3938C14.3047 23.6375 14.5573 23.8681 14.8086 24.0844C17.1882 26.1321 19.5385 26.959 20.9926 26.1172C22.4944 25.2478 22.9825 22.6169 22.3488 19.416C22.3004 19.1716 22.2441 18.9218 22.1809 18.6677C22.3581 18.6153 22.532 18.5612 22.7016 18.505C25.9115 17.4414 28 15.7221 28 13.9637C28 12.2775 26.0457 10.6468 23.0216 9.60571ZM22.3254 17.3696C22.1723 17.4203 22.0152 17.4693 21.8551 17.5168C21.5008 16.3949 21.0225 15.202 20.4372 13.9695C20.9957 12.7664 21.4555 11.5887 21.8 10.4742C22.0864 10.557 22.3644 10.6445 22.6323 10.7367C25.2233 11.6287 26.8038 12.9475 26.8038 13.9637C26.8038 15.0461 25.0969 16.4512 22.3254 17.3696ZM21.1754 19.6483C21.4556 21.0637 21.4956 22.3434 21.31 23.3438C21.1433 24.2427 20.8079 24.842 20.3932 25.0821C19.5108 25.5928 17.6238 24.9289 15.5887 23.1776C15.3554 22.9769 15.1204 22.7625 14.8847 22.5357C15.6736 21.6728 16.4621 20.6697 17.2317 19.5556C18.5853 19.4355 19.8641 19.2391 21.0238 18.971C21.081 19.2014 21.1317 19.4274 21.1754 19.6483ZM9.54583 24.9938C8.68371 25.2983 7.99707 25.307 7.582 25.0677C6.69879 24.5582 6.33163 22.5919 6.83246 19.9542C6.88983 19.6521 6.95811 19.3418 7.03681 19.0246C8.18382 19.2782 9.45328 19.4607 10.8101 19.5707C11.5849 20.6609 12.3962 21.6629 13.2137 22.5403C13.0351 22.7127 12.8572 22.8769 12.6802 23.0316C11.5939 23.9812 10.5052 24.6549 9.54583 24.9938ZM5.50688 17.3629C4.14157 16.8963 3.01405 16.2898 2.24119 15.628C1.54672 15.0332 1.1961 14.4428 1.1961 13.9637C1.1961 12.9441 2.71616 11.6437 5.25135 10.7597C5.55896 10.6525 5.88098 10.5514 6.21515 10.4565C6.56552 11.5962 7.02514 12.7878 7.57981 13.9928C7.01797 15.2157 6.55182 16.4263 6.19801 17.5794C5.95977 17.5109 5.72896 17.4388 5.50688 17.3629ZM6.86077 8.1471C6.33457 5.45786 6.68404 3.42919 7.56346 2.92012C8.5002 2.37782 10.5716 3.15103 12.7548 5.08954C12.8943 5.21344 13.0344 5.34313 13.1749 5.47729C12.3614 6.35083 11.5575 7.34533 10.7896 8.42905C9.47277 8.5511 8.21222 8.74717 7.05325 9.00973C6.98039 8.71662 6.91585 8.42865 6.86077 8.1471ZM18.9387 11.1295C18.6616 10.6509 18.3772 10.1837 18.0872 9.72916C18.9806 9.8421 19.8366 9.99202 20.6404 10.1755C20.3991 10.9489 20.0983 11.7575 19.7442 12.5865C19.4902 12.1043 19.2216 11.6181 18.9387 11.1295ZM14.0134 6.33214C14.5651 6.92987 15.1176 7.59722 15.6611 8.32129C15.1134 8.29543 14.559 8.28197 14 8.28197C13.4463 8.28197 12.896 8.29513 12.3517 8.32055C12.8957 7.6032 13.453 6.93675 14.0134 6.33214ZM9.05646 11.1377C8.7797 11.6176 8.51605 12.1012 8.26605 12.5856C7.91772 11.7595 7.61973 10.9472 7.37631 10.1628C8.17519 9.98404 9.0271 9.83786 9.9148 9.72707C9.62074 10.1857 9.33396 10.6564 9.05646 11.1376V11.1377ZM9.94036 18.2856C9.02321 18.1833 8.1585 18.0447 7.35982 17.8708C7.60712 17.0724 7.91169 16.2428 8.2674 15.3989C8.51804 15.883 8.78274 16.3667 9.06119 16.8477H9.06124C9.34488 17.3376 9.63873 17.8176 9.94036 18.2856ZM14.0465 21.6796C13.4795 21.0679 12.914 20.3913 12.3618 19.6634C12.8979 19.6845 13.4445 19.6952 14 19.6952C14.5707 19.6952 15.1349 19.6824 15.6902 19.6577C15.145 20.3986 14.5944 21.0762 14.0465 21.6796ZM19.7556 15.3559C20.1299 16.2089 20.4454 17.0342 20.6959 17.819C19.884 18.0042 19.0075 18.1534 18.084 18.2642C18.3746 17.8036 18.6615 17.3283 18.9435 16.8394C19.2287 16.3448 19.4996 15.8495 19.7556 15.3559ZM17.9074 16.2419C17.4697 17.0008 17.0203 17.7252 16.5641 18.4091C15.7333 18.4685 14.8749 18.4991 14 18.4991C13.1287 18.4991 12.2811 18.472 11.4649 18.419C10.9903 17.7262 10.5312 16.9996 10.0963 16.2484H10.0964C9.66266 15.4992 9.26344 14.7437 8.90171 13.9924C9.26334 13.2394 9.66151 12.483 10.0928 11.7352L10.0927 11.7353C10.5251 10.9855 10.9802 10.2624 11.4504 9.57391C12.2831 9.51096 13.137 9.47812 13.9999 9.47812H14C14.8669 9.47812 15.7219 9.51121 16.5543 9.57471C17.0173 10.2582 17.4693 10.9789 17.9034 11.7288C18.3425 12.4872 18.7458 13.2385 19.1105 13.9754C18.7469 14.7249 18.3445 15.4838 17.9074 16.2419ZM20.3749 2.88454C21.3125 3.42525 21.6771 5.60593 21.088 8.46548C21.0505 8.64794 21.0081 8.83379 20.9622 9.02214C19.8005 8.7541 18.5391 8.55464 17.2184 8.43074C16.449 7.33512 15.6517 6.33907 14.8515 5.47675C15.0666 5.26976 15.2815 5.0724 15.4954 4.88615C17.5626 3.08719 19.4946 2.37692 20.3749 2.88454ZM14 11.4634C15.3809 11.4634 16.5003 12.5828 16.5003 13.9637C16.5003 15.3445 15.3809 16.464 14 16.464C12.6191 16.464 11.4997 15.3445 11.4997 13.9637C11.4997 12.5828 12.6191 11.4634 14 11.4634Z" fill="#00D8FF"/>
</svg>
