<svg width="30" height="30" viewBox="0 0 30 30" fill="none" xmlns="http://www.w3.org/2000/svg">
<path d="M23.0965 23.1993C24.0868 22.7726 25.2675 22.6173 26.791 22.656C26.7481 22.3656 26.2037 22.0207 25.8049 21.7681C25.671 21.6832 25.5535 21.6088 25.4769 21.5503C24.8675 21.1041 24.22 20.6384 23.5726 20.2311C23.364 20.1013 23.0637 19.993 22.7747 19.8887C22.5888 19.8217 22.4076 19.7563 22.2585 19.688C22.1062 19.6247 21.8987 19.5615 21.6747 19.4932C21.1425 19.331 20.5172 19.1404 20.316 18.8538C19.7982 18.168 19.4369 17.3387 19.076 16.5106C19.0387 16.425 19.0014 16.3395 18.964 16.2541C18.7751 15.8142 18.565 15.3657 18.3536 14.9146C18.1176 14.4108 17.8801 13.9039 17.6691 13.4023C17.5771 13.198 17.5072 13.0048 17.4383 12.8147C17.3503 12.5716 17.2641 12.3334 17.1359 12.0831C15.7456 9.34773 13.689 7.05842 11.1942 5.44825C10.3753 4.92442 9.46131 4.43929 8.45191 4.10959C8.14367 4.01543 7.80218 4.00027 7.45734 3.98496C7.16303 3.9719 6.86628 3.95873 6.58566 3.89624H6.18567C5.95477 3.8309 5.74979 3.64228 5.5591 3.46682C5.46673 3.38181 5.37771 3.2999 5.29072 3.23659C4.7003 2.82924 4.10999 2.55746 3.40536 2.26658C3.15782 2.15023 2.45318 1.87858 2.20564 2.09206C2.05319 2.13088 1.97709 2.18906 1.93898 2.34423C1.78666 2.57706 1.92011 2.92624 2.0152 3.13959C2.20396 3.54983 2.44265 3.84995 2.68723 4.1575C2.81279 4.31538 2.93989 4.47521 3.0626 4.65289C3.12121 4.73717 3.18232 4.82334 3.24445 4.91097C3.52553 5.3074 3.82761 5.73345 4.01478 6.1466C4.27891 6.72623 4.46717 7.33897 4.65474 7.94947C4.81877 8.48332 4.98227 9.01547 5.19551 9.52227C5.36683 9.92974 5.63349 10.3953 5.88103 10.7639C5.95867 10.8718 6.05988 10.969 6.16234 11.0674C6.33627 11.2344 6.51379 11.4049 6.58567 11.6369C6.77086 11.9513 6.43085 12.8517 6.22427 13.3987C6.17591 13.5268 6.13487 13.6355 6.10958 13.7128C5.61437 15.3035 5.70959 17.5151 6.2809 18.8925C6.30132 18.941 6.32158 18.9903 6.342 19.04C6.55008 19.5463 6.77344 20.0897 7.3283 20.2311C7.34555 20.2136 7.34721 20.2079 7.35092 20.2052C7.3554 20.202 7.36288 20.203 7.40452 20.1923C7.43239 19.9693 7.4561 19.748 7.47948 19.5298C7.56796 18.704 7.65166 17.9228 7.93772 17.263C8.07402 16.9222 8.29887 16.6472 8.51802 16.3791C8.6358 16.235 8.75193 16.0929 8.85179 15.9438C8.97265 16.0176 9.0168 16.1852 9.06216 16.3573C9.08827 16.4564 9.11478 16.557 9.15656 16.6421C9.17453 16.6858 9.19261 16.7298 9.2108 16.774C9.44303 17.339 9.69288 17.9468 9.97541 18.5045C10.6038 19.7461 11.3086 20.9488 12.1083 22.0353C12.3748 22.4233 12.7558 22.8501 13.0986 23.1993C13.1507 23.2458 13.2051 23.2855 13.2586 23.3245C13.3615 23.3996 13.4614 23.4724 13.5366 23.5873H13.5747V23.6456C13.2131 23.5105 12.9355 23.22 12.6645 22.9365C12.5073 22.772 12.3523 22.6098 12.1844 22.4816C11.3275 21.822 10.2992 20.8325 9.70875 19.882C9.52279 19.4739 9.32612 19.0768 9.12672 18.6742C9.06069 18.5409 8.99435 18.4069 8.92801 18.2718C8.92801 18.2718 8.92811 18.2523 8.92801 18.233C8.85523 18.3318 8.8443 18.4307 8.83115 18.5496C8.82366 18.6174 8.81544 18.6916 8.79468 18.7761C8.72409 19.0527 8.68912 19.3404 8.65532 19.6184C8.57058 20.3153 8.49321 20.9515 7.88061 21.2011C6.90943 21.6086 6.18568 20.5414 5.88103 20.0565C4.90986 18.4463 4.6432 15.7303 5.32872 13.5381C5.38175 13.3694 5.41865 13.1889 5.45545 13.0089C5.52441 12.6716 5.59301 12.3361 5.76682 12.0831C5.72861 11.85 5.59708 11.7292 5.46855 11.6112C5.40458 11.5524 5.34135 11.4943 5.29073 11.4234C5.02407 11.0549 4.79564 10.6281 4.58609 10.2207C4.28161 9.61519 4.04344 8.91965 3.81263 8.24557C3.74024 8.03415 3.66857 7.82484 3.5958 7.62108C3.5308 7.45084 3.48846 7.28054 3.44668 7.11251C3.40277 6.9359 3.35948 6.7618 3.29115 6.5929C3.11113 6.19554 2.81303 5.79825 2.53628 5.42941C2.46168 5.32998 2.38863 5.23263 2.31986 5.13789C2.24567 5.02943 2.14744 4.90373 2.03794 4.7636C1.50099 4.07644 0.693036 3.04247 1.12014 1.99506C1.91999 -0.00312844 4.71955 1.50993 5.80481 2.20841C5.91334 2.27949 6.02818 2.38269 6.14676 2.48924C6.31953 2.64449 6.50023 2.80687 6.68089 2.88741C6.91899 2.89715 7.15711 2.9117 7.39522 2.92625C7.63323 2.94079 7.87123 2.95533 8.10916 2.96506C8.18713 2.98365 8.26466 3.00194 8.3417 3.02011C9.14919 3.2106 9.90346 3.38854 10.5467 3.76042C13.8222 5.7199 15.9552 7.71809 17.9166 11.0161C18.1829 11.4599 18.3646 11.9273 18.5496 12.4033C18.6557 12.6762 18.7629 12.952 18.8878 13.2278C19.3639 14.3529 19.8973 15.5362 20.4494 16.6033C20.5188 16.7448 20.5837 16.8908 20.6488 17.0371C20.8157 17.4126 20.9835 17.79 21.2302 18.0971C21.3189 18.2263 21.5174 18.2952 21.7075 18.3612C21.803 18.3943 21.8965 18.4268 21.9729 18.4658C22.2192 18.595 22.486 18.7123 22.7549 18.8306C23.1721 19.0141 23.5944 19.1999 23.9534 19.4358C25.0579 20.1341 26.1245 20.9682 27.0956 21.822C27.292 22.0009 27.4547 22.2198 27.6172 22.4384C27.7542 22.6227 27.8911 22.8068 28.0478 22.9666V23.1412C27.7432 23.2382 27.4384 23.3352 27.1337 23.4128C26.8023 23.4996 26.4896 23.5336 26.1794 23.5674C25.8659 23.6015 25.5549 23.6354 25.2294 23.7232C25.1884 23.7351 25.1463 23.7475 25.1035 23.7601C24.7286 23.8702 24.2913 23.9988 23.9153 24.0336C23.9343 24.053 23.9534 24.0723 23.9534 24.0723C24.137 24.6046 24.9175 25.0622 25.5571 25.4372C25.7801 25.568 25.986 25.6887 26.1435 25.799C26.8862 26.3422 27.5717 27.0018 28.124 27.7583C28.219 27.8551 28.314 27.947 28.4089 28.0389C28.5044 28.1313 28.5999 28.2237 28.6954 28.321C28.7598 28.4149 28.802 28.5225 28.8436 28.6283C28.8878 28.741 28.9312 28.8517 29 28.9418V29C28.8334 28.9394 28.7189 28.8181 28.6053 28.6979C28.5371 28.6257 28.4692 28.5538 28.3906 28.4956C28.2112 28.3711 28.0319 28.2358 27.8526 28.1005C27.613 27.9198 27.3734 27.739 27.1337 27.5838C26.7653 27.3467 26.3671 27.1599 25.967 26.9722C25.5814 26.7913 25.1939 26.6095 24.8294 26.381C24.4105 26.1093 24.0106 25.799 23.6107 25.4886C23.2488 25.217 22.8491 24.693 22.6204 24.3052C22.5628 24.2129 22.5265 24.1135 22.4916 24.0177C22.4457 23.8919 22.4022 23.7725 22.3156 23.6843C22.3441 23.4087 22.607 23.3392 22.8572 23.2729C22.9415 23.2506 23.0245 23.2287 23.0965 23.1993Z" fill="#01618A"/>
<path d="M6.58558 5.89442C6.81412 5.83625 7.04255 5.7973 7.36632 5.7973C7.42667 5.85883 7.50199 5.91119 7.57805 5.96407C7.69395 6.04464 7.81156 6.12639 7.88052 6.2436C7.92282 6.30394 7.95008 6.36429 7.97734 6.42463C8.01143 6.50011 8.04553 6.57559 8.10906 6.65107C8.10906 7.1166 7.97586 7.42695 7.70908 7.62108C7.70908 7.62108 7.69008 7.64043 7.67109 7.6599C7.59498 7.50489 7.52366 7.34988 7.45235 7.19489C7.38083 7.03944 7.30932 6.884 7.23299 6.7286C7.15883 6.62287 7.07315 6.52594 6.98717 6.42866C6.85235 6.27613 6.71677 6.12275 6.62369 5.93325H6.58558V5.89442Z" fill="#01618A"/>
<path d="M23.0965 23.1993C24.0868 22.7726 25.2675 22.6173 26.791 22.656C26.7481 22.3656 26.2037 22.0207 25.8049 21.7681C25.671 21.6832 25.5535 21.6088 25.4769 21.5503C24.8675 21.1041 24.22 20.6384 23.5726 20.2311C23.364 20.1013 23.0637 19.993 22.7747 19.8887C22.5888 19.8217 22.4076 19.7563 22.2585 19.688C22.1062 19.6247 21.8987 19.5615 21.6747 19.4932C21.1425 19.331 20.5172 19.1404 20.316 18.8538C19.7982 18.168 19.4369 17.3387 19.076 16.5106C19.0387 16.425 19.0014 16.3395 18.964 16.2541C18.7751 15.8142 18.565 15.3657 18.3536 14.9146C18.1176 14.4108 17.8801 13.9039 17.6691 13.4023C17.5771 13.198 17.5072 13.0048 17.4383 12.8147C17.3503 12.5716 17.2641 12.3334 17.1359 12.0831C15.7456 9.34773 13.689 7.05842 11.1942 5.44825C10.3753 4.92442 9.46131 4.43929 8.45191 4.10959C8.14367 4.01543 7.80218 4.00027 7.45734 3.98496C7.16303 3.9719 6.86628 3.95873 6.58566 3.89624H6.18567C5.95477 3.8309 5.74979 3.64228 5.5591 3.46682C5.46673 3.38181 5.37771 3.2999 5.29072 3.23659C4.7003 2.82924 4.10999 2.55746 3.40536 2.26658C3.15782 2.15023 2.45318 1.87858 2.20564 2.09206C2.05319 2.13088 1.97709 2.18906 1.93898 2.34423C1.78666 2.57706 1.92011 2.92624 2.0152 3.13959C2.20396 3.54983 2.44265 3.84995 2.68723 4.1575C2.81279 4.31538 2.93989 4.47521 3.0626 4.65289C3.12121 4.73717 3.18232 4.82334 3.24445 4.91097C3.52553 5.3074 3.82761 5.73345 4.01478 6.1466C4.27891 6.72623 4.46717 7.33897 4.65474 7.94947C4.81877 8.48332 4.98227 9.01547 5.19551 9.52227C5.36683 9.92974 5.63349 10.3953 5.88103 10.7639C5.95867 10.8718 6.05988 10.969 6.16234 11.0674C6.33627 11.2344 6.51379 11.4049 6.58567 11.6369C6.77086 11.9513 6.43085 12.8517 6.22427 13.3987C6.17591 13.5268 6.13487 13.6355 6.10958 13.7128C5.61437 15.3035 5.70959 17.5151 6.2809 18.8925C6.30132 18.941 6.32158 18.9903 6.342 19.04C6.55008 19.5463 6.77344 20.0897 7.3283 20.2311C7.34555 20.2136 7.34721 20.2079 7.35092 20.2052C7.3554 20.202 7.36288 20.203 7.40452 20.1923C7.43239 19.9693 7.4561 19.748 7.47948 19.5298C7.56796 18.704 7.65166 17.9228 7.93772 17.263C8.07402 16.9222 8.29887 16.6472 8.51802 16.3791C8.6358 16.235 8.75193 16.0929 8.85179 15.9438C8.97265 16.0176 9.0168 16.1852 9.06216 16.3573C9.08827 16.4564 9.11478 16.557 9.15656 16.6421C9.17453 16.6858 9.19261 16.7298 9.2108 16.774C9.44303 17.339 9.69288 17.9468 9.97541 18.5045C10.6038 19.7461 11.3086 20.9488 12.1083 22.0353C12.3748 22.4233 12.7558 22.8501 13.0986 23.1993C13.1507 23.2458 13.2051 23.2855 13.2586 23.3245C13.3615 23.3996 13.4614 23.4724 13.5366 23.5873H13.5747V23.6456C13.2131 23.5105 12.9355 23.22 12.6645 22.9365C12.5073 22.772 12.3523 22.6098 12.1844 22.4816C11.3275 21.822 10.2992 20.8325 9.70875 19.882C9.52279 19.4739 9.32612 19.0768 9.12672 18.6742C9.06069 18.5409 8.99435 18.4069 8.92801 18.2718C8.92801 18.2718 8.92811 18.2523 8.92801 18.233C8.85523 18.3318 8.8443 18.4307 8.83115 18.5496C8.82366 18.6174 8.81544 18.6916 8.79468 18.7761C8.72409 19.0527 8.68912 19.3404 8.65532 19.6184C8.57058 20.3153 8.49321 20.9515 7.88061 21.2011C6.90943 21.6086 6.18568 20.5414 5.88103 20.0565C4.90986 18.4463 4.6432 15.7303 5.32872 13.5381C5.38175 13.3694 5.41865 13.1889 5.45545 13.0089C5.52441 12.6716 5.59301 12.3361 5.76682 12.0831C5.72861 11.85 5.59708 11.7292 5.46855 11.6112C5.40458 11.5524 5.34135 11.4943 5.29073 11.4234C5.02407 11.0549 4.79564 10.6281 4.58609 10.2207C4.28161 9.61519 4.04344 8.91965 3.81263 8.24557C3.74024 8.03415 3.66857 7.82484 3.5958 7.62108C3.5308 7.45084 3.48846 7.28054 3.44668 7.11251C3.40277 6.9359 3.35948 6.7618 3.29115 6.5929C3.11113 6.19554 2.81303 5.79825 2.53628 5.42941C2.46168 5.32998 2.38863 5.23263 2.31986 5.13789C2.24567 5.02943 2.14744 4.90373 2.03794 4.7636C1.50099 4.07644 0.693036 3.04247 1.12014 1.99506C1.91999 -0.00312844 4.71955 1.50993 5.80481 2.20841C5.91334 2.27949 6.02818 2.38269 6.14676 2.48924C6.31953 2.64449 6.50023 2.80687 6.68089 2.88741C6.91899 2.89715 7.15711 2.9117 7.39522 2.92625C7.63323 2.94079 7.87123 2.95533 8.10916 2.96506C8.18713 2.98365 8.26466 3.00194 8.3417 3.02011C9.14919 3.2106 9.90346 3.38854 10.5467 3.76042C13.8222 5.7199 15.9552 7.71809 17.9166 11.0161C18.1829 11.4599 18.3646 11.9273 18.5496 12.4033C18.6557 12.6762 18.7629 12.952 18.8878 13.2278C19.3639 14.3529 19.8973 15.5362 20.4494 16.6033C20.5188 16.7448 20.5837 16.8908 20.6488 17.0371C20.8157 17.4126 20.9835 17.79 21.2302 18.0971C21.3189 18.2263 21.5174 18.2952 21.7075 18.3612C21.803 18.3943 21.8965 18.4268 21.9729 18.4658C22.2192 18.595 22.486 18.7123 22.7549 18.8306C23.1721 19.0141 23.5944 19.1999 23.9534 19.4358C25.0579 20.1341 26.1245 20.9682 27.0956 21.822C27.292 22.0009 27.4547 22.2198 27.6172 22.4384C27.7542 22.6227 27.8911 22.8068 28.0478 22.9666V23.1412C27.7432 23.2382 27.4384 23.3352 27.1337 23.4128C26.8023 23.4996 26.4896 23.5336 26.1794 23.5674C25.8659 23.6015 25.5549 23.6354 25.2294 23.7232C25.1884 23.7351 25.1463 23.7475 25.1035 23.7601C24.7286 23.8702 24.2913 23.9988 23.9153 24.0336C23.9343 24.053 23.9534 24.0723 23.9534 24.0723C24.137 24.6046 24.9175 25.0622 25.5571 25.4372C25.7801 25.568 25.986 25.6887 26.1435 25.799C26.8862 26.3422 27.5717 27.0018 28.124 27.7583C28.219 27.8551 28.314 27.947 28.4089 28.0389C28.5044 28.1313 28.5999 28.2237 28.6954 28.321C28.7598 28.4149 28.802 28.5225 28.8436 28.6283C28.8878 28.741 28.9312 28.8517 29 28.9418V29C28.8334 28.9394 28.7189 28.8181 28.6053 28.6979C28.5371 28.6257 28.4692 28.5538 28.3906 28.4956C28.2112 28.3711 28.0319 28.2358 27.8526 28.1005C27.613 27.9198 27.3734 27.739 27.1337 27.5838C26.7653 27.3467 26.3671 27.1599 25.967 26.9722C25.5814 26.7913 25.1939 26.6095 24.8294 26.381C24.4105 26.1093 24.0106 25.799 23.6107 25.4886C23.2488 25.217 22.8491 24.693 22.6204 24.3052C22.5628 24.2129 22.5265 24.1135 22.4916 24.0177C22.4457 23.8919 22.4022 23.7725 22.3156 23.6843C22.3441 23.4087 22.607 23.3392 22.8572 23.2729C22.9415 23.2506 23.0245 23.2287 23.0965 23.1993Z" stroke="#01618A" stroke-width="0.2"/>
<path d="M6.58558 5.89442C6.81412 5.83625 7.04255 5.7973 7.36632 5.7973C7.42667 5.85883 7.50199 5.91119 7.57805 5.96407C7.69395 6.04464 7.81156 6.12639 7.88052 6.2436C7.92282 6.30394 7.95008 6.36429 7.97734 6.42463C8.01143 6.50011 8.04553 6.57559 8.10906 6.65107C8.10906 7.1166 7.97586 7.42695 7.70908 7.62108C7.70908 7.62108 7.69008 7.64043 7.67109 7.6599C7.59498 7.50489 7.52366 7.34988 7.45235 7.19489C7.38083 7.03944 7.30932 6.884 7.23299 6.7286C7.15883 6.62287 7.07315 6.52594 6.98717 6.42866C6.85235 6.27613 6.71677 6.12275 6.62369 5.93325H6.58558V5.89442Z" stroke="#01618A" stroke-width="0.2"/>
</svg>
