<svg width="28" height="28" viewBox="0 0 28 28" fill="none" xmlns="http://www.w3.org/2000/svg">
<path d="M27.9843 6.33436C27.9946 6.37165 28 6.41011 28 6.44878V12.4589C28 12.6159 27.9136 12.7609 27.7733 12.839L22.5805 15.7434V21.4998C22.5805 21.5768 22.5597 21.6525 22.5201 21.7193C22.4805 21.786 22.4235 21.8415 22.3549 21.8801L11.515 27.9417C11.4902 27.9553 11.4632 27.964 11.436 27.9735C11.4259 27.9766 11.4163 27.9827 11.4056 27.9855C11.3298 28.0048 11.2502 28.0048 11.1744 27.9855C11.1619 27.9823 11.1507 27.9756 11.1389 27.9712C11.114 27.9624 11.0881 27.9548 11.0645 27.9417L0.226734 21.88C0.157866 21.8416 0.10064 21.7862 0.0608323 21.7195C0.0210241 21.6527 4.10553e-05 21.577 0 21.4998L0 3.46956C0 3.43004 0.0056875 3.39168 0.01575 3.3545C0.0191406 3.34185 0.0270156 3.33038 0.0316094 3.31773C0.0400313 3.29479 0.0480156 3.2712 0.060375 3.24984C0.0687969 3.23561 0.0811562 3.22413 0.0913281 3.21096C0.104344 3.19343 0.116156 3.17537 0.131359 3.15996C0.144375 3.14742 0.161328 3.13807 0.175984 3.12713C0.192391 3.11396 0.206938 3.09972 0.225531 3.08931H0.226078L5.64517 0.0585521C5.71379 0.0201903 5.79158 0 5.87076 0C5.94993 0 6.02772 0.0201903 6.09634 0.0585521L11.5154 3.08931H11.5165C11.5346 3.10036 11.5499 3.11396 11.5662 3.1266C11.5808 3.13754 11.5973 3.14742 11.6102 3.15954C11.626 3.17537 11.6373 3.19353 11.6507 3.21096C11.6604 3.22413 11.6734 3.23561 11.6813 3.24984C11.6942 3.27173 11.7015 3.29479 11.7106 3.31784C11.715 3.33038 11.7229 3.34185 11.7263 3.35503C11.7367 3.39232 11.7421 3.43089 11.7422 3.46956V14.7309L16.2578 12.2052V6.44825C16.2578 6.41001 16.2635 6.37101 16.2737 6.33436C16.2776 6.32118 16.285 6.30971 16.2894 6.29717C16.2985 6.27412 16.3064 6.25042 16.3187 6.22918C16.3272 6.21494 16.3395 6.20346 16.3493 6.19029C16.3627 6.17276 16.374 6.1547 16.3897 6.13929C16.4029 6.12676 16.4192 6.11741 16.4338 6.10646C16.4508 6.09329 16.4654 6.07905 16.4835 6.06864H16.484L21.9037 3.03788C21.9723 2.99947 22.0501 2.97925 22.1292 2.97925C22.2084 2.97925 22.2862 2.99947 22.3548 3.03788L27.7739 6.06864C27.7931 6.07958 27.8077 6.09329 27.8247 6.10582C27.8387 6.11687 27.8551 6.12676 27.8681 6.13876C27.8838 6.1547 27.8951 6.17276 27.9086 6.19029C27.9188 6.20346 27.9312 6.21494 27.9392 6.22918C27.9521 6.25042 27.9594 6.27412 27.9684 6.29717C27.9735 6.30971 27.9809 6.32118 27.9843 6.33436V6.33436ZM27.0967 12.2053V7.20748L25.2002 8.26792L22.5804 9.73325V14.731L27.0972 12.2053H27.0967V12.2053ZM21.6776 21.2462V16.2449L19.1005 17.6747L11.7416 21.7545V26.8026L21.6776 21.246V21.2462ZM0.903328 4.22815V21.2462L10.8382 26.8022V21.755L5.64812 18.9017L5.64648 18.9006L5.6443 18.8996C5.6268 18.8897 5.61203 18.8755 5.59573 18.8634C5.58152 18.8524 5.56522 18.8437 5.55286 18.8316L5.55177 18.83C5.53711 18.8163 5.52694 18.7993 5.51458 18.784C5.5032 18.7691 5.48975 18.7566 5.48067 18.7413L5.48013 18.7396C5.46995 18.7232 5.46372 18.7034 5.45639 18.6848C5.44906 18.6684 5.43955 18.653 5.43495 18.6356V18.635C5.42938 18.6142 5.42828 18.5922 5.42598 18.5708C5.4238 18.5545 5.4192 18.538 5.4192 18.5216V6.75403L2.79978 5.28805L0.903328 4.22879V4.22815ZM5.87136 0.944851L1.35614 3.46956L5.87027 5.99416L10.3848 3.46892L5.87027 0.944851H5.87136ZM8.21942 16.7008L10.8387 15.2361V4.22815L8.9425 5.28869L6.32242 6.75392V17.7618L8.21942 16.7008V16.7008ZM22.1292 3.92418L17.6146 6.44878L22.1292 8.97349L26.6432 6.44825L22.1293 3.92418H22.1292ZM21.6775 9.73325L19.0576 8.26792L17.1613 7.20748V12.2053L19.7806 13.6701L21.6776 14.731V9.73325H21.6775ZM11.2894 20.9959L17.9112 17.3236L21.2214 15.4886L16.7101 12.9656L11.516 15.8703L6.78202 18.5177L11.2894 20.9959Z" fill="#F9322C"/>
</svg>
