<svg width="22" height="150" viewBox="0 0 22 214" fill="none" xmlns="http://www.w3.org/2000/svg">
<path d="M17.192 205.384C17.192 206.968 16.832 208.336 16.112 209.488C15.376 210.64 14.392 211.528 13.16 212.152C11.928 212.76 10.56 213.064 9.056 213.064C7.552 213.064 6.184 212.76 4.952 212.152C3.72 211.528 2.744 210.64 2.024 209.488C1.288 208.336 0.919999 206.968 0.919999 205.384C0.919999 204.184 1.136 203.104 1.568 202.144C1.984 201.184 2.56 200.368 3.296 199.696C4.032 199.024 4.888 198.52 5.864 198.184L5.864 200.08C4.888 200.48 4.112 201.112 3.536 201.976C2.96 202.84 2.672 203.928 2.672 205.24C2.672 206.52 2.96 207.616 3.536 208.528C4.096 209.424 4.856 210.104 5.816 210.568C6.776 211.032 7.856 211.264 9.056 211.264C10.24 211.264 11.32 211.032 12.296 210.568C13.256 210.104 14.024 209.424 14.6 208.528C15.16 207.616 15.44 206.52 15.44 205.24C15.44 203.928 15.152 202.84 14.576 201.976C14 201.112 13.224 200.48 12.248 200.08L12.248 198.184C13.208 198.52 14.064 199.024 14.816 199.696C15.552 200.368 16.136 201.184 16.568 202.144C16.984 203.104 17.192 204.184 17.192 205.384ZM17.192 181.566C17.192 182.734 16.92 183.758 16.376 184.638C15.816 185.502 15.064 186.174 14.12 186.654C13.176 187.134 12.136 187.374 11 187.374C9.848 187.374 8.808 187.134 7.88 186.654C6.936 186.174 6.192 185.502 5.648 184.638C5.088 183.758 4.808 182.734 4.808 181.566C4.808 180.574 5 179.726 5.384 179.022C5.768 178.302 6.288 177.718 6.944 177.27L5 177.27L5 175.47L17 175.47L17 177.27L15.08 177.27C15.72 177.718 16.232 178.302 16.616 179.022C17 179.726 17.192 180.574 17.192 181.566ZM15.56 181.326C15.56 180.43 15.352 179.678 14.936 179.07C14.52 178.446 13.968 177.974 13.28 177.654C12.576 177.334 11.816 177.174 11 177.174C10.168 177.174 9.408 177.334 8.72 177.654C8.032 177.974 7.48 178.446 7.064 179.07C6.648 179.678 6.44 180.43 6.44 181.326C6.44 182.206 6.648 182.966 7.064 183.606C7.48 184.246 8.032 184.734 8.72 185.07C9.408 185.406 10.168 185.574 11 185.574C11.816 185.574 12.576 185.406 13.28 185.07C13.968 184.734 14.52 184.246 14.936 183.606C15.352 182.966 15.56 182.206 15.56 181.326ZM17 163.116L5 163.116L5 161.316L7.952 161.316C7.744 161.252 7.472 161.132 7.136 160.956C6.784 160.764 6.432 160.492 6.08 160.14C5.728 159.788 5.432 159.348 5.192 158.82C4.936 158.276 4.808 157.636 4.808 156.9L4.808 156.78L6.608 156.78L6.608 156.996C6.608 157.892 6.856 158.668 7.352 159.324C7.832 159.964 8.464 160.46 9.248 160.812C10.016 161.148 10.84 161.316 11.72 161.316L17 161.316L17 163.116ZM17 145.603L0.199996 145.603L0.199996 143.803L17 143.803L17 145.603ZM17.192 126.377C17.192 127.545 16.92 128.569 16.376 129.449C15.816 130.313 15.064 130.985 14.12 131.465C13.176 131.945 12.136 132.185 11 132.185C9.848 132.185 8.808 131.945 7.88 131.465C6.936 130.985 6.192 130.313 5.648 129.449C5.088 128.569 4.808 127.545 4.808 126.377C4.808 125.385 5 124.537 5.384 123.833C5.768 123.113 6.288 122.529 6.944 122.081L5 122.081L5 120.281L17 120.281L17 122.081L15.08 122.081C15.72 122.529 16.232 123.113 16.616 123.833C17 124.537 17.192 125.385 17.192 126.377ZM15.56 126.137C15.56 125.241 15.352 124.489 14.936 123.881C14.52 123.257 13.968 122.785 13.28 122.465C12.576 122.145 11.816 121.985 11 121.985C10.168 121.985 9.408 122.145 8.72 122.465C8.032 122.785 7.48 123.257 7.064 123.881C6.648 124.489 6.44 125.241 6.44 126.137C6.44 127.017 6.648 127.777 7.064 128.417C7.48 129.057 8.032 129.545 8.72 129.881C9.408 130.217 10.168 130.385 11 130.385C11.816 130.385 12.576 130.217 13.28 129.881C13.968 129.545 14.52 129.057 14.936 128.417C15.352 127.777 15.56 127.017 15.56 126.137ZM17 93.1941L1.11199 93.1941L1.11199 91.3941L15.272 91.3941L15.272 82.7301L17 82.7301L17 93.1941ZM17.192 67.2363C17.192 68.0523 17 68.8283 16.616 69.5643C16.216 70.3003 15.632 70.9003 14.864 71.3643C14.08 71.8123 13.12 72.0363 11.984 72.0363L4.99999 72.0363L4.99999 70.2363L11.936 70.2363C13.024 70.2363 13.904 69.9243 14.576 69.3003C15.232 68.6603 15.56 67.8523 15.56 66.8763C15.56 66.2043 15.408 65.5963 15.104 65.0523C14.784 64.5083 14.352 64.0763 13.808 63.7563C13.264 63.4203 12.632 63.2523 11.912 63.2523L4.99999 63.2523L4.99999 61.4523L17 61.4523L17 63.2523L15.128 63.2523C15.704 63.6843 16.192 64.2123 16.592 64.8363C16.992 65.4603 17.192 66.2603 17.192 67.2363ZM21.752 49.0825L4.99999 49.0825L4.99999 47.2825L6.91999 47.2825C6.26399 46.8345 5.75199 46.2585 5.38399 45.5545C4.99999 44.8345 4.80799 43.9785 4.80799 42.9865C4.80799 41.8185 5.08799 40.8025 5.64799 39.9385C6.19199 39.0585 6.93599 38.3785 7.87999 37.8985C8.80799 37.4185 9.84799 37.1785 11 37.1785C12.136 37.1785 13.176 37.4185 14.12 37.8985C15.064 38.3785 15.816 39.0585 16.376 39.9385C16.92 40.8025 17.192 41.8185 17.192 42.9865C17.192 43.9785 17 44.8345 16.616 45.5545C16.216 46.2585 15.696 46.8345 15.056 47.2825L21.752 47.2825L21.752 49.0825ZM15.56 43.2265C15.56 42.3305 15.352 41.5705 14.936 40.9465C14.52 40.3065 13.968 39.8185 13.28 39.4825C12.576 39.1465 11.816 38.9785 11 38.9785C10.168 38.9785 9.40799 39.1465 8.71999 39.4825C8.03199 39.8185 7.47999 40.3065 7.06399 40.9465C6.64799 41.5705 6.43999 42.3305 6.43999 43.2265C6.43999 44.1065 6.64799 44.8585 7.06399 45.4825C7.47999 46.1065 8.03199 46.5785 8.71999 46.8985C9.40799 47.2185 10.168 47.3785 11 47.3785C11.816 47.3785 12.576 47.2185 13.28 46.8985C13.968 46.5785 14.52 46.1065 14.936 45.4825C15.352 44.8585 15.56 44.1065 15.56 43.2265ZM21.752 25.5691L4.99999 25.5691L4.99999 23.7691L6.91999 23.7691C6.26399 23.3211 5.75199 22.7451 5.38399 22.0411C4.99999 21.3211 4.80799 20.4651 4.80799 19.4731C4.80799 18.3051 5.08799 17.2891 5.64799 16.4251C6.19199 15.5451 6.93599 14.8651 7.87999 14.3851C8.80799 13.9051 9.84799 13.6651 11 13.6651C12.136 13.6651 13.176 13.9051 14.12 14.3851C15.064 14.8651 15.816 15.5451 16.376 16.4251C16.92 17.2891 17.192 18.3051 17.192 19.4731C17.192 20.4651 17 21.3211 16.616 22.0411C16.216 22.7451 15.696 23.3211 15.056 23.7691L21.752 23.7691L21.752 25.5691ZM15.56 19.7131C15.56 18.8171 15.352 18.0571 14.936 17.4331C14.52 16.7931 13.968 16.3051 13.28 15.9691C12.576 15.6331 11.816 15.4651 11 15.4651C10.168 15.4651 9.40799 15.6331 8.71999 15.9691C8.03199 16.3051 7.47999 16.7931 7.06399 17.4331C6.64799 18.0571 6.43999 18.8171 6.43999 19.7131C6.43999 20.5931 6.64799 21.3451 7.06399 21.9691C7.47999 22.5931 8.03199 23.0651 8.71999 23.3851C9.40799 23.7051 10.168 23.8651 11 23.8651C11.816 23.8651 12.576 23.7051 13.28 23.3851C13.968 23.0651 14.52 22.5931 14.936 21.9691C15.352 21.3451 15.56 20.5931 15.56 19.7131ZM2.98399 2.12763L0.63199 2.12763L0.63199 0.183631L2.98399 0.183631L2.98399 2.12763ZM17 2.05563L4.99999 2.05563L4.99999 0.255631L17 0.25563L17 2.05563Z" fill="black"/>
</svg>
