<svg width="1098" height="273" viewBox="0 0 1098 273" fill="none" xmlns="http://www.w3.org/2000/svg">
<line y1="117.5" x2="777" y2="117.5" stroke="white" stroke-width="39"/>
<path d="M167.922 48.6719C165.734 48.6719 163.781 49.1406 162.062 50.0781C160.344 50.9844 158.875 52.3125 157.656 54.0625C156.438 55.8125 155.5 57.9531 154.844 60.4844C154.219 62.9844 153.906 65.8281 153.906 69.0156C153.906 73.3281 154.453 76.9531 155.547 79.8906C156.641 82.8281 158.297 85.0469 160.516 86.5469C162.766 88.0469 165.578 88.7969 168.953 88.7969C172.016 88.7969 174.953 88.375 177.766 87.5312C180.609 86.6875 183.469 85.6719 186.344 84.4844V100.141C183.312 101.484 180.203 102.453 177.016 103.047C173.859 103.641 170.5 103.938 166.938 103.938C159.5 103.938 153.406 102.469 148.656 99.5312C143.938 96.5625 140.453 92.4531 138.203 87.2031C135.984 81.9531 134.875 75.8594 134.875 68.9219C134.875 63.7344 135.594 58.9844 137.031 54.6719C138.5 50.3594 140.641 46.625 143.453 43.4688C146.266 40.2812 149.734 37.8281 153.859 36.1094C158.016 34.3594 162.766 33.4844 168.109 33.4844C171.422 33.4844 174.906 33.875 178.562 34.6562C182.25 35.4062 185.844 36.625 189.344 38.3125L183.672 52.8906C181.172 51.7031 178.641 50.7031 176.078 49.8906C173.516 49.0781 170.797 48.6719 167.922 48.6719ZM253.231 76.3281C253.231 80.7656 252.621 84.7031 251.402 88.1406C250.184 91.5781 248.418 94.4688 246.106 96.8125C243.793 99.1562 240.996 100.938 237.715 102.156C234.434 103.344 230.731 103.938 226.606 103.938C222.762 103.938 219.231 103.344 216.012 102.156C212.824 100.938 210.043 99.1562 207.668 96.8125C205.293 94.4688 203.449 91.5781 202.137 88.1406C200.856 84.7031 200.215 80.7656 200.215 76.3281C200.215 70.4531 201.277 65.4844 203.402 61.4219C205.559 57.3594 208.621 54.2656 212.59 52.1406C216.59 50.0156 221.356 48.9531 226.887 48.9531C231.981 48.9531 236.512 50.0156 240.481 52.1406C244.449 54.2656 247.559 57.3594 249.809 61.4219C252.09 65.4844 253.231 70.4531 253.231 76.3281ZM218.824 76.3281C218.824 79.3594 219.09 81.9219 219.621 84.0156C220.152 86.0781 220.996 87.6562 222.152 88.75C223.34 89.8125 224.887 90.3438 226.793 90.3438C228.699 90.3438 230.215 89.8125 231.34 88.75C232.465 87.6562 233.277 86.0781 233.777 84.0156C234.309 81.9219 234.574 79.3594 234.574 76.3281C234.574 73.2969 234.309 70.7656 233.777 68.7344C233.277 66.7031 232.449 65.1719 231.293 64.1406C230.168 63.1094 228.637 62.5938 226.699 62.5938C223.918 62.5938 221.902 63.75 220.652 66.0625C219.434 68.375 218.824 71.7969 218.824 76.3281ZM300.805 48.9531C306.274 48.9531 310.742 50.5 314.211 53.5938C317.68 56.6875 319.414 61.6406 319.414 68.4531V103H301.086V74.0312C301.086 70.5 300.571 67.8438 299.539 66.0625C298.539 64.25 296.914 63.3438 294.664 63.3438C291.196 63.3438 288.867 64.7656 287.68 67.6094C286.492 70.4219 285.899 74.4688 285.899 79.75V103H267.571V49.8906H281.399L283.883 56.9219H284.586C285.711 55.2344 287.055 53.7969 288.617 52.6094C290.18 51.4219 291.977 50.5156 294.008 49.8906C296.039 49.2656 298.305 48.9531 300.805 48.9531ZM361.739 89.4531C363.395 89.4531 364.911 89.2812 366.286 88.9375C367.661 88.5938 369.098 88.1562 370.598 87.625V100.984C368.598 101.859 366.473 102.562 364.223 103.094C362.004 103.656 359.161 103.938 355.692 103.938C352.254 103.938 349.223 103.406 346.598 102.344C343.973 101.25 341.926 99.375 340.458 96.7188C339.02 94.0312 338.301 90.2969 338.301 85.5156V63.625H331.879V56.1719L340.036 50.4062L344.77 39.25H356.77V49.8906H369.801V63.625H356.77V84.2969C356.77 86.0156 357.208 87.3125 358.083 88.1875C358.958 89.0312 360.176 89.4531 361.739 89.4531ZM409.641 48.9531C416.36 48.9531 421.61 50.625 425.391 53.9688C429.173 57.2812 431.063 62.0156 431.063 68.1719V103H418.36L414.844 95.9688H414.469C412.969 97.8438 411.423 99.375 409.829 100.562C408.266 101.719 406.469 102.562 404.438 103.094C402.407 103.656 399.923 103.938 396.985 103.938C393.923 103.938 391.173 103.312 388.735 102.062C386.298 100.812 384.376 98.9219 382.969 96.3906C381.563 93.8594 380.86 90.6562 380.86 86.7812C380.86 81.0938 382.829 76.875 386.766 74.125C390.704 71.375 396.407 69.8281 403.876 69.4844L412.735 69.2031V68.4531C412.735 66.0781 412.141 64.3906 410.954 63.3906C409.798 62.3906 408.235 61.8906 406.266 61.8906C404.173 61.8906 401.829 62.2656 399.235 63.0156C396.673 63.7344 394.094 64.6719 391.501 65.8281L386.204 53.7344C389.266 52.1719 392.735 50.9844 396.61 50.1719C400.485 49.3594 404.829 48.9531 409.641 48.9531ZM412.829 79.2812L408.61 79.4688C405.235 79.5938 402.86 80.1875 401.485 81.25C400.141 82.2812 399.469 83.7656 399.469 85.7031C399.469 87.5156 399.954 88.8594 400.923 89.7344C401.891 90.5781 403.173 91 404.766 91C406.985 91 408.876 90.2969 410.438 88.8906C412.032 87.4844 412.829 85.6562 412.829 83.4062V79.2812ZM430.173 29.4531V30.4375C429.048 31.3437 427.61 32.4531 425.86 33.7656C424.11 35.0469 422.251 36.3906 420.282 37.7969C418.344 39.1719 416.454 40.4844 414.61 41.7344C412.798 42.9844 411.235 44.0156 409.923 44.8281H397.735V43.4688C398.829 42.2812 400.141 40.875 401.673 39.25C403.204 37.5938 404.735 35.9062 406.266 34.1875C407.798 32.4688 409.079 30.8906 410.11 29.4531H430.173ZM471.559 103.938C466.184 103.938 461.513 102.984 457.544 101.078C453.575 99.1406 450.497 96.1719 448.309 92.1719C446.153 88.1406 445.075 82.9844 445.075 76.7031C445.075 70.2656 446.278 65 448.684 60.9062C451.122 56.8125 454.45 53.7969 458.669 51.8594C462.888 49.9219 467.669 48.9531 473.013 48.9531C476.263 48.9531 479.341 49.3125 482.247 50.0312C485.184 50.75 487.903 51.7344 490.403 52.9844L485.013 66.5312C482.825 65.5625 480.778 64.7969 478.872 64.2344C476.997 63.6406 475.044 63.3438 473.013 63.3438C471.169 63.3438 469.544 63.8281 468.138 64.7969C466.731 65.7656 465.638 67.2344 464.856 69.2031C464.075 71.1406 463.684 73.6094 463.684 76.6094C463.684 79.6719 464.075 82.1406 464.856 84.0156C465.669 85.8906 466.778 87.25 468.184 88.0938C469.622 88.9375 471.263 89.3594 473.106 89.3594C475.763 89.3594 478.403 88.9531 481.028 88.1406C483.684 87.2969 486.2 86.1406 488.575 84.6719V99.25C486.388 100.688 483.919 101.828 481.169 102.672C478.419 103.516 475.216 103.938 471.559 103.938ZM528.978 89.4531C530.634 89.4531 532.149 89.2812 533.524 88.9375C534.899 88.5938 536.337 88.1562 537.837 87.625V100.984C535.837 101.859 533.712 102.562 531.462 103.094C529.243 103.656 526.399 103.938 522.931 103.938C519.493 103.938 516.462 103.406 513.837 102.344C511.212 101.25 509.165 99.375 507.696 96.7188C506.259 94.0312 505.54 90.2969 505.54 85.5156V63.625H499.118V56.1719L507.274 50.4062L512.009 39.25H524.009V49.8906H537.04V63.625H524.009V84.2969C524.009 86.0156 524.446 87.3125 525.321 88.1875C526.196 89.0312 527.415 89.4531 528.978 89.4531ZM576.88 48.9531C583.599 48.9531 588.849 50.625 592.63 53.9688C596.411 57.2812 598.302 62.0156 598.302 68.1719V103H585.599L582.083 95.9688H581.708C580.208 97.8438 578.661 99.375 577.068 100.562C575.505 101.719 573.708 102.562 571.677 103.094C569.646 103.656 567.161 103.938 564.224 103.938C561.161 103.938 558.411 103.312 555.974 102.062C553.536 100.812 551.614 98.9219 550.208 96.3906C548.802 93.8594 548.099 90.6562 548.099 86.7812C548.099 81.0938 550.068 76.875 554.005 74.125C557.943 71.375 563.646 69.8281 571.114 69.4844L579.974 69.2031V68.4531C579.974 66.0781 579.38 64.3906 578.193 63.3906C577.036 62.3906 575.474 61.8906 573.505 61.8906C571.411 61.8906 569.068 62.2656 566.474 63.0156C563.911 63.7344 561.333 64.6719 558.739 65.8281L553.443 53.7344C556.505 52.1719 559.974 50.9844 563.849 50.1719C567.724 49.3594 572.068 48.9531 576.88 48.9531ZM580.068 79.2812L575.849 79.4688C572.474 79.5938 570.099 80.1875 568.724 81.25C567.38 82.2812 566.708 83.7656 566.708 85.7031C566.708 87.5156 567.193 88.8594 568.161 89.7344C569.13 90.5781 570.411 91 572.005 91C574.224 91 576.114 90.2969 577.677 88.8906C579.271 87.4844 580.068 85.6562 580.068 83.4062V79.2812ZM679.439 48.9531C685.501 48.9531 690.126 50.5 693.314 53.5938C696.533 56.6875 698.142 61.6406 698.142 68.4531V103H679.814V74.125C679.814 70.0938 679.267 67.2969 678.173 65.7344C677.111 64.1406 675.517 63.3438 673.392 63.3438C670.423 63.3438 668.361 64.6406 667.204 67.2344C666.079 69.8281 665.517 73.5 665.517 78.25V103H647.142V74.125C647.142 71.5625 646.908 69.5 646.439 67.9375C646.001 66.3438 645.329 65.1875 644.423 64.4688C643.517 63.7188 642.376 63.3438 641.001 63.3438C638.908 63.3438 637.267 63.9844 636.079 65.2656C634.923 66.5156 634.111 68.3594 633.642 70.7969C633.173 73.2344 632.939 76.2188 632.939 79.75V103H614.611V49.8906H628.439L631.111 56.4531H631.626C632.564 55.0156 633.767 53.7344 635.236 52.6094C636.736 51.4844 638.501 50.5938 640.533 49.9375C642.595 49.2812 644.939 48.9531 647.564 48.9531C651.47 48.9531 654.689 49.6094 657.22 50.9219C659.751 52.2344 661.814 54.0469 663.408 56.3594H663.97C665.658 53.9844 667.829 52.1562 670.486 50.875C673.142 49.5938 676.126 48.9531 679.439 48.9531ZM738.357 48.9531C743.513 48.9531 747.966 49.8594 751.716 51.6719C755.466 53.4531 758.357 56.1406 760.388 59.7344C762.419 63.3281 763.435 67.8281 763.435 73.2344V81.3906H730.669C730.826 84.1719 731.857 86.4531 733.763 88.2344C735.701 90.0156 738.544 90.9062 742.294 90.9062C745.607 90.9062 748.638 90.5781 751.388 89.9219C754.169 89.2656 757.029 88.25 759.966 86.875V100.047C757.404 101.391 754.607 102.375 751.576 103C748.544 103.625 744.716 103.938 740.091 103.938C734.747 103.938 729.966 102.984 725.747 101.078C721.529 99.1719 718.201 96.2188 715.763 92.2188C713.357 88.2188 712.154 83.0781 712.154 76.7969C712.154 70.4219 713.247 65.1875 715.435 61.0938C717.622 56.9688 720.685 53.9219 724.622 51.9531C728.56 49.9531 733.138 48.9531 738.357 48.9531ZM739.013 61.4219C736.857 61.4219 735.044 62.1094 733.576 63.4844C732.138 64.8281 731.294 66.9531 731.044 69.8594H746.794C746.763 68.2969 746.451 66.875 745.857 65.5938C745.263 64.3125 744.388 63.2969 743.232 62.5469C742.107 61.7969 740.701 61.4219 739.013 61.4219Z" fill="black"/>
</svg>
