<svg width="25" height="25" viewBox="0 0 25 25" fill="none" xmlns="http://www.w3.org/2000/svg">
<path d="M12.4878 0C5.58829 0 0 5.59375 0 12.5C0 18.0312 3.57463 22.7031 8.53854 24.3594C9.16293 24.4688 9.39707 24.0938 9.39707 23.7656C9.39707 23.4688 9.38146 22.4844 9.38146 21.4375C6.2439 22.0156 5.4322 20.6719 5.18244 19.9688C5.04195 19.6094 4.43317 18.5 3.90244 18.2031C3.46537 17.9688 2.84098 17.3906 3.88683 17.375C4.87024 17.3594 5.57268 18.2812 5.80683 18.6562C6.93073 20.5469 8.72585 20.0156 9.4439 19.6875C9.55317 18.875 9.88098 18.3281 10.24 18.0156C7.46146 17.7031 4.55805 16.625 4.55805 11.8438C4.55805 10.4844 5.04195 9.35938 5.83805 8.48438C5.71317 8.17188 5.2761 6.89062 5.96293 5.17188C5.96293 5.17188 7.00878 4.84375 9.39707 6.45312C10.3961 6.17188 11.4576 6.03125 12.519 6.03125C13.5805 6.03125 14.642 6.17188 15.641 6.45312C18.0293 4.82812 19.0751 5.17188 19.0751 5.17188C19.762 6.89062 19.3249 8.17188 19.2 8.48438C19.9961 9.35938 20.48 10.4688 20.48 11.8438C20.48 16.6406 17.561 17.7031 14.7824 18.0156C15.2351 18.4062 15.6254 19.1562 15.6254 20.3281C15.6254 22 15.6098 23.3438 15.6098 23.7656C15.6098 24.0938 15.8439 24.4844 16.4683 24.3594C18.9474 23.5217 21.1015 21.9268 22.6277 19.7994C24.1538 17.672 24.9749 15.1191 24.9756 12.5C24.9756 5.59375 19.3873 0 12.4878 0Z" fill="#41444B"/>
</svg>
