<svg width="20" height="20" viewBox="0 0 25 25" fill="none" xmlns="http://www.w3.org/2000/svg">
<path d="M24.2659 10.2476C24.4127 11.0835 24.4815 11.9378 24.4815 12.7875C24.4815 16.5904 23.1233 19.8054 20.7603 21.9825H20.7649C18.6955 23.8931 15.8553 25 12.4874 25C7.7659 25 3.4482 22.3361 1.32835 18.1152C-0.442781 14.5833 -0.442784 10.4221 1.32835 6.89019C3.4482 2.66472 7.7659 0.000842332 12.4874 0.000842332C15.5892 -0.0359009 18.5854 1.1307 20.8429 3.25262L17.2777 6.8213C15.9884 5.5904 14.2677 4.91984 12.4874 4.9474C9.22961 4.9474 6.46279 7.1474 5.47628 10.1098C4.9532 11.6622 4.9532 13.3432 5.47628 14.8956H5.48087C6.47197 17.8534 9.2342 20.0534 12.492 20.0534C14.1759 20.0534 15.6213 19.6217 16.7409 18.8593H16.7363C18.0531 17.9866 18.9525 16.6134 19.2324 15.061H12.4874V10.2476H24.2659Z" fill="#41444B"/>
</svg>
