<svg width="180"  viewBox="0 0 638 273" fill="none" xmlns="http://www.w3.org/2000/svg">
<line x1="-1.5299e-06" y1="178.5" x2="592" y2="178.5" stroke="#F0CB46" stroke-width="35"/>
<path d="M136.234 171H105.219V124.438H69.3594V171H38.3438V56.7812H69.3594V99.125H105.219V56.7812H136.234V171ZM274.275 113.734C274.275 122.536 273.207 130.557 271.072 137.797C268.989 144.984 265.707 151.182 261.228 156.391C256.749 161.599 250.994 165.609 243.962 168.422C236.931 171.182 228.52 172.562 218.728 172.562C209.145 172.562 200.837 171.182 193.806 168.422C186.827 165.609 181.072 161.625 176.541 156.469C172.009 151.26 168.65 145.036 166.462 137.797C164.275 130.557 163.181 122.484 163.181 113.578C163.181 101.703 165.134 91.3906 169.041 82.6406C172.999 73.8385 179.093 67.0417 187.322 62.25C195.551 57.4062 206.072 54.9844 218.884 54.9844C231.905 54.9844 242.478 57.4062 250.603 62.25C258.78 67.0938 264.77 73.9167 268.572 82.7188C272.374 91.5208 274.275 101.859 274.275 113.734ZM195.681 113.734C195.681 120.609 196.462 126.521 198.025 131.469C199.587 136.417 202.061 140.219 205.447 142.875C208.832 145.531 213.259 146.859 218.728 146.859C224.405 146.859 228.91 145.531 232.244 142.875C235.629 140.219 238.051 136.417 239.509 131.469C241.02 126.521 241.775 120.609 241.775 113.734C241.775 103.422 240.056 95.2708 236.619 89.2812C233.181 83.2917 227.27 80.2969 218.884 80.2969C213.311 80.2969 208.806 81.651 205.369 84.3594C201.983 87.0677 199.509 90.9219 197.947 95.9219C196.436 100.922 195.681 106.859 195.681 113.734ZM301.3 171V56.7812H332.159V146.078H376.144V171H301.3ZM470.903 171L465.278 149.594H428.169L422.388 171H388.481L425.747 56.3125H466.919L504.653 171H470.903ZM458.872 124.281L453.95 105.531C453.429 103.5 452.674 100.609 451.684 96.8594C450.695 93.0573 449.705 89.151 448.716 85.1406C447.778 81.0781 447.049 77.7448 446.528 75.1406C446.059 77.7448 445.382 80.974 444.497 84.8281C443.664 88.6302 442.778 92.4062 441.841 96.1562C440.955 99.9062 440.174 103.031 439.497 105.531L434.575 124.281H458.872ZM517.85 158.031C517.85 152.51 519.465 148.63 522.694 146.391C525.975 144.151 529.907 143.031 534.491 143.031C538.814 143.031 542.564 144.151 545.741 146.391C548.918 148.63 550.506 152.51 550.506 158.031C550.506 163.292 548.918 167.094 545.741 169.438C542.564 171.781 538.814 172.953 534.491 172.953C529.907 172.953 525.975 171.781 522.694 169.438C519.465 167.094 517.85 163.292 517.85 158.031Z" fill="black"/>
</svg>
