<svg width="25" height="25" viewBox="0 0 25 25" fill="none" xmlns="http://www.w3.org/2000/svg">
<path d="M0 1.79084C0 0.802052 0.821092 0 1.83401 0H23.1416C24.1545 0 24.9756 0.802055 24.9756 1.79084V23.2092C24.9756 24.1983 24.1545 25 23.1416 25L1.83401 25C0.821092 25 0 24.1983 0 23.2092V1.79084ZM7.71649 20.9276V9.63869H3.96794V20.9276H7.71649ZM5.8422 8.09738C7.14939 8.09738 7.96302 7.23052 7.96302 6.14719C7.93866 5.03948 7.1494 4.19667 5.867 4.19667C4.58473 4.19667 3.74634 5.03948 3.74634 6.14719C3.74634 7.23052 4.55979 8.09738 5.81776 8.09738H5.8422ZM13.5046 20.9276V14.6234C13.5046 14.286 13.529 13.9489 13.628 13.7078C13.8989 13.0336 14.5157 12.3355 15.5513 12.3355C16.9077 12.3355 17.4503 13.3707 17.4503 14.8883V20.9276H21.1985V14.4547C21.1985 10.9872 19.3492 9.37379 16.8829 9.37379C14.8945 9.37379 14.0029 10.4678 13.5047 11.237V11.2759H13.4797C13.4879 11.263 13.4963 11.25 13.5047 11.237V9.63869H9.7562C9.80539 10.698 9.7562 20.9276 9.7562 20.9276H13.5046Z" fill="#41444B"/>
</svg>
